<?xml version="1.0" standalone="no"?>
<!DOCTYPE svg PUBLIC "-//W3C//DTD SVG 1.1//EN" "http://www.w3.org/Graphics/SVG/1.1/DTD/svg11.dtd" >
<svg xmlns="http://www.w3.org/2000/svg" xmlns:xlink="http://www.w3.org/1999/xlink" version="1.1">
<metadata>
Created by FontForge 20160407 at Tue Jul 12 11:26:20 2016
 By Jimmy Warting
Copyright (c) Mark Simonson, 2005. All rights reserved.
</metadata>
<defs>
<font id="ProximaNova-BlackIt" horiz-adv-x="596" >
  <font-face 
    font-family="Proxima Nova Bl"
    font-weight="900"
    font-style="italic"
    font-stretch="normal"
    units-per-em="1000"
    panose-1="2 0 5 6 3 0 0 2 0 4"
    ascent="790"
    descent="-210"
    x-height="483"
    cap-height="667"
    bbox="-226 -298 1217 910"
    underline-thickness="20"
    underline-position="-133"
    stemh="176"
    stemv="184"
    unicode-range="U+000D-FB04"
  />
<missing-glyph horiz-adv-x="459" 
d="M425 -90h-351v842h351v-842zM393 -60v782h-288v-782h288z" />
    <glyph glyph-name="f_b" unicode="fb" horiz-adv-x="967" 
d="M213 0h-180l72 327h-80l35 156h79l6 25c23 94 95 169 205 169c39 0 86 -6 123 -28l-59 -117c-9 8 -23 12 -39 12c-31 0 -46 -18 -50 -36l-6 -25h99l-35 -156h-98zM698 -12c-55 0 -109 20 -140 63l-11 -51h-180l147 667h180l-52 -235c42 46 81 63 131 63
c108 0 180 -71 180 -201c0 -134 -83 -306 -255 -306zM666 147c57 0 101 47 101 109c0 48 -37 80 -80 80c-28 0 -52 -12 -73 -33l-28 -123c19 -21 48 -33 80 -33z" />
    <glyph glyph-name="f_f" unicode="ff" horiz-adv-x="742" 
d="M213 0h-180l72 327h-80l35 156h79l6 26c21 92 87 168 209 168c53 0 113 -15 149 -52l-84 -100c-13 14 -27 19 -48 19c-27 0 -42 -18 -47 -40l-5 -21h99l-35 -156h-98zM584 0h-180l72 327h-80l35 156h79l6 26c21 92 87 168 209 168c53 0 113 -15 149 -52l-84 -100
c-13 14 -27 19 -48 19c-27 0 -42 -18 -47 -40l-5 -21h99l-35 -156h-98z" />
    <glyph glyph-name="f_h" unicode="fh" horiz-adv-x="979" 
d="M213 0h-180l72 327h-80l35 156h79l6 25c23 94 95 169 205 169c39 0 86 -6 123 -28l-59 -117c-9 8 -23 12 -39 12c-31 0 -46 -18 -50 -36l-6 -25h99l-35 -156h-98zM875 0h-180l56 259c2 9 5 24 5 32c0 33 -29 45 -65 45c-32 0 -59 -20 -78 -37l-65 -299h-180l147 667h180
l-54 -239c35 32 79 67 152 67c101 0 159 -55 159 -127c0 -11 -3 -30 -5 -39z" />
    <glyph glyph-name="fi" unicode="fi" horiz-adv-x="651" 
d="M213 0h-180l72 327h-80l35 156h79l6 25c23 94 95 169 205 169c39 0 86 -6 123 -28l-59 -117c-9 8 -23 12 -39 12c-31 0 -46 -18 -50 -36l-6 -25h99l-35 -156h-98zM582 518c-53 0 -91 39 -91 86c0 75 63 116 114 116c53 0 91 -39 91 -86c0 -75 -63 -116 -114 -116zM547 0
h-180l107 483h180z" />
    <glyph glyph-name="f_j" unicode="fj" horiz-adv-x="651" 
d="M213 0h-180l72 327h-80l35 156h79l6 25c23 94 95 169 205 169c39 0 86 -6 123 -28l-59 -117c-9 8 -23 12 -39 12c-31 0 -46 -18 -50 -36l-6 -25h99l-35 -156h-98zM332 -196c-73 0 -119 12 -153 40l70 128c15 -16 35 -21 56 -21c32 0 56 25 66 70l103 462h180l-103 -462
c-27 -124 -86 -217 -219 -217zM582 518c-53 0 -91 39 -91 86c0 75 63 116 114 116c53 0 91 -39 91 -86c0 -75 -63 -116 -114 -116z" />
    <glyph glyph-name="f_k" unicode="fk" horiz-adv-x="928" 
d="M213 0h-180l72 327h-80l35 156h79l6 25c23 94 95 169 205 169c39 0 86 -6 123 -28l-59 -117c-9 8 -23 12 -39 12c-31 0 -46 -18 -50 -36l-6 -25h99l-35 -156h-98zM886 0h-216l-51 159l-48 -50l-24 -109h-180l147 667h180l-77 -346l142 162h223l-215 -220z" />
    <glyph glyph-name="fl" unicode="fl" horiz-adv-x="651" 
d="M213 0h-180l72 327h-80l35 156h79l6 25c23 94 95 169 205 169c39 0 86 -6 123 -28l-59 -117c-9 8 -23 12 -39 12c-31 0 -46 -18 -50 -36l-6 -25h99l-35 -156h-98zM547 0h-180l147 667h180z" />
    <glyph glyph-name="f_f_i" unicode="ffi" horiz-adv-x="1022" 
d="M584 0h-180l72 327h-80l35 156h79l6 25c23 94 95 169 205 169c39 0 86 -6 123 -28l-59 -117c-9 8 -23 12 -39 12c-31 0 -46 -18 -50 -36l-6 -25h99l-35 -156h-98zM953 518c-53 0 -91 39 -91 86c0 75 63 116 114 116c53 0 91 -39 91 -86c0 -75 -63 -116 -114 -116zM918 0
h-180l107 483h180zM213 0h-180l72 327h-80l35 156h79l6 26c21 92 87 168 209 168c53 0 113 -15 149 -52l-84 -100c-13 14 -27 19 -48 19c-27 0 -42 -18 -47 -40l-5 -21h99l-35 -156h-98z" />
    <glyph glyph-name="f_f_j" unicode="ffj" horiz-adv-x="1022" 
d="M584 0h-180l72 327h-80l35 156h79l6 25c23 94 95 169 205 169c39 0 86 -6 123 -28l-59 -117c-9 8 -23 12 -39 12c-31 0 -46 -18 -50 -36l-6 -25h99l-35 -156h-98zM703 -196c-73 0 -119 12 -153 40l70 128c15 -16 35 -21 56 -21c32 0 56 25 66 70l103 462h180l-103 -462
c-27 -124 -86 -217 -219 -217zM953 518c-53 0 -91 39 -91 86c0 75 63 116 114 116c53 0 91 -39 91 -86c0 -75 -63 -116 -114 -116zM213 0h-180l72 327h-80l35 156h79l6 26c21 92 87 168 209 168c53 0 113 -15 149 -52l-84 -100c-13 14 -27 19 -48 19c-27 0 -42 -18 -47 -40
l-5 -21h99l-35 -156h-98z" />
    <glyph glyph-name="f_f_l" unicode="ffl" horiz-adv-x="1022" 
d="M584 0h-180l72 327h-80l35 156h79l6 25c23 94 95 169 205 169c39 0 86 -6 123 -28l-59 -117c-9 8 -23 12 -39 12c-31 0 -46 -18 -50 -36l-6 -25h99l-35 -156h-98zM918 0h-180l147 667h180zM213 0h-180l72 327h-80l35 156h79l6 26c21 92 87 168 209 168
c53 0 113 -15 149 -52l-84 -100c-13 14 -27 19 -48 19c-27 0 -42 -18 -47 -40l-5 -21h99l-35 -156h-98z" />
    <glyph glyph-name=".notdef" horiz-adv-x="459" 
d="M425 -90h-351v842h351v-842zM393 -60v782h-288v-782h288z" />
    <glyph glyph-name=".null" horiz-adv-x="0" 
 />
    <glyph glyph-name=".null" horiz-adv-x="0" 
 />
    <glyph glyph-name="CR" unicode="&#xd;" horiz-adv-x="0" 
 />
    <glyph glyph-name="space" unicode=" " horiz-adv-x="255" 
 />
    <glyph glyph-name="nbspace" unicode="&#xa0;" horiz-adv-x="255" 
 />
    <glyph glyph-name="thinspace" unicode="&#x2009;" horiz-adv-x="51" 
 />
    <glyph glyph-name="zero" unicode="0" horiz-adv-x="628" 
d="M290 -12c-149 0 -262 93 -262 278c0 231 150 411 349 411c149 0 261 -92 261 -277c0 -231 -149 -412 -348 -412zM309 166c84 0 126 140 126 243c0 55 -24 90 -78 90c-84 0 -127 -139 -127 -242c0 -55 25 -91 79 -91z" />
    <glyph glyph-name="zero.pzero" horiz-adv-x="628" 
d="M290 -12c-61 0 -117 15 -160 47l-32 -35h-135l100 110c-22 42 -35 93 -35 156c0 231 150 411 349 411c61 0 115 -16 158 -46l33 36h135l-101 -111c23 -42 36 -94 36 -156c0 -231 -149 -412 -348 -412zM309 166c73 0 115 107 124 203l-172 -190c12 -9 28 -13 48 -13z
M357 499c-74 0 -116 -107 -125 -203l172 190c-12 8 -28 13 -47 13z" />
    <glyph glyph-name="one" unicode="1" horiz-adv-x="483" 
d="M375 0h-202l90 410l-137 -112l-88 119l310 250h174z" />
    <glyph glyph-name="two" unicode="2" horiz-adv-x="613" 
d="M532 0h-545l39 183c296 154 395 205 395 266c0 32 -41 52 -96 52c-71 0 -123 -27 -162 -55l-80 146c67 54 165 85 258 85c156 0 290 -78 290 -213c0 -112 -81 -198 -277 -288h217z" />
    <glyph glyph-name="three" unicode="3" horiz-adv-x="617" 
d="M306 -12c-132 0 -265 45 -328 139l129 125c50 -61 139 -86 197 -86c57 0 78 20 78 45c0 16 -7 36 -96 36c-29 0 -87 -1 -97 -2l40 179c12 -1 72 -1 96 -1c64 0 100 5 100 36c0 28 -39 41 -110 41c-57 0 -114 -16 -156 -43l-67 136c58 50 144 84 244 84
c184 0 298 -67 298 -180c0 -78 -92 -145 -180 -159c72 -18 127 -59 127 -149c0 -122 -130 -201 -275 -201z" />
    <glyph glyph-name="four" unicode="4" horiz-adv-x="636" 
d="M487 0h-202l23 107h-321l39 172l317 388h291l-85 -384h77l-39 -176h-77zM347 283l47 210l-173 -210h126z" />
    <glyph glyph-name="five" unicode="5" horiz-adv-x="626" 
d="M313 -12c-140 0 -247 48 -311 124l139 129c37 -42 98 -75 173 -75c62 0 85 28 85 57c0 33 -39 53 -101 53c-51 0 -75 -9 -106 -33l-129 47l82 377h510l-39 -176h-308l-20 -94c38 31 70 41 126 41c111 0 196 -70 196 -190c0 -143 -118 -260 -297 -260z" />
    <glyph glyph-name="six" unicode="6" horiz-adv-x="625" 
d="M319 -12c-182 0 -295 101 -295 271c0 244 151 418 388 418c103 0 183 -32 245 -81l-119 -145c-36 33 -90 48 -139 48c-65 0 -124 -32 -147 -77c-5 -9 -9 -22 -11 -32c35 35 93 55 154 55c120 0 220 -74 220 -192c0 -148 -138 -265 -296 -265zM318 166c48 0 86 23 86 62
c0 35 -52 57 -108 57c-29 0 -55 -7 -74 -18c-1 -6 -1 -14 -1 -21c0 -53 50 -80 97 -80z" />
    <glyph glyph-name="seven" unicode="7" horiz-adv-x="575" 
d="M289 0h-231l317 491h-303l39 176h545l-31 -140z" />
    <glyph glyph-name="eight" unicode="8" horiz-adv-x="630" 
d="M299 -12c-148 0 -300 52 -300 187c0 74 52 152 168 188c-50 26 -86 74 -86 128c0 134 151 186 288 186s292 -50 292 -178c0 -80 -60 -149 -157 -173c68 -40 97 -94 97 -145c0 -129 -151 -193 -302 -193zM354 421c55 2 91 21 91 43c0 29 -37 49 -87 49
c-40 0 -74 -18 -74 -42c0 -23 36 -42 70 -50zM306 152c55 0 90 21 90 45c0 27 -30 47 -80 58c-55 -2 -104 -18 -104 -54c0 -30 32 -49 94 -49z" />
    <glyph glyph-name="nine" unicode="9" horiz-adv-x="625" 
d="M344 678c182 0 295 -101 295 -271c0 -244 -151 -418 -388 -418c-103 0 -183 32 -245 81l119 145c36 -33 90 -48 139 -48c65 0 124 32 147 77c5 9 9 22 11 32c-35 -35 -93 -55 -154 -55c-120 0 -220 74 -220 192c0 148 138 265 296 265zM345 500c-48 0 -86 -23 -86 -62
c0 -35 52 -57 108 -57c29 0 55 7 74 18c1 6 1 14 1 21c0 53 -50 80 -97 80z" />
    <glyph glyph-name="zero.tnum" unicode="&#xf639;" horiz-adv-x="648" 
d="M300 -12c-149 0 -262 93 -262 278c0 231 150 411 349 411c149 0 261 -92 261 -277c0 -231 -149 -412 -348 -412zM319 166c84 0 126 140 126 243c0 55 -24 90 -78 90c-84 0 -127 -139 -127 -242c0 -55 25 -91 79 -91z" />
    <glyph glyph-name="zero.tzero" unicode="&#xf638;" horiz-adv-x="648" 
d="M300 -12c-61 0 -117 15 -160 47l-32 -35h-135l100 110c-22 42 -35 93 -35 156c0 231 150 411 349 411c61 0 115 -16 158 -46l33 36h135l-101 -111c23 -42 36 -94 36 -156c0 -231 -149 -412 -348 -412zM319 166c73 0 115 107 124 203l-172 -190c12 -9 28 -13 48 -13z
M367 499c-74 0 -116 -107 -125 -203l172 190c-12 8 -28 13 -47 13z" />
    <glyph glyph-name="one.tnum" unicode="&#xf6dc;" horiz-adv-x="648" 
d="M453 0h-202l90 410l-137 -112l-88 119l310 250h174z" />
    <glyph glyph-name="two.tnum" unicode="&#xf63a;" horiz-adv-x="648" 
d="M557 0h-545l39 183c296 154 395 205 395 266c0 32 -41 52 -96 52c-71 0 -123 -27 -162 -55l-80 146c67 54 165 85 258 85c156 0 290 -78 290 -213c0 -112 -81 -198 -277 -288h217z" />
    <glyph glyph-name="three.tnum" unicode="&#xf63b;" horiz-adv-x="648" 
d="M325 -12c-132 0 -265 45 -328 139l129 125c50 -61 139 -86 197 -86c57 0 78 20 78 45c0 16 -7 36 -96 36c-29 0 -87 -1 -97 -2l40 179c12 -1 72 -1 96 -1c64 0 100 5 100 36c0 28 -39 41 -110 41c-57 0 -114 -16 -156 -43l-67 136c58 50 144 84 244 84
c184 0 298 -67 298 -180c0 -78 -92 -145 -180 -159c72 -18 127 -59 127 -149c0 -122 -130 -201 -275 -201z" />
    <glyph glyph-name="four.tnum" unicode="&#xf63c;" horiz-adv-x="648" 
d="M489 0h-202l23 107h-321l39 172l317 388h291l-85 -384h77l-39 -176h-77zM349 283l47 210l-173 -210h126z" />
    <glyph glyph-name="five.tnum" unicode="&#xf63d;" horiz-adv-x="648" 
d="M320 -12c-140 0 -247 48 -311 124l139 129c37 -42 98 -75 173 -75c62 0 85 28 85 57c0 33 -39 53 -101 53c-51 0 -75 -9 -106 -33l-129 47l82 377h510l-39 -176h-308l-20 -94c38 31 70 41 126 41c111 0 196 -70 196 -190c0 -143 -118 -260 -297 -260z" />
    <glyph glyph-name="six.tnum" unicode="&#xf63e;" horiz-adv-x="648" 
d="M332 -12c-182 0 -295 101 -295 271c0 244 151 418 388 418c103 0 183 -32 245 -81l-119 -145c-36 33 -90 48 -139 48c-65 0 -124 -32 -147 -77c-5 -9 -9 -22 -11 -32c35 35 93 55 154 55c120 0 220 -74 220 -192c0 -148 -138 -265 -296 -265zM331 166c48 0 86 23 86 62
c0 35 -52 57 -108 57c-29 0 -55 -7 -74 -18c-1 -6 -1 -14 -1 -21c0 -53 50 -80 97 -80z" />
    <glyph glyph-name="seven.tnum" unicode="&#xf63f;" horiz-adv-x="648" 
d="M324 0h-231l317 491h-303l39 176h545l-31 -140z" />
    <glyph glyph-name="eight.tnum" unicode="&#xf640;" horiz-adv-x="648" 
d="M308 -12c-148 0 -300 52 -300 187c0 74 52 152 168 188c-50 26 -86 74 -86 128c0 134 151 186 288 186s292 -50 292 -178c0 -80 -60 -149 -157 -173c68 -40 97 -94 97 -145c0 -129 -151 -193 -302 -193zM363 421c55 2 91 21 91 43c0 29 -37 49 -87 49
c-40 0 -74 -18 -74 -42c0 -23 36 -42 70 -50zM315 152c55 0 90 21 90 45c0 27 -30 47 -80 58c-55 -2 -104 -18 -104 -54c0 -30 32 -49 94 -49z" />
    <glyph glyph-name="nine.tnum" unicode="&#xf641;" horiz-adv-x="648" 
d="M358 678c182 0 295 -101 295 -271c0 -244 -151 -418 -388 -418c-103 0 -183 32 -245 81l119 145c36 -33 90 -48 139 -48c65 0 124 32 147 77c5 9 9 22 11 32c-35 -35 -93 -55 -154 -55c-120 0 -220 74 -220 192c0 148 138 265 296 265zM359 500c-48 0 -86 -23 -86 -62
c0 -35 52 -57 108 -57c29 0 55 7 74 18c1 6 1 14 1 21c0 53 -50 80 -97 80z" />
    <glyph glyph-name="zero.tonum" unicode="&#xf643;" horiz-adv-x="648" 
d="M632 315c0 -159 -112 -327 -316 -327c-178 0 -288 90 -288 247c0 159 112 327 316 327c178 0 288 -90 288 -247zM426 299c0 60 -36 85 -84 85c-70 0 -108 -67 -108 -133c0 -60 36 -85 84 -85c70 0 108 67 108 133z" />
    <glyph glyph-name="zero.tonumzero" horiz-adv-x="648" 
d="M632 315c0 -159 -112 -327 -316 -327c-70 0 -129 13 -176 40l-29 -28h-144l100 95c-25 37 -39 84 -39 140c0 159 112 327 316 327c69 0 128 -14 175 -40l29 28h144l-100 -95c26 -38 40 -85 40 -140zM318 166c69 0 107 66 108 132l-136 -129c8 -2 18 -3 28 -3zM342 384
c-70 0 -108 -66 -108 -132l135 129c-8 2 -17 3 -27 3z" />
    <glyph glyph-name="one.tonum" unicode="&#xf644;" horiz-adv-x="648" 
d="M453 0h-202l64 293l-137 -112l-88 119l310 250h174z" />
    <glyph glyph-name="two.tonum" unicode="&#xf645;" horiz-adv-x="648" 
d="M519 0h-507l36 168c252 56 353 127 353 174c0 29 -31 42 -78 42c-59 0 -118 -21 -167 -56l-81 143c71 58 171 91 272 91c156 0 270 -61 270 -168c0 -117 -128 -192 -207 -218h148z" />
    <glyph glyph-name="three.tonum" unicode="&#xf646;" horiz-adv-x="648" 
d="M299 -127c-132 0 -265 45 -328 139l129 125c50 -61 139 -86 197 -86c57 0 78 20 78 45c0 16 -7 36 -96 36c-29 0 -87 -1 -97 -2l40 179c12 -1 72 -1 96 -1c64 0 100 5 100 36c0 28 -39 41 -110 41c-57 0 -114 -16 -156 -43l-67 136c58 50 144 84 244 84
c184 0 298 -67 298 -180c0 -78 -92 -145 -180 -159c72 -18 127 -59 127 -149c0 -122 -130 -201 -275 -201z" />
    <glyph glyph-name="four.tonum" unicode="&#xf647;" horiz-adv-x="648" 
d="M566 0h-77l-26 -117h-202l26 117h-321l34 155l330 395h280l-82 -374h77zM326 176l44 200l-170 -200h126z" />
    <glyph glyph-name="five.tonum" unicode="&#xf648;" horiz-adv-x="648" 
d="M294 -129c-140 0 -247 48 -311 124l139 129c37 -42 98 -75 173 -75c62 0 85 28 85 57c0 33 -39 53 -101 53c-51 0 -75 -9 -106 -33l-129 47l82 377h510l-39 -176h-308l-20 -94c38 31 70 41 126 41c111 0 196 -70 196 -190c0 -143 -118 -260 -297 -260z" />
    <glyph glyph-name="six.tonum" unicode="&#xf649;" horiz-adv-x="648" 
d="M332 -12c-182 0 -295 101 -295 271c0 244 151 418 388 418c103 0 183 -32 245 -81l-119 -145c-36 33 -90 48 -139 48c-65 0 -124 -32 -147 -77c-5 -9 -9 -22 -11 -32c35 35 93 55 154 55c120 0 220 -74 220 -192c0 -148 -138 -265 -296 -265zM331 166c48 0 86 23 86 62
c0 35 -52 57 -108 57c-29 0 -55 -7 -74 -18c-1 -6 -1 -14 -1 -21c0 -53 50 -80 97 -80z" />
    <glyph glyph-name="seven.tonum" unicode="&#xf64a;" horiz-adv-x="648" 
d="M298 -117h-231l317 491h-303l39 176h545l-31 -140z" />
    <glyph glyph-name="eight.tonum" unicode="&#xf64b;" horiz-adv-x="648" 
d="M308 -12c-148 0 -300 52 -300 187c0 74 52 152 168 188c-50 26 -86 74 -86 128c0 134 151 186 288 186s292 -50 292 -178c0 -80 -60 -149 -157 -173c68 -40 97 -94 97 -145c0 -129 -151 -193 -302 -193zM363 421c55 2 91 21 91 43c0 29 -37 49 -87 49
c-40 0 -74 -18 -74 -42c0 -23 36 -42 70 -50zM315 152c55 0 90 21 90 45c0 27 -30 47 -80 58c-55 -2 -104 -18 -104 -54c0 -30 32 -49 94 -49z" />
    <glyph glyph-name="nine.tonum" unicode="&#xf64c;" horiz-adv-x="648" 
d="M332 562c182 0 295 -101 295 -271c0 -244 -151 -418 -388 -418c-103 0 -183 32 -245 81l119 145c36 -33 90 -48 139 -48c65 0 124 32 147 77c5 9 9 22 11 32c-35 -35 -93 -55 -154 -55c-120 0 -220 74 -220 192c0 148 138 265 296 265zM333 384c-48 0 -86 -23 -86 -62
c0 -35 52 -57 108 -57c29 0 55 7 74 18c1 6 1 14 1 21c0 53 -50 80 -97 80z" />
    <glyph glyph-name="zero.onum" unicode="&#xf730;" horiz-adv-x="628" 
d="M622 315c0 -159 -112 -327 -316 -327c-178 0 -288 90 -288 247c0 159 112 327 316 327c178 0 288 -90 288 -247zM416 299c0 60 -36 85 -84 85c-70 0 -108 -67 -108 -133c0 -60 36 -85 84 -85c70 0 108 67 108 133z" />
    <glyph glyph-name="zero.onumzero" horiz-adv-x="628" 
d="M622 315c0 -159 -112 -327 -316 -327c-70 0 -129 13 -176 40l-29 -28h-144l100 95c-25 37 -39 84 -39 140c0 159 112 327 316 327c69 0 128 -14 175 -40l29 28h144l-100 -95c26 -38 40 -85 40 -140zM308 166c69 0 107 66 108 132l-136 -129c8 -2 18 -3 28 -3zM332 384
c-70 0 -108 -66 -108 -132l135 129c-8 2 -17 3 -27 3z" />
    <glyph glyph-name="one.onum" unicode="&#xf731;" horiz-adv-x="483" 
d="M375 0h-202l64 293l-137 -112l-88 119l310 250h174z" />
    <glyph glyph-name="two.onum" unicode="&#xf732;" horiz-adv-x="587" 
d="M494 0h-507l36 168c252 56 353 127 353 174c0 29 -31 42 -78 42c-59 0 -118 -21 -167 -56l-81 143c71 58 171 91 272 91c156 0 270 -61 270 -168c0 -117 -128 -192 -207 -218h148z" />
    <glyph glyph-name="three.onum" unicode="&#xf733;" horiz-adv-x="605" 
d="M268 -127c-132 0 -265 45 -328 139l129 125c50 -61 139 -86 197 -86c57 0 78 20 78 45c0 16 -7 36 -96 36c-29 0 -87 -1 -97 -2l40 179c12 -1 72 -1 96 -1c64 0 100 5 100 36c0 28 -39 41 -110 41c-57 0 -114 -16 -156 -43l-67 136c58 50 144 84 244 84
c184 0 298 -67 298 -180c0 -78 -92 -145 -180 -159c72 -18 127 -59 127 -149c0 -122 -130 -201 -275 -201z" />
    <glyph glyph-name="four.onum" unicode="&#xf734;" horiz-adv-x="636" 
d="M564 0h-77l-26 -117h-202l26 117h-321l34 155l330 395h280l-82 -374h77zM324 176l44 200l-170 -200h126z" />
    <glyph glyph-name="five.onum" unicode="&#xf735;" horiz-adv-x="626" 
d="M287 -129c-140 0 -247 48 -311 124l139 129c37 -42 98 -75 173 -75c62 0 85 28 85 57c0 33 -39 53 -101 53c-51 0 -75 -9 -106 -33l-129 47l82 377h510l-39 -176h-308l-20 -94c38 31 70 41 126 41c111 0 196 -70 196 -190c0 -143 -118 -260 -297 -260z" />
    <glyph glyph-name="six.onum" unicode="&#xf736;" horiz-adv-x="625" 
d="M319 -12c-182 0 -295 101 -295 271c0 244 151 418 388 418c103 0 183 -32 245 -81l-119 -145c-36 33 -90 48 -139 48c-65 0 -124 -32 -147 -77c-5 -9 -9 -22 -11 -32c35 35 93 55 154 55c120 0 220 -74 220 -192c0 -148 -138 -265 -296 -265zM318 166c48 0 86 23 86 62
c0 35 -52 57 -108 57c-29 0 -55 -7 -74 -18c-1 -6 -1 -14 -1 -21c0 -53 50 -80 97 -80z" />
    <glyph glyph-name="seven.onum" unicode="&#xf737;" horiz-adv-x="575" 
d="M263 -117h-231l317 491h-303l39 176h545l-31 -140z" />
    <glyph glyph-name="eight.onum" unicode="&#xf738;" horiz-adv-x="630" 
d="M299 -12c-148 0 -300 52 -300 187c0 74 52 152 168 188c-50 26 -86 74 -86 128c0 134 151 186 288 186s292 -50 292 -178c0 -80 -60 -149 -157 -173c68 -40 97 -94 97 -145c0 -129 -151 -193 -302 -193zM354 421c55 2 91 21 91 43c0 29 -37 49 -87 49
c-40 0 -74 -18 -74 -42c0 -23 36 -42 70 -50zM306 152c55 0 90 21 90 45c0 27 -30 47 -80 58c-55 -2 -104 -18 -104 -54c0 -30 32 -49 94 -49z" />
    <glyph glyph-name="nine.onum" unicode="&#xf739;" horiz-adv-x="625" 
d="M318 562c182 0 295 -101 295 -271c0 -244 -151 -418 -388 -418c-103 0 -183 32 -245 81l119 145c36 -33 90 -48 139 -48c65 0 124 32 147 77c5 9 9 22 11 32c-35 -35 -93 -55 -154 -55c-120 0 -220 74 -220 192c0 148 138 265 296 265zM319 384c-48 0 -86 -23 -86 -62
c0 -35 52 -57 108 -57c29 0 55 7 74 18c1 6 1 14 1 21c0 53 -50 80 -97 80z" />
    <glyph glyph-name="A" unicode="A" horiz-adv-x="710" 
d="M674 0h-219l-7 78h-240l-41 -78h-239l393 667h254zM433 254l-19 215l-113 -215h132z" />
    <glyph glyph-name="B" unicode="B" horiz-adv-x="697" 
d="M419 0h-419l147 667h371c135 0 193 -86 193 -166c0 -85 -71 -163 -150 -170c65 -18 95 -76 95 -132c0 -88 -61 -199 -237 -199zM447 421c38 0 49 24 49 45c0 18 -12 33 -36 33h-146l-19 -78h152zM398 168c34 0 57 19 57 47c0 22 -15 38 -38 38h-159l-19 -85h159z" />
    <glyph glyph-name="C" unicode="C" horiz-adv-x="697" 
d="M376 -12c-191 0 -348 118 -348 306c0 231 179 384 401 384c195 0 289 -114 320 -221l-194 -61c-12 62 -65 104 -135 104c-108 0 -183 -92 -183 -192c0 -76 58 -142 150 -142c52 0 112 34 135 77l158 -102c-83 -120 -213 -153 -304 -153z" />
    <glyph glyph-name="D" unicode="D" horiz-adv-x="736" 
d="M297 0h-297l147 667h293c148 0 302 -111 302 -288c0 -169 -107 -379 -445 -379zM330 176h4c126 0 199 86 199 188c0 71 -52 127 -130 127h-93l-69 -315h89z" />
    <glyph glyph-name="E" unicode="E" 
d="M506 0h-506l147 667h506l-39 -176h-304l-14 -66h297l-39 -176h-297l-16 -73h304z" />
    <glyph glyph-name="F" unicode="F" horiz-adv-x="592" 
d="M202 0h-202l147 667h506l-39 -176h-304l-14 -66h297l-39 -176h-297z" />
    <glyph glyph-name="G" unicode="G" horiz-adv-x="726" 
d="M376 -12c-183 0 -348 111 -348 306c0 219 168 384 421 384c159 0 254 -98 287 -185l-186 -76c-10 41 -65 83 -130 83c-102 0 -183 -86 -183 -192c0 -70 53 -142 150 -142c35 0 65 11 91 30l5 25h-124l40 176h325l-61 -274c-63 -84 -166 -135 -287 -135z" />
    <glyph glyph-name="G.alt1" horiz-adv-x="733" 
d="M356 -12c-178 0 -328 124 -328 306c0 233 183 384 421 384c159 0 259 -103 287 -185l-186 -76c-10 41 -65 83 -125 83c-114 0 -188 -95 -188 -192c0 -77 58 -142 142 -142c53 0 99 23 122 55h-142l40 176h354c-39 -280 -190 -409 -397 -409z" />
    <glyph glyph-name="H" unicode="H" horiz-adv-x="751" 
d="M643 0h-202l56 255h-239l-56 -255h-202l147 667h202l-52 -236h239l52 236h202z" />
    <glyph glyph-name="I" unicode="I" horiz-adv-x="310" 
d="M202 0h-202l147 667h202z" />
    <glyph glyph-name="J" unicode="J" horiz-adv-x="498" 
d="M171 -12c-73 0 -157 20 -207 66l104 153c18 -22 54 -41 88 -41c46 0 75 28 85 75l94 426h202l-95 -429c-38 -171 -116 -250 -271 -250z" />
    <glyph glyph-name="K" unicode="K" horiz-adv-x="671" 
d="M635 0h-236l-103 241l-53 -56l-41 -185h-202l147 667h202l-52 -236l217 236h257l-320 -310z" />
    <glyph glyph-name="L" unicode="L" horiz-adv-x="536" 
d="M455 0h-455l147 667h202l-108 -491h253z" />
    <glyph glyph-name="M" unicode="M" horiz-adv-x="900" 
d="M792 0h-202l88 401l-237 -401h-90l-61 401l-88 -401h-202l147 667h272l46 -320l188 320h286z" />
    <glyph glyph-name="N" unicode="N" horiz-adv-x="750" 
d="M642 0h-194l-170 346l-76 -346h-202l147 667h208l160 -324l72 324h202z" />
    <glyph glyph-name="O" unicode="O" horiz-adv-x="766" 
d="M376 -12c-198 0 -348 125 -348 306c0 213 169 384 401 384c197 0 347 -124 347 -304c0 -213 -168 -386 -400 -386zM387 166c106 0 180 90 180 192c0 82 -60 142 -150 142c-106 0 -180 -90 -180 -192c0 -82 60 -142 150 -142z" />
    <glyph glyph-name="P" unicode="P" horiz-adv-x="662" 
d="M202 0h-202l147 667h352c112 0 196 -88 196 -197c0 -97 -64 -260 -295 -260h-152zM287 386h123c37 0 76 22 76 61c0 30 -21 44 -55 44h-121z" />
    <glyph glyph-name="Q" unicode="Q" horiz-adv-x="766" 
d="M376 -12c-198 0 -348 125 -348 306c0 213 169 384 401 384c197 0 347 -124 347 -304c0 -123 -56 -233 -148 -303l28 -48l-161 -73l-27 48c-30 -6 -60 -10 -92 -10zM338 224l161 73l31 -56c23 33 37 74 37 117c0 82 -60 142 -150 142c-106 0 -180 -90 -180 -192
c0 -77 53 -135 134 -142z" />
    <glyph glyph-name="R" unicode="R" horiz-adv-x="678" 
d="M597 0h-222l-46 210h-81l-46 -210h-202l147 667h324c121 0 224 -79 224 -202c0 -118 -77 -209 -164 -240zM407 386h3c44 0 76 19 76 57c0 28 -25 48 -56 48h-120l-23 -105h120z" />
    <glyph glyph-name="S" unicode="S" horiz-adv-x="613" 
d="M316 -12c-142 0 -268 51 -334 130l120 144c46 -60 140 -102 230 -102c38 0 53 17 53 29c0 56 -319 54 -319 249c0 116 96 239 286 239c109 0 218 -38 291 -111l-121 -140c-55 55 -140 81 -203 81c-26 0 -41 -12 -41 -27c0 -53 320 -56 320 -249
c0 -140 -110 -243 -282 -243z" />
    <glyph glyph-name="T" unicode="T" horiz-adv-x="595" 
d="M345 0h-202l108 491h-179l39 176h559l-39 -176h-178z" />
    <glyph glyph-name="U" unicode="U" horiz-adv-x="767" 
d="M376 -12c-218 0 -321 101 -321 244c0 8 3 32 5 42l87 393h205l-86 -388c-1 -5 -2 -14 -2 -24c1 -43 36 -91 112 -91c82 0 125 51 139 115l86 388h205l-87 -392c-35 -161 -128 -287 -343 -287z" />
    <glyph glyph-name="V" unicode="V" horiz-adv-x="710" 
d="M428 0h-254l-99 667h219l45 -449l243 449h239z" />
    <glyph glyph-name="W" unicode="W" horiz-adv-x="954" 
d="M721 0h-212l-3 378l-169 -378h-212l-44 667h221l-4 -408l191 408h152l11 -408l175 408h232z" />
    <glyph glyph-name="X" unicode="X" horiz-adv-x="684" 
d="M648 0h-228l-86 192l-158 -192h-248l307 354l-145 313h227l75 -178l139 178h249l-288 -336z" />
    <glyph glyph-name="Y" unicode="Y" horiz-adv-x="664" 
d="M380 0h-202l58 265l-161 402h217l74 -225l172 225h237l-337 -402z" />
    <glyph glyph-name="Z" unicode="Z" horiz-adv-x="600" 
d="M510 0h-528l35 160l317 331h-244l39 176h521l-35 -159l-318 -332h252z" />
    <glyph glyph-name="a" unicode="a" 
d="M268 495c55 0 109 -20 140 -63l11 51h180l-107 -483h-180l12 51c-42 -46 -81 -63 -131 -63c-108 0 -180 71 -180 201c0 134 83 306 255 306zM300 336c-57 0 -101 -47 -101 -109c0 -48 37 -80 80 -80c28 0 52 12 73 33l28 123c-19 21 -48 33 -80 33z" />
    <glyph glyph-name="a.alt1" horiz-adv-x="559" 
d="M467 0h-180l10 46c-30 -34 -78 -58 -138 -58c-81 0 -156 47 -156 140c0 108 81 173 177 173c63 0 114 -16 160 -57l7 29c1 4 3 18 3 23c0 36 -43 58 -98 58c-45 0 -86 -11 -125 -34l-38 123c58 35 130 52 203 52c124 0 241 -44 241 -169c0 -10 -4 -43 -7 -58zM245 105
c34 0 58 11 70 24l6 26c-13 16 -42 29 -77 29c-38 0 -59 -16 -59 -42c0 -23 20 -37 60 -37z" />
    <glyph glyph-name="b" unicode="b" 
d="M327 -12c-55 0 -109 20 -140 63l-11 -51h-180l147 667h180l-52 -235c42 46 81 63 131 63c108 0 180 -71 180 -201c0 -134 -83 -306 -255 -306zM295 147c57 0 101 47 101 109c0 48 -37 80 -80 80c-28 0 -52 -12 -73 -33l-28 -123c19 -21 48 -33 80 -33z" />
    <glyph glyph-name="c" unicode="c" horiz-adv-x="502" 
d="M268 -12c-158 0 -253 96 -253 224c0 159 127 283 291 283c110 0 179 -46 212 -100l-134 -103c-14 24 -42 44 -80 44c-62 0 -107 -47 -107 -112c0 -47 41 -77 89 -77c33 0 62 17 81 39l96 -119c-32 -35 -101 -79 -195 -79z" />
    <glyph glyph-name="d" unicode="d" 
d="M268 495c55 0 109 -20 140 -63l52 235h180l-148 -667h-180l12 51c-42 -46 -81 -63 -131 -63c-108 0 -180 71 -180 201c0 134 83 306 255 306zM300 336c-57 0 -101 -47 -101 -109c0 -48 37 -80 80 -80c28 0 52 12 73 33l28 123c-19 21 -48 33 -80 33z" />
    <glyph glyph-name="e" unicode="e" horiz-adv-x="543" 
d="M279 -12c-156 0 -264 78 -264 220c0 154 118 287 287 287c120 0 226 -73 226 -220c0 -33 -6 -71 -11 -89h-324v-1c0 -7 29 -60 99 -60c38 0 83 9 105 24l55 -117c-49 -31 -115 -44 -173 -44zM210 300h159v3c0 14 -17 55 -74 55c-48 0 -79 -37 -85 -58z" />
    <glyph glyph-name="f" unicode="f" horiz-adv-x="371" 
d="M213 0h-180l72 327h-80l35 156h79l6 26c21 92 87 168 209 168c53 0 113 -15 149 -52l-84 -100c-13 14 -27 19 -48 19c-27 0 -42 -18 -47 -40l-5 -21h99l-35 -156h-98z" />
    <glyph glyph-name="f.alt1" horiz-adv-x="371" 
d="M213 0h-180l72 327h-80l35 156h79l6 25c23 94 95 169 205 169c39 0 86 -6 123 -28l-59 -117c-9 8 -23 12 -39 12c-31 0 -46 -18 -50 -36l-6 -25h99l-35 -156h-98z" />
    <glyph glyph-name="g" unicode="g" horiz-adv-x="595" 
d="M212 -196c-99 0 -187 25 -251 86l101 119c29 -37 95 -58 147 -58c46 0 93 17 113 102l6 25c-35 -42 -82 -65 -132 -65c-93 0 -182 50 -182 192s91 290 250 290c51 0 107 -21 142 -63l12 51h180l-96 -430c-47 -208 -186 -249 -290 -249zM284 172c28 0 53 13 72 34l20 91
c-18 26 -46 39 -85 39c-49 0 -91 -30 -91 -94c0 -40 35 -70 84 -70z" />
    <glyph glyph-name="h" unicode="h" horiz-adv-x="608" 
d="M504 0h-180l56 259c2 9 5 24 5 32c0 33 -29 45 -65 45c-32 0 -59 -20 -78 -37l-65 -299h-180l147 667h180l-54 -239c35 32 79 67 152 67c101 0 159 -55 159 -127c0 -11 -3 -30 -5 -39z" />
    <glyph glyph-name="i" unicode="i" horiz-adv-x="280" 
d="M211 518c-53 0 -91 39 -91 86c0 75 63 116 114 116c53 0 91 -39 91 -86c0 -75 -63 -116 -114 -116zM176 0h-180l107 483h180z" />
    <glyph glyph-name="j" unicode="j" horiz-adv-x="280" 
d="M-39 -196c-73 0 -119 12 -153 40l70 128c15 -16 35 -21 56 -21c32 0 56 25 66 70l103 462h180l-103 -462c-27 -124 -86 -217 -219 -217zM211 518c-53 0 -91 39 -91 86c0 75 63 116 114 116c53 0 91 -39 91 -86c0 -75 -63 -116 -114 -116z" />
    <glyph glyph-name="k" unicode="k" horiz-adv-x="557" 
d="M515 0h-216l-51 159l-48 -50l-24 -109h-180l147 667h180l-77 -346l142 162h223l-215 -220z" />
    <glyph glyph-name="l" unicode="l" horiz-adv-x="280" 
d="M176 0h-180l147 667h180z" />
    <glyph glyph-name="l.alt1" horiz-adv-x="328" 
d="M203 -12c-115 0 -178 47 -178 123c0 10 1 24 4 37l114 519h180l-103 -467c-1 -4 -2 -11 -2 -18c0 -19 18 -35 46 -35c9 0 23 3 25 5v-144c-13 -10 -46 -20 -86 -20z" />
    <glyph glyph-name="m" unicode="m" horiz-adv-x="897" 
d="M793 0h-180l56 254c2 9 6 27 6 37c0 30 -25 45 -56 45c-30 0 -53 -19 -69 -37l-66 -299h-180l56 254c2 9 7 29 7 37c0 28 -21 45 -57 45c-30 0 -54 -21 -68 -37l-66 -299h-180l107 483h180l-13 -55c27 27 71 67 142 67c105 0 146 -77 146 -92v-1c38 45 85 93 163 93
s150 -45 150 -127c0 -14 -4 -35 -5 -39z" />
    <glyph glyph-name="n" unicode="n" horiz-adv-x="607" 
d="M503 0h-180l56 254c2 9 6 25 6 37c0 33 -29 45 -58 45c-39 0 -66 -20 -85 -37l-66 -299h-180l107 483h180l-13 -55c35 32 79 67 152 67c101 0 159 -55 159 -127c0 -8 -3 -30 -5 -39z" />
    <glyph glyph-name="o" unicode="o" horiz-adv-x="577" 
d="M272 -12c-171 0 -258 100 -258 225c0 148 118 282 289 282s258 -100 258 -225c0 -148 -118 -282 -289 -282zM279 147c60 0 98 54 98 114c0 48 -31 75 -81 75c-60 0 -98 -54 -98 -114c0 -48 31 -75 81 -75z" />
    <glyph glyph-name="p" unicode="p" horiz-adv-x="595" 
d="M327 -12c-55 0 -109 20 -140 63l-52 -235h-180l148 667h180l-12 -51c42 46 81 63 131 63c108 0 180 -71 180 -201c0 -134 -83 -306 -255 -306zM295 147c57 0 101 47 101 109c0 48 -37 80 -80 80c-28 0 -52 -12 -73 -33l-28 -123c19 -21 48 -33 80 -33z" />
    <glyph glyph-name="q" unicode="q" horiz-adv-x="595" 
d="M268 495c55 0 109 -20 140 -63l11 51h180l-148 -667h-180l53 235c-42 -46 -81 -63 -131 -63c-108 0 -180 71 -180 201c0 134 83 306 255 306zM300 336c-57 0 -101 -47 -101 -109c0 -48 37 -80 80 -80c28 0 52 12 73 33l28 123c-19 21 -48 33 -80 33z" />
    <glyph glyph-name="r" unicode="r" horiz-adv-x="390" 
d="M176 0h-180l107 483h180l-12 -53c37 38 93 67 163 67l-39 -176c-9 3 -31 8 -54 8c-38 0 -75 -13 -101 -37z" />
    <glyph glyph-name="s" unicode="s" horiz-adv-x="490" 
d="M231 -12c-89 0 -187 31 -251 89l92 113c31 -30 109 -74 176 -74c18 0 31 8 31 18c0 55 -235 28 -235 184c0 89 75 177 215 177c81 0 166 -27 225 -78l-84 -109c-25 25 -83 58 -139 58c-26 0 -37 -13 -37 -21c0 -40 235 -25 235 -178c0 -101 -85 -179 -228 -179z" />
    <glyph glyph-name="t" unicode="t" horiz-adv-x="382" 
d="M240 -12c-104 0 -178 38 -178 122c0 7 1 24 4 38l39 179h-80l35 156h80l29 132h180l-29 -132h98l-35 -156h-98l-26 -118c-2 -9 -3 -19 -3 -23c0 -23 14 -39 45 -39c9 0 22 3 25 5v-144c-19 -13 -53 -20 -86 -20z" />
    <glyph glyph-name="u" unicode="u" horiz-adv-x="606" 
d="M102 483h180l-59 -267c-2 -9 -3 -16 -3 -23c0 -33 29 -46 61 -46c36 0 63 21 82 38l66 298h180l-107 -483h-180l13 55c-35 -32 -79 -67 -152 -67c-101 0 -159 55 -159 127c0 8 3 30 5 39z" />
    <glyph glyph-name="v" unicode="v" horiz-adv-x="535" 
d="M309 0h-191l-80 483h185l30 -276l155 276h195z" />
    <glyph glyph-name="w" unicode="w" horiz-adv-x="805" 
d="M623 0h-196l-20 270l-137 -270h-196l-33 483h180l5 -266l144 266h161l25 -266l123 266h191z" />
    <glyph glyph-name="x" unicode="x" horiz-adv-x="521" 
d="M479 0h-192l-47 128l-105 -128h-201l212 248l-95 235h192l40 -113l90 113h202l-201 -235z" />
    <glyph glyph-name="y" unicode="y" horiz-adv-x="535" 
d="M-49 -183l57 153c12 -5 33 -7 51 -7c25 0 40 6 49 19l10 16l-80 485h185l30 -276l155 276h195l-331 -543c-63 -104 -126 -136 -223 -136c-34 0 -70 4 -98 13z" />
    <glyph glyph-name="y.alt1" horiz-adv-x="606" 
d="M223 -196c-100 0 -189 26 -251 86l101 119c30 -39 101 -58 147 -58c71 0 97 37 113 102l8 33c-35 -31 -76 -66 -151 -66c-94 0 -159 47 -159 128c0 9 1 19 5 38l67 297h180l-53 -236c-2 -10 -3 -19 -3 -22c0 -37 32 -46 65 -46c34 0 59 20 78 37l59 267h180l-92 -412
c-32 -145 -113 -267 -294 -267z" />
    <glyph glyph-name="z" unicode="z" horiz-adv-x="486" 
d="M399 0h-420l29 132l208 195h-165l35 156h416l-28 -126l-214 -201h173z" />
    <glyph glyph-name="A.smcp" unicode="&#xf761;" horiz-adv-x="621" 
d="M264 550h228l92 -550h-206l-7 61h-198l-33 -61h-211zM354 222l-15 143l-78 -143h93z" />
    <glyph glyph-name="B.smcp" unicode="&#xf762;" horiz-adv-x="618" 
d="M383 0h-387l121 550h326c113 0 177 -56 177 -128c0 -66 -49 -136 -124 -144c53 -18 80 -61 80 -105c0 -96 -71 -173 -193 -173zM217 151h142c17 0 30 13 30 29c0 13 -11 23 -24 23h-138zM386 353h5c18 0 29 14 29 26c0 10 -8 20 -20 20h-129l-10 -46h125z" />
    <glyph glyph-name="C.smcp" unicode="&#xf763;" horiz-adv-x="588" 
d="M304 -12c-178 0 -287 111 -287 252c0 174 141 322 334 322c138 0 229 -79 254 -183l-170 -56c-9 43 -44 76 -92 76c-73 0 -135 -67 -135 -144c0 -65 44 -104 106 -104c48 0 85 30 108 71l142 -81c-42 -77 -135 -153 -260 -153z" />
    <glyph glyph-name="D.smcp" unicode="&#xf764;" horiz-adv-x="637" 
d="M275 0h-279l121 550h224c153 0 293 -75 293 -233c0 -132 -75 -317 -359 -317zM297 161h13c101 0 134 80 134 140c0 58 -44 88 -123 88h-53l-49 -228h78z" />
    <glyph glyph-name="E.smcp" unicode="&#xf765;" horiz-adv-x="530" 
d="M444 0h-448l121 550h448l-35 -155h-260l-9 -40h255l-34 -155h-255l-10 -45h261z" />
    <glyph glyph-name="F.smcp" unicode="&#xf766;" horiz-adv-x="526" 
d="M183 0h-187l121 550h448l-34 -155h-261l-9 -40h255l-34 -155h-255z" />
    <glyph glyph-name="G.smcp" unicode="&#xf767;" horiz-adv-x="606" 
d="M311 -12c-163 0 -294 94 -294 250c0 171 137 324 336 324c119 0 212 -64 242 -148l-168 -70c-11 30 -42 54 -89 54c-78 0 -129 -67 -129 -142c0 -65 50 -105 112 -105c31 0 45 6 55 11l6 27h-92l32 144h278l-58 -264c-64 -48 -140 -81 -231 -81z" />
    <glyph glyph-name="G.smcp.alt1" horiz-adv-x="621" 
d="M302 -12c-161 0 -285 97 -285 254c0 186 158 320 338 320c119 0 210 -67 241 -148l-169 -70c-8 30 -43 54 -84 54c-77 0 -135 -68 -135 -140c0 -70 46 -107 114 -107c32 0 67 15 85 36h-117l32 146h305c-34 -234 -172 -345 -325 -345z" />
    <glyph glyph-name="H.smcp" unicode="&#xf768;" horiz-adv-x="666" 
d="M562 0h-186l44 200h-193l-44 -200h-187l121 550h187l-41 -189h193l41 189h186z" />
    <glyph glyph-name="I.smcp" unicode="&#xf769;" horiz-adv-x="287" 
d="M183 0h-187l121 550h187z" />
    <glyph glyph-name="J.smcp" unicode="&#xf76a;" horiz-adv-x="444" 
d="M147 -12c-76 0 -146 21 -189 65l100 133c15 -20 44 -35 71 -35c40 0 63 23 71 62l74 337h187l-78 -355c-34 -153 -108 -207 -236 -207z" />
    <glyph glyph-name="K.smcp" unicode="&#xf76b;" horiz-adv-x="598" 
d="M556 0h-221l-85 187l-33 -33l-34 -154h-187l121 550h187l-41 -187l179 187h226l-274 -256z" />
    <glyph glyph-name="L.smcp" unicode="&#xf76c;" horiz-adv-x="479" 
d="M400 0h-404l121 550h187l-86 -389h217z" />
    <glyph glyph-name="M.smcp" unicode="&#xf76d;" horiz-adv-x="794" 
d="M690 0h-186l66 300l-183 -300h-87l-51 300l-66 -300h-187l121 550h245l43 -265l159 265h247z" />
    <glyph glyph-name="N.smcp" unicode="&#xf76e;" horiz-adv-x="665" 
d="M561 0h-192l-125 281l-62 -281h-186l121 550h203l117 -265l59 265h186z" />
    <glyph glyph-name="O.smcp" unicode="&#xf76f;" horiz-adv-x="647" 
d="M310 -12c-171 0 -293 104 -293 255c0 173 143 319 332 319c171 0 293 -104 293 -255c0 -173 -143 -319 -332 -319zM315 151c81 0 136 71 136 142c0 58 -41 106 -107 106c-81 0 -136 -71 -136 -142c0 -58 41 -106 107 -106z" />
    <glyph glyph-name="P.smcp" unicode="&#xf770;" horiz-adv-x="585" 
d="M183 0h-187l121 550h280c129 0 208 -71 208 -172c0 -107 -84 -214 -221 -214h-165zM255 325h116c24 0 42 17 42 37c0 17 -14 27 -33 27h-111z" />
    <glyph glyph-name="Q.smcp" unicode="&#xf771;" horiz-adv-x="647" 
d="M310 -12c-171 0 -293 104 -293 255c0 173 143 319 332 319c171 0 293 -104 293 -255c0 -95 -43 -182 -114 -241l17 -28l-128 -77l-22 38c-27 -7 -56 -11 -85 -11zM284 186l126 77l23 -39c12 21 18 45 18 69c0 58 -41 106 -107 106c-81 0 -136 -71 -136 -142
c0 -55 36 -101 96 -106z" />
    <glyph glyph-name="R.smcp" unicode="&#xf772;" horiz-adv-x="602" 
d="M523 0h-207l-39 164h-58l-36 -164h-187l121 550h279c137 0 211 -71 211 -167c0 -104 -70 -181 -148 -205zM364 325h6c24 0 43 18 43 38c0 14 -8 26 -32 26h-112l-14 -64h109z" />
    <glyph glyph-name="S.smcp" unicode="&#xf773;" horiz-adv-x="528" 
d="M259 -12c-120 0 -227 34 -288 95l96 131c40 -45 122 -75 202 -75c30 0 40 13 40 25c0 48 -263 30 -263 208c0 86 88 190 243 190c107 0 206 -41 262 -96l-98 -119c-45 40 -112 65 -172 65c-30 0 -38 -16 -38 -24c0 -47 263 -31 263 -210c0 -96 -86 -190 -247 -190z" />
    <glyph glyph-name="T.smcp" unicode="&#xf774;" horiz-adv-x="501" 
d="M290 0h-186l85 389h-143l36 161h471l-36 -161h-142z" />
    <glyph glyph-name="U.smcp" unicode="&#xf775;" horiz-adv-x="669" 
d="M333 -12c-197 0 -293 89 -293 195c0 13 2 27 5 41l72 326h188l-68 -308c-1 -7 -2 -13 -2 -19c0 -45 38 -72 93 -72c56 0 90 37 102 91l68 308h188l-72 -325c-33 -149 -109 -237 -281 -237z" />
    <glyph glyph-name="V.smcp" unicode="&#xf776;" horiz-adv-x="621" 
d="M371 0h-228l-93 550h209l40 -350l196 350h210z" />
    <glyph glyph-name="W.smcp" unicode="&#xf777;" horiz-adv-x="831" 
d="M623 0h-194l-5 285l-130 -285h-194l-45 550h208l-1 -310l149 310h141l13 -310l136 310h209z" />
    <glyph glyph-name="X.smcp" unicode="&#xf778;" horiz-adv-x="601" 
d="M564 0h-215l-66 159l-135 -159h-219l256 282l-121 268h214l55 -146l119 146h219l-239 -267z" />
    <glyph glyph-name="Y.smcp" unicode="&#xf779;" horiz-adv-x="583" 
d="M330 0h-184l48 220l-144 330h206l64 -175l138 175h209l-289 -330z" />
    <glyph glyph-name="Z.smcp" unicode="&#xf77a;" horiz-adv-x="531" 
d="M445 0h-467l29 133l254 254h-198l36 163h461l-29 -132l-254 -255h204z" />
    <glyph glyph-name="Aacute" unicode="&#xc1;" horiz-adv-x="710" 
d="M674 0h-219l-7 78h-240l-41 -78h-239l393 667h254zM433 254l-19 215l-113 -215h132zM699 867l-187 -144h-122l152 144h157z" />
    <glyph glyph-name="Abreve" unicode="&#x102;" horiz-adv-x="710" 
d="M674 0h-219l-7 78h-240l-41 -78h-239l393 667h254zM433 254l-19 215l-113 -215h132zM647 779c-52 -54 -122 -88 -194 -88c-71 0 -128 34 -157 88l86 62c15 -31 44 -53 88 -53c42 0 80 19 112 53z" />
    <glyph glyph-name="Acircumflex" unicode="&#xc2;" horiz-adv-x="710" 
d="M630 723h-103l-48 73l-77 -73h-107l120 144h156zM674 0h-219l-7 78h-240l-41 -78h-239l393 667h254zM433 254l-19 215l-113 -215h132z" />
    <glyph glyph-name="Adieresis" unicode="&#xc4;" horiz-adv-x="710" 
d="M673 795c0 -52 -49 -99 -101 -99c-45 0 -79 34 -79 79c0 52 49 99 101 99c45 0 79 -34 79 -79zM457 795c0 -52 -49 -99 -101 -99c-45 0 -79 34 -79 79c0 52 49 99 101 99c45 0 79 -34 79 -79zM674 0h-219l-7 78h-240l-41 -78h-239l393 667h254zM433 254l-19 215
l-113 -215h132z" />
    <glyph glyph-name="Agrave" unicode="&#xc0;" horiz-adv-x="710" 
d="M674 0h-219l-7 78h-240l-41 -78h-239l393 667h254zM433 254l-19 215l-113 -215h132zM531 723h-120l-123 144h155z" />
    <glyph glyph-name="Amacron" unicode="&#x100;" horiz-adv-x="710" 
d="M674 0h-219l-7 78h-240l-41 -78h-239l393 667h254zM433 254l-19 215l-113 -215h132zM645 718h-362l21 97h362z" />
    <glyph glyph-name="Aogonek" unicode="&#x104;" horiz-adv-x="710" 
d="M654 -91l55 -49c-26 -29 -58 -46 -98 -46c-54 0 -105 26 -105 81c0 35 15 74 50 105h-101l-7 78h-240l-41 -78h-239l393 667h254l99 -667c-58 -26 -86 -59 -86 -92c0 -16 11 -26 27 -26s29 12 39 27zM433 254l-19 215l-113 -215h132z" />
    <glyph glyph-name="Aring" unicode="&#xc5;" horiz-adv-x="710" 
d="M674 0h-219l-7 78h-240l-41 -78h-239l393 667h254zM433 254l-19 215l-113 -215h132zM466 686c-61 0 -102 41 -102 102c0 66 56 122 122 122c61 0 102 -41 102 -102c0 -66 -56 -122 -122 -122zM474 764c19 0 36 17 36 36s-13 32 -32 32s-36 -17 -36 -36s13 -32 32 -32z
" />
    <glyph glyph-name="Atilde" unicode="&#xc3;" horiz-adv-x="710" 
d="M674 0h-219l-7 78h-240l-41 -78h-239l393 667h254zM433 254l-19 215l-113 -215h132zM533 721c-67 0 -86 43 -123 43c-13 0 -23 -12 -28 -37h-90c18 92 50 134 127 134c67 0 87 -43 124 -43c13 0 22 12 28 37h90c-20 -92 -51 -134 -128 -134z" />
    <glyph glyph-name="uni1EA0" unicode="&#x1ea0;" horiz-adv-x="710" 
d="M674 0h-219l-7 78h-240l-41 -78h-239l393 667h254zM433 254l-19 215l-113 -215h132zM372 -110c0 -52 -49 -99 -101 -99c-45 0 -79 34 -79 79c0 52 49 99 101 99c45 0 79 -34 79 -79z" />
    <glyph glyph-name="uni1EA2" unicode="&#x1ea2;" horiz-adv-x="710" 
d="M674 0h-219l-7 78h-240l-41 -78h-239l393 667h254zM433 254l-19 215l-113 -215h132zM438 747l-51 25c18 32 49 48 89 48c37 0 81 -20 81 -65c0 -19 -10 -43 -20 -58h-71c15 15 24 32 24 48c0 12 -9 21 -22 21c-12 0 -22 -7 -30 -19z" />
    <glyph glyph-name="uni1EA4" unicode="&#x1ea4;" horiz-adv-x="710" 
d="M617 682h-103l-48 55l-77 -55h-107l120 108h156zM674 0h-219l-7 78h-240l-41 -78h-239l393 667h254zM433 254l-19 215l-113 -215h132zM904 843l-187 -108h-122l152 108h157z" />
    <glyph glyph-name="uni1EAC" unicode="&#x1eac;" horiz-adv-x="710" 
d="M674 0h-219l-7 78h-240l-41 -78h-239l393 667h254zM433 254l-19 215l-113 -215h132zM630 723h-103l-48 73l-77 -73h-107l120 144h156zM367 -110c0 -52 -49 -99 -101 -99c-45 0 -79 34 -79 79c0 52 49 99 101 99c45 0 79 -34 79 -79z" />
    <glyph glyph-name="uni1EA6" unicode="&#x1ea6;" horiz-adv-x="710" 
d="M618 682h-103l-48 55l-77 -55h-107l120 108h156zM674 0h-219l-7 78h-240l-41 -78h-239l393 667h254zM433 254l-19 215l-113 -215h132zM334 735h-120l-123 108h155z" />
    <glyph glyph-name="uni1EA8" unicode="&#x1ea8;" horiz-adv-x="710" 
d="M617 682h-103l-48 55l-77 -55h-107l120 108h156zM674 0h-219l-7 78h-240l-41 -78h-239l393 667h254zM433 254l-19 215l-113 -215h132zM576 794l-51 18c18 24 49 36 89 36c37 0 81 -15 81 -48c0 -15 -10 -33 -20 -44h-71c15 11 24 24 24 36c0 9 -9 16 -22 16
c-12 0 -22 -5 -30 -14z" />
    <glyph glyph-name="uni1EAE" unicode="&#x1eae;" horiz-adv-x="710" 
d="M674 0h-219l-7 78h-240l-41 -78h-239l393 667h254zM433 254l-19 215l-113 -215h132zM695 825l-187 -72h-122l152 72h157zM633 724c-52 -27 -122 -44 -194 -44c-71 0 -128 17 -157 44l86 31c15 -16 44 -27 88 -27c42 0 80 10 112 27z" />
    <glyph glyph-name="uni1EAA" unicode="&#x1eaa;" horiz-adv-x="710" 
d="M616 679h-103l-48 36l-77 -36h-107l120 72h156zM674 0h-219l-7 78h-240l-41 -78h-239l393 667h254zM433 254l-19 215l-113 -215h132zM542 758c-67 0 -86 21 -123 21c-13 0 -23 -6 -28 -18h-90c18 46 50 67 127 67c67 0 87 -22 124 -22c13 0 22 6 28 19h90
c-20 -46 -51 -67 -128 -67z" />
    <glyph glyph-name="uni1EB0" unicode="&#x1eb0;" horiz-adv-x="710" 
d="M674 0h-219l-7 78h-240l-41 -78h-239l393 667h254zM433 254l-19 215l-113 -215h132zM554 753h-120l-123 72h155zM648 724c-52 -27 -122 -44 -194 -44c-71 0 -128 17 -157 44l86 31c15 -16 44 -27 88 -27c42 0 80 10 112 27z" />
    <glyph glyph-name="uni1EB2" unicode="&#x1eb2;" horiz-adv-x="710" 
d="M674 0h-219l-7 78h-240l-41 -78h-239l393 667h254zM433 254l-19 215l-113 -215h132zM449 778l-51 13c18 16 49 24 89 24c37 0 81 -10 81 -33c0 -9 -10 -21 -20 -29h-71c15 8 24 16 24 24c0 6 -9 11 -22 11c-12 0 -22 -4 -30 -10zM646 724c-52 -27 -122 -44 -194 -44
c-71 0 -128 17 -157 44l86 31c15 -16 44 -27 88 -27c42 0 80 10 112 27z" />
    <glyph glyph-name="uni1EB4" unicode="&#x1eb4;" horiz-adv-x="710" 
d="M674 0h-219l-7 78h-240l-41 -78h-239l393 667h254zM433 254l-19 215l-113 -215h132zM642 724c-52 -27 -122 -44 -194 -44c-71 0 -128 17 -157 44l86 31c15 -16 44 -27 88 -27c42 0 80 10 112 27zM541 762c-67 0 -86 21 -123 21c-13 0 -23 -6 -28 -18h-90
c18 46 50 67 127 67c67 0 87 -22 124 -22c13 0 22 6 28 19h90c-20 -46 -51 -67 -128 -67z" />
    <glyph glyph-name="uni1EB6" unicode="&#x1eb6;" horiz-adv-x="710" 
d="M674 0h-219l-7 78h-240l-41 -78h-239l393 667h254zM433 254l-19 215l-113 -215h132zM372 -110c0 -52 -49 -99 -101 -99c-45 0 -79 34 -79 79c0 52 49 99 101 99c45 0 79 -34 79 -79zM645 779c-52 -54 -122 -88 -194 -88c-71 0 -128 34 -157 88l86 62
c15 -31 44 -53 88 -53c42 0 80 19 112 53z" />
    <glyph glyph-name="AE" unicode="&#xc6;" horiz-adv-x="989" 
d="M905 0h-506l17 78h-202l-58 -78h-235l542 667h589l-39 -176h-304l-14 -66h297l-39 -176h-297l-16 -73h304zM455 254l45 206l-153 -206h108z" />
    <glyph glyph-name="AEacute" unicode="&#x1fc;" horiz-adv-x="989" 
d="M900 867l-187 -144h-122l152 144h157zM905 0h-506l17 78h-202l-58 -78h-235l542 667h589l-39 -176h-304l-14 -66h297l-39 -176h-297l-16 -73h304zM455 254l45 206l-153 -206h108z" />
    <glyph glyph-name="uni1E02" unicode="&#x1e02;" horiz-adv-x="697" 
d="M419 0h-419l147 667h371c135 0 193 -86 193 -166c0 -85 -71 -163 -150 -170c65 -18 95 -76 95 -132c0 -88 -61 -199 -237 -199zM447 421c38 0 49 24 49 45c0 18 -12 33 -36 33h-146l-19 -78h152zM398 168c34 0 57 19 57 47c0 22 -15 38 -38 38h-159l-19 -85h159zM557 796
c0 -52 -49 -99 -101 -99c-45 0 -79 34 -79 79c0 52 49 99 101 99c45 0 79 -34 79 -79z" />
    <glyph glyph-name="Cacute" unicode="&#x106;" horiz-adv-x="697" 
d="M727 872l-187 -144h-122l152 144h157zM376 -12c-191 0 -348 118 -348 306c0 231 179 384 401 384c195 0 289 -114 320 -221l-194 -61c-12 62 -65 104 -135 104c-108 0 -183 -92 -183 -192c0 -76 58 -142 150 -142c52 0 112 34 135 77l158 -102
c-83 -120 -213 -153 -304 -153z" />
    <glyph glyph-name="Ccedilla" unicode="&#xc7;" horiz-adv-x="697" 
d="M301 -200c-58 0 -107 21 -130 44l43 60c25 -21 55 -36 86 -36c21 0 38 7 38 24c0 9 -7 17 -22 17c-11 0 -18 -5 -24 -12l-52 34l40 68c-145 32 -252 139 -252 295c0 231 179 384 401 384c195 0 289 -114 320 -221l-194 -61c-12 62 -65 104 -135 104
c-108 0 -183 -92 -183 -192c0 -76 58 -142 150 -142c52 0 112 34 135 77l158 -102c-83 -120 -213 -153 -304 -153c-8 0 -15 0 -23 1l-23 -36c10 7 17 9 29 9c33 0 60 -25 60 -65c0 -61 -54 -97 -118 -97z" />
    <glyph glyph-name="Ccircumflex" unicode="&#x108;" horiz-adv-x="697" 
d="M657 723h-103l-48 73l-77 -73h-107l120 144h156zM376 -12c-191 0 -348 118 -348 306c0 231 179 384 401 384c195 0 289 -114 320 -221l-194 -61c-12 62 -65 104 -135 104c-108 0 -183 -92 -183 -192c0 -76 58 -142 150 -142c52 0 112 34 135 77l158 -102
c-83 -120 -213 -153 -304 -153z" />
    <glyph glyph-name="Cdotaccent" unicode="&#x10a;" horiz-adv-x="697" 
d="M376 -12c-191 0 -348 118 -348 306c0 231 179 384 401 384c195 0 289 -114 320 -221l-194 -61c-12 62 -65 104 -135 104c-108 0 -183 -92 -183 -192c0 -76 58 -142 150 -142c52 0 112 34 135 77l158 -102c-83 -120 -213 -153 -304 -153zM594 796c0 -52 -49 -99 -101 -99
c-45 0 -79 34 -79 79c0 52 49 99 101 99c45 0 79 -34 79 -79z" />
    <glyph glyph-name="Ccaron" unicode="&#x10c;" horiz-adv-x="697" 
d="M569 723h-156l-59 144h103l48 -73l77 73h107zM376 -12c-191 0 -348 118 -348 306c0 231 179 384 401 384c195 0 289 -114 320 -221l-194 -61c-12 62 -65 104 -135 104c-108 0 -183 -92 -183 -192c0 -76 58 -142 150 -142c52 0 112 34 135 77l158 -102
c-83 -120 -213 -153 -304 -153z" />
    <glyph glyph-name="Dcaron" unicode="&#x10e;" horiz-adv-x="736" 
d="M559 723h-156l-59 144h103l48 -73l77 73h107zM297 0h-297l147 667h293c148 0 302 -111 302 -288c0 -169 -107 -379 -445 -379zM330 176h4c126 0 199 86 199 188c0 71 -52 127 -130 127h-93l-69 -315h89z" />
    <glyph glyph-name="Dcroat" unicode="&#x110;" horiz-adv-x="757" 
d="M318 0h-297l56 254h-68l35 159h68l56 254h293c148 0 302 -111 302 -288c0 -169 -107 -379 -445 -379zM358 176c124 1 196 87 196 188c0 71 -52 127 -130 127h-93l-17 -78h128l-35 -159h-128l-17 -78h96z" />
    <glyph glyph-name="uni1E0A" unicode="&#x1e0a;" horiz-adv-x="736" 
d="M297 0h-297l147 667h293c148 0 302 -111 302 -288c0 -169 -107 -379 -445 -379zM330 176h4c126 0 199 86 199 188c0 71 -52 127 -130 127h-93l-69 -315h89zM582 796c0 -52 -49 -99 -101 -99c-45 0 -79 34 -79 79c0 52 49 99 101 99c45 0 79 -34 79 -79z" />
    <glyph glyph-name="Eacute" unicode="&#xc9;" 
d="M650 867l-187 -144h-122l152 144h157zM506 0h-506l147 667h506l-39 -176h-304l-14 -66h297l-39 -176h-297l-16 -73h304z" />
    <glyph glyph-name="Ebreve" unicode="&#x114;" 
d="M506 0h-506l147 667h506l-39 -176h-304l-14 -66h297l-39 -176h-297l-16 -73h304zM598 779c-52 -54 -122 -88 -194 -88c-71 0 -128 34 -157 88l86 62c15 -31 44 -53 88 -53c42 0 80 19 112 53z" />
    <glyph glyph-name="Ecircumflex" unicode="&#xca;" 
d="M579 723h-103l-48 73l-77 -73h-107l120 144h156zM506 0h-506l147 667h506l-39 -176h-304l-14 -66h297l-39 -176h-297l-16 -73h304z" />
    <glyph glyph-name="Edieresis" unicode="&#xcb;" 
d="M624 795c0 -52 -49 -99 -101 -99c-45 0 -79 34 -79 79c0 52 49 99 101 99c45 0 79 -34 79 -79zM408 795c0 -52 -49 -99 -101 -99c-45 0 -79 34 -79 79c0 52 49 99 101 99c45 0 79 -34 79 -79zM506 0h-506l147 667h506l-39 -176h-304l-14 -66h297l-39 -176h-297l-16 -73
h304z" />
    <glyph glyph-name="Edotaccent" unicode="&#x116;" 
d="M506 0h-506l147 667h506l-39 -176h-304l-14 -66h297l-39 -176h-297l-16 -73h304zM518 805c0 -52 -49 -99 -101 -99c-45 0 -79 34 -79 79c0 52 49 99 101 99c45 0 79 -34 79 -79z" />
    <glyph glyph-name="Egrave" unicode="&#xc8;" 
d="M506 0h-506l147 667h506l-39 -176h-304l-14 -66h297l-39 -176h-297l-16 -73h304zM481 723h-120l-123 144h155z" />
    <glyph glyph-name="Emacron" unicode="&#x112;" 
d="M506 0h-506l147 667h506l-39 -176h-304l-14 -66h297l-39 -176h-297l-16 -73h304zM593 718h-362l21 97h362z" />
    <glyph glyph-name="Eogonek" unicode="&#x118;" 
d="M506 0c-58 -26 -86 -59 -86 -92c0 -16 11 -26 27 -26s29 12 39 27l55 -49c-26 -29 -58 -46 -98 -46c-54 0 -105 26 -105 81c0 35 15 74 50 105h-388l147 667h506l-39 -176h-304l-14 -66h297l-39 -176h-297l-16 -73h304z" />
    <glyph glyph-name="Ecaron" unicode="&#x11a;" 
d="M493 723h-156l-59 144h103l48 -73l77 73h107zM506 0h-506l147 667h506l-39 -176h-304l-14 -66h297l-39 -176h-297l-16 -73h304z" />
    <glyph glyph-name="uni1EB8" unicode="&#x1eb8;" 
d="M506 0h-506l147 667h506l-39 -176h-304l-14 -66h297l-39 -176h-297l-16 -73h304zM315 -110c0 -52 -49 -99 -101 -99c-45 0 -79 34 -79 79c0 52 49 99 101 99c45 0 79 -34 79 -79z" />
    <glyph glyph-name="uni1EBA" unicode="&#x1eba;" 
d="M506 0h-506l147 667h506l-39 -176h-304l-14 -66h297l-39 -176h-297l-16 -73h304zM386 747l-51 25c18 32 49 48 89 48c37 0 81 -20 81 -65c0 -19 -10 -43 -20 -58h-71c15 15 24 32 24 48c0 12 -9 21 -22 21c-12 0 -22 -7 -30 -19z" />
    <glyph glyph-name="uni1EBC" unicode="&#x1ebc;" 
d="M506 0h-506l147 667h506l-39 -176h-304l-14 -66h297l-39 -176h-297l-16 -73h304zM485 721c-67 0 -86 43 -123 43c-13 0 -23 -12 -28 -37h-90c18 92 50 134 127 134c67 0 87 -43 124 -43c13 0 22 12 28 37h90c-20 -92 -51 -134 -128 -134z" />
    <glyph glyph-name="uni1EBE" unicode="&#x1ebe;" 
d="M567 682h-103l-48 55l-77 -55h-107l120 108h156zM854 843l-187 -108h-122l152 108h157zM506 0h-506l147 667h506l-39 -176h-304l-14 -66h297l-39 -176h-297l-16 -73h304z" />
    <glyph glyph-name="uni1EC0" unicode="&#x1ec0;" 
d="M567 682h-103l-48 55l-77 -55h-107l120 108h156zM506 0h-506l147 667h506l-39 -176h-304l-14 -66h297l-39 -176h-297l-16 -73h304zM283 735h-120l-123 108h155z" />
    <glyph glyph-name="uni1EC2" unicode="&#x1ec2;" 
d="M566 682h-103l-48 55l-77 -55h-107l120 108h156zM506 0h-506l147 667h506l-39 -176h-304l-14 -66h297l-39 -176h-297l-16 -73h304zM525 794l-51 18c18 24 49 36 89 36c37 0 81 -15 81 -48c0 -15 -10 -33 -20 -44h-71c15 11 24 24 24 36c0 9 -9 16 -22 16
c-12 0 -22 -5 -30 -14z" />
    <glyph glyph-name="uni1EC4" unicode="&#x1ec4;" 
d="M563 678h-103l-48 36l-77 -36h-107l120 72h156zM506 0h-506l147 667h506l-39 -176h-304l-14 -66h297l-39 -176h-297l-16 -73h304zM485 757c-67 0 -86 21 -123 21c-13 0 -23 -6 -28 -18h-90c18 46 50 67 127 67c67 0 87 -22 124 -22c13 0 22 6 28 19h90
c-20 -46 -51 -67 -128 -67z" />
    <glyph glyph-name="uni1EC6" unicode="&#x1ec6;" 
d="M579 723h-103l-48 73l-77 -73h-107l120 144h156zM506 0h-506l147 667h506l-39 -176h-304l-14 -66h297l-39 -176h-297l-16 -73h304zM315 -110c0 -52 -49 -99 -101 -99c-45 0 -79 34 -79 79c0 52 49 99 101 99c45 0 79 -34 79 -79z" />
    <glyph glyph-name="uni1E1E" unicode="&#x1e1e;" horiz-adv-x="592" 
d="M516 796c0 -52 -49 -99 -101 -99c-45 0 -79 34 -79 79c0 52 49 99 101 99c45 0 79 -34 79 -79zM202 0h-202l147 667h506l-39 -176h-304l-14 -66h297l-39 -176h-297z" />
    <glyph glyph-name="Gcircumflex" unicode="&#x11c;" horiz-adv-x="726" 
d="M667 723h-103l-48 73l-77 -73h-107l120 144h156zM376 -12c-183 0 -348 111 -348 306c0 219 168 384 421 384c159 0 254 -98 287 -185l-186 -76c-10 41 -65 83 -130 83c-102 0 -183 -86 -183 -192c0 -70 53 -142 150 -142c35 0 65 11 91 30l5 25h-124l40 176h325l-61 -274
c-63 -84 -166 -135 -287 -135z" />
    <glyph glyph-name="Gbreve" unicode="&#x11e;" horiz-adv-x="726" 
d="M376 -12c-183 0 -348 111 -348 306c0 219 168 384 421 384c159 0 254 -98 287 -185l-186 -76c-10 41 -65 83 -130 83c-102 0 -183 -86 -183 -192c0 -70 53 -142 150 -142c35 0 65 11 91 30l5 25h-124l40 176h325l-61 -274c-63 -84 -166 -135 -287 -135zM685 779
c-52 -54 -122 -88 -194 -88c-71 0 -128 34 -157 88l86 62c15 -31 44 -53 88 -53c42 0 80 19 112 53z" />
    <glyph glyph-name="Gdotaccent" unicode="&#x120;" horiz-adv-x="726" 
d="M376 -12c-183 0 -348 111 -348 306c0 219 168 384 421 384c159 0 254 -98 287 -185l-186 -76c-10 41 -65 83 -130 83c-102 0 -183 -86 -183 -192c0 -70 53 -142 150 -142c35 0 65 11 91 30l5 25h-124l40 176h325l-61 -274c-63 -84 -166 -135 -287 -135zM603 796
c0 -52 -49 -99 -101 -99c-45 0 -79 34 -79 79c0 52 49 99 101 99c45 0 79 -34 79 -79z" />
    <glyph glyph-name="Gcommaaccent" unicode="&#x122;" horiz-adv-x="726" 
d="M389 -120c0 -67 -55 -141 -133 -178l-45 46c26 11 68 35 84 63c-2 -1 -8 -1 -10 -1c-32 0 -60 21 -60 64c0 46 44 85 88 85c39 0 76 -27 76 -79zM376 -12c-183 0 -348 111 -348 306c0 219 168 384 421 384c159 0 254 -98 287 -185l-186 -76c-10 41 -65 83 -130 83
c-102 0 -183 -86 -183 -192c0 -70 53 -142 150 -142c35 0 65 11 91 30l5 25h-124l40 176h325l-61 -274c-63 -84 -166 -135 -287 -135z" />
    <glyph glyph-name="Gbreve.alt1" horiz-adv-x="733" 
d="M685 779c-52 -54 -122 -88 -194 -88c-71 0 -128 34 -157 88l86 62c15 -31 44 -53 88 -53c42 0 80 19 112 53zM356 -12c-178 0 -328 124 -328 306c0 233 183 384 421 384c159 0 259 -103 287 -185l-186 -76c-10 41 -65 83 -125 83c-114 0 -188 -95 -188 -192
c0 -77 58 -142 142 -142c53 0 99 23 122 55h-142l40 176h354c-39 -280 -190 -409 -397 -409z" />
    <glyph glyph-name="Gcommaaccent.alt1" horiz-adv-x="733" 
d="M389 -120c0 -67 -55 -141 -133 -178l-45 46c26 11 68 35 84 63c-2 -1 -8 -1 -10 -1c-32 0 -60 21 -60 64c0 46 44 85 88 85c39 0 76 -27 76 -79zM356 -12c-178 0 -328 124 -328 306c0 233 183 384 421 384c159 0 259 -103 287 -185l-186 -76c-10 41 -65 83 -125 83
c-114 0 -188 -95 -188 -192c0 -77 58 -142 142 -142c53 0 99 23 122 55h-142l40 176h354c-39 -280 -190 -409 -397 -409z" />
    <glyph glyph-name="Gcircumflex.alt1" horiz-adv-x="733" 
d="M667 723h-103l-48 73l-77 -73h-107l120 144h156zM356 -12c-178 0 -328 124 -328 306c0 233 183 384 421 384c159 0 259 -103 287 -185l-186 -76c-10 41 -65 83 -125 83c-114 0 -188 -95 -188 -192c0 -77 58 -142 142 -142c53 0 99 23 122 55h-142l40 176h354
c-39 -280 -190 -409 -397 -409z" />
    <glyph glyph-name="Gdotaccent.alt1" horiz-adv-x="733" 
d="M603 796c0 -52 -49 -99 -101 -99c-45 0 -79 34 -79 79c0 52 49 99 101 99c45 0 79 -34 79 -79zM356 -12c-178 0 -328 124 -328 306c0 233 183 384 421 384c159 0 259 -103 287 -185l-186 -76c-10 41 -65 83 -125 83c-114 0 -188 -95 -188 -192c0 -77 58 -142 142 -142
c53 0 99 23 122 55h-142l40 176h354c-39 -280 -190 -409 -397 -409z" />
    <glyph glyph-name="Hbar" unicode="&#x126;" horiz-adv-x="751" 
d="M643 0h-202l56 255h-239l-56 -255h-202l110 501h-53l21 97h54l15 69h202l-15 -69h239l15 69h202l-15 -69h52l-21 -97h-53zM297 431h239l15 70h-239z" />
    <glyph glyph-name="Hcircumflex" unicode="&#x124;" horiz-adv-x="751" 
d="M647 723h-103l-48 73l-77 -73h-107l120 144h156zM643 0h-202l56 255h-239l-56 -255h-202l147 667h202l-52 -236h239l52 236h202z" />
    <glyph glyph-name="uni1E22" unicode="&#x1e22;" horiz-adv-x="751" 
d="M643 0h-202l56 255h-239l-56 -255h-202l147 667h202l-52 -236h239l52 236h202zM585 796c0 -52 -49 -99 -101 -99c-45 0 -79 34 -79 79c0 52 49 99 101 99c45 0 79 -34 79 -79z" />
    <glyph glyph-name="Iacute" unicode="&#xcd;" horiz-adv-x="310" 
d="M202 0h-202l147 667h202zM497 867l-187 -144h-122l152 144h157z" />
    <glyph glyph-name="Ibreve" unicode="&#x12c;" horiz-adv-x="310" 
d="M202 0h-202l147 667h202zM445 779c-52 -54 -122 -88 -194 -88c-71 0 -128 34 -157 88l86 62c15 -31 44 -53 88 -53c42 0 80 19 112 53z" />
    <glyph glyph-name="Icircumflex" unicode="&#xce;" horiz-adv-x="310" 
d="M427 723h-103l-48 73l-77 -73h-107l120 144h156zM202 0h-202l147 667h202z" />
    <glyph glyph-name="Idieresis" unicode="&#xcf;" horiz-adv-x="310" 
d="M472 795c0 -52 -49 -99 -101 -99c-45 0 -79 34 -79 79c0 52 49 99 101 99c45 0 79 -34 79 -79zM256 795c0 -52 -49 -99 -101 -99c-45 0 -79 34 -79 79c0 52 49 99 101 99c45 0 79 -34 79 -79zM202 0h-202l147 667h202z" />
    <glyph glyph-name="Idotaccent" unicode="&#x130;" horiz-adv-x="310" 
d="M202 0h-202l147 667h202zM364 796c0 -52 -49 -99 -101 -99c-45 0 -79 34 -79 79c0 52 49 99 101 99c45 0 79 -34 79 -79z" />
    <glyph glyph-name="Igrave" unicode="&#xcc;" horiz-adv-x="310" 
d="M202 0h-202l147 667h202zM330 723h-120l-123 144h155z" />
    <glyph glyph-name="Imacron" unicode="&#x12a;" horiz-adv-x="310" 
d="M202 0h-202l147 667h202zM441 718h-362l21 97h362z" />
    <glyph glyph-name="Iogonek" unicode="&#x12e;" horiz-adv-x="310" 
d="M182 -91l55 -49c-26 -29 -58 -46 -98 -46c-54 0 -105 26 -105 81c0 35 15 74 50 105h-84l147 667h202l-147 -667c-58 -26 -86 -59 -86 -92c0 -16 11 -26 27 -26s29 12 39 27z" />
    <glyph glyph-name="Itilde" unicode="&#x128;" horiz-adv-x="310" 
d="M202 0h-202l147 667h202zM333 721c-67 0 -86 43 -123 43c-13 0 -23 -12 -28 -37h-90c18 92 50 134 127 134c67 0 87 -43 124 -43c13 0 22 12 28 37h90c-20 -92 -51 -134 -128 -134z" />
    <glyph glyph-name="uni1EC8" unicode="&#x1ec8;" horiz-adv-x="310" 
d="M202 0h-202l147 667h202zM234 747l-51 25c18 32 49 48 89 48c37 0 81 -20 81 -65c0 -19 -10 -43 -20 -58h-71c15 15 24 32 24 48c0 12 -9 21 -22 21c-12 0 -22 -7 -30 -19z" />
    <glyph glyph-name="uni1ECA" unicode="&#x1eca;" horiz-adv-x="310" 
d="M202 0h-202l147 667h202zM163 -110c0 -52 -49 -99 -101 -99c-45 0 -79 34 -79 79c0 52 49 99 101 99c45 0 79 -34 79 -79z" />
    <glyph glyph-name="IJ" unicode="&#x132;" horiz-adv-x="808" 
d="M202 0h-202l147 667h202zM481 -12c-73 0 -157 20 -207 66l104 153c18 -22 54 -41 88 -41c46 0 75 28 85 75l94 426h202l-95 -429c-38 -171 -116 -250 -271 -250z" />
    <glyph glyph-name="Jcircumflex" unicode="&#x134;" horiz-adv-x="498" 
d="M614 723h-103l-48 73l-77 -73h-107l120 144h156zM171 -12c-73 0 -157 20 -207 66l104 153c18 -22 54 -41 88 -41c46 0 75 28 85 75l94 426h202l-95 -429c-38 -171 -116 -250 -271 -250z" />
    <glyph glyph-name="Kcommaaccent" unicode="&#x136;" horiz-adv-x="671" 
d="M347 -120c0 -67 -55 -141 -133 -178l-45 46c26 11 68 35 84 63c-2 -1 -8 -1 -10 -1c-32 0 -60 21 -60 64c0 46 44 85 88 85c39 0 76 -27 76 -79zM635 0h-236l-103 241l-53 -56l-41 -185h-202l147 667h202l-52 -236l217 236h257l-320 -310z" />
    <glyph glyph-name="Lacute" unicode="&#x139;" horiz-adv-x="536" 
d="M624 867l-187 -144h-122l152 144h157zM455 0h-455l147 667h202l-108 -491h253z" />
    <glyph glyph-name="Lcaron" unicode="&#x13d;" horiz-adv-x="536" 
d="M562 603c0 -67 -55 -141 -133 -178l-45 46c26 11 68 35 84 63c-2 -1 -8 -1 -10 -1c-32 0 -60 21 -60 64c0 46 44 85 88 85c39 0 76 -27 76 -79zM455 0h-455l147 667h202l-108 -491h253z" />
    <glyph glyph-name="Lcommaaccent" unicode="&#x13b;" horiz-adv-x="536" 
d="M281 -120c0 -67 -55 -141 -133 -178l-45 46c26 11 68 35 84 63c-2 -1 -8 -1 -10 -1c-32 0 -60 21 -60 64c0 46 44 85 88 85c39 0 76 -27 76 -79zM455 0h-455l147 667h202l-108 -491h253z" />
    <glyph glyph-name="Ldot" unicode="&#x13f;" horiz-adv-x="599" 
d="M455 0h-455l147 667h202l-108 -491h253zM468 236c-54 0 -97 45 -97 99c0 63 54 116 117 116c54 0 97 -45 97 -99c0 -63 -54 -116 -117 -116z" />
    <glyph glyph-name="Lslash" unicode="&#x141;" horiz-adv-x="545" 
d="M-11 163l35 160l63 32l69 312h202l-43 -195l63 32l-35 -161l-64 -32l-29 -135h253l-39 -176h-455l43 195z" />
    <glyph glyph-name="Nacute" unicode="&#x143;" horiz-adv-x="750" 
d="M718 867l-187 -144h-122l152 144h157zM642 0h-194l-170 346l-76 -346h-202l147 667h208l160 -324l72 324h202z" />
    <glyph glyph-name="Ncaron" unicode="&#x147;" horiz-adv-x="750" 
d="M561 723h-156l-59 144h103l48 -73l77 73h107zM642 0h-194l-170 346l-76 -346h-202l147 667h208l160 -324l72 324h202z" />
    <glyph glyph-name="Ncommaaccent" unicode="&#x145;" horiz-adv-x="750" 
d="M377 -120c0 -67 -55 -141 -133 -178l-45 46c26 11 68 35 84 63c-2 -1 -8 -1 -10 -1c-32 0 -60 21 -60 64c0 46 44 85 88 85c39 0 76 -27 76 -79zM642 0h-194l-170 346l-76 -346h-202l147 667h208l160 -324l72 324h202z" />
    <glyph glyph-name="Ntilde" unicode="&#xd1;" horiz-adv-x="750" 
d="M551 721c-67 0 -86 43 -123 43c-13 0 -23 -12 -28 -37h-90c18 92 50 134 127 134c67 0 87 -43 124 -43c13 0 22 12 28 37h90c-20 -92 -51 -134 -128 -134zM642 0h-194l-170 346l-76 -346h-202l147 667h208l160 -324l72 324h202z" />
    <glyph glyph-name="Eng" unicode="&#x14a;" horiz-adv-x="750" 
d="M382 -196c-76 0 -158 21 -207 66l100 134c18 -22 54 -41 88 -41c36 0 64 19 78 51l-163 332l-76 -346h-202l147 667h208l160 -324l72 324h202l-136 -613c-38 -176 -123 -250 -271 -250z" />
    <glyph glyph-name="Oacute" unicode="&#xd3;" horiz-adv-x="766" 
d="M724 867l-187 -144h-122l152 144h157zM376 -12c-198 0 -348 125 -348 306c0 213 169 384 401 384c197 0 347 -124 347 -304c0 -213 -168 -386 -400 -386zM387 166c106 0 180 90 180 192c0 82 -60 142 -150 142c-106 0 -180 -90 -180 -192c0 -82 60 -142 150 -142z" />
    <glyph glyph-name="Obreve" unicode="&#x14e;" horiz-adv-x="766" 
d="M376 -12c-198 0 -348 125 -348 306c0 213 169 384 401 384c197 0 347 -124 347 -304c0 -213 -168 -386 -400 -386zM387 166c106 0 180 90 180 192c0 82 -60 142 -150 142c-106 0 -180 -90 -180 -192c0 -82 60 -142 150 -142zM674 779c-52 -54 -122 -88 -194 -88
c-71 0 -128 34 -157 88l86 62c15 -31 44 -53 88 -53c42 0 80 19 112 53z" />
    <glyph glyph-name="Ocircumflex" unicode="&#xd4;" horiz-adv-x="766" 
d="M656 723h-103l-48 73l-77 -73h-107l120 144h156zM376 -12c-198 0 -348 125 -348 306c0 213 169 384 401 384c197 0 347 -124 347 -304c0 -213 -168 -386 -400 -386zM387 166c106 0 180 90 180 192c0 82 -60 142 -150 142c-106 0 -180 -90 -180 -192
c0 -82 60 -142 150 -142z" />
    <glyph glyph-name="Odieresis" unicode="&#xd6;" horiz-adv-x="766" 
d="M700 795c0 -52 -49 -99 -101 -99c-45 0 -79 34 -79 79c0 52 49 99 101 99c45 0 79 -34 79 -79zM484 795c0 -52 -49 -99 -101 -99c-45 0 -79 34 -79 79c0 52 49 99 101 99c45 0 79 -34 79 -79zM376 -12c-198 0 -348 125 -348 306c0 213 169 384 401 384
c197 0 347 -124 347 -304c0 -213 -168 -386 -400 -386zM387 166c106 0 180 90 180 192c0 82 -60 142 -150 142c-106 0 -180 -90 -180 -192c0 -82 60 -142 150 -142z" />
    <glyph glyph-name="Ograve" unicode="&#xd2;" horiz-adv-x="766" 
d="M558 723h-120l-123 144h155zM376 -12c-198 0 -348 125 -348 306c0 213 169 384 401 384c197 0 347 -124 347 -304c0 -213 -168 -386 -400 -386zM387 166c106 0 180 90 180 192c0 82 -60 142 -150 142c-106 0 -180 -90 -180 -192c0 -82 60 -142 150 -142z" />
    <glyph glyph-name="Ohungarumlaut" unicode="&#x150;" horiz-adv-x="766" 
d="M581 867l-147 -144h-102l112 144h137zM737 867l-147 -144h-102l112 144h137zM376 -12c-198 0 -348 125 -348 306c0 213 169 384 401 384c197 0 347 -124 347 -304c0 -213 -168 -386 -400 -386zM387 166c106 0 180 90 180 192c0 82 -60 142 -150 142
c-106 0 -180 -90 -180 -192c0 -82 60 -142 150 -142z" />
    <glyph glyph-name="Omacron" unicode="&#x14c;" horiz-adv-x="766" 
d="M669 718h-362l21 97h362zM376 -12c-198 0 -348 125 -348 306c0 213 169 384 401 384c197 0 347 -124 347 -304c0 -213 -168 -386 -400 -386zM387 166c106 0 180 90 180 192c0 82 -60 142 -150 142c-106 0 -180 -90 -180 -192c0 -82 60 -142 150 -142z" />
    <glyph glyph-name="Oslash" unicode="&#xd8;" horiz-adv-x="766" 
d="M376 -12c-85 0 -161 23 -220 63l-54 -51h-138l123 115c-38 49 -59 110 -59 179c0 213 169 384 401 384c77 0 148 -19 204 -54l46 43h138l-111 -104c44 -50 70 -115 70 -189c0 -213 -168 -386 -400 -386zM387 166c106 0 180 90 180 192c0 23 -5 44 -14 63l-250 -234
c23 -13 51 -21 84 -21zM237 308c0 -17 2 -32 7 -47l241 225c-20 9 -43 14 -68 14c-106 0 -180 -90 -180 -192z" />
    <glyph glyph-name="Oslashacute" unicode="&#x1fe;" horiz-adv-x="766" 
d="M726 867l-187 -144h-122l152 144h157zM376 -12c-85 0 -161 23 -220 63l-54 -51h-138l123 115c-38 49 -59 110 -59 179c0 213 169 384 401 384c77 0 148 -19 204 -54l46 43h138l-111 -104c44 -50 70 -115 70 -189c0 -213 -168 -386 -400 -386zM387 166
c106 0 180 90 180 192c0 23 -5 44 -14 63l-250 -234c23 -13 51 -21 84 -21zM237 308c0 -17 2 -32 7 -47l241 225c-20 9 -43 14 -68 14c-106 0 -180 -90 -180 -192z" />
    <glyph glyph-name="Otilde" unicode="&#xd5;" horiz-adv-x="766" 
d="M376 -12c-198 0 -348 125 -348 306c0 213 169 384 401 384c197 0 347 -124 347 -304c0 -213 -168 -386 -400 -386zM387 166c106 0 180 90 180 192c0 82 -60 142 -150 142c-106 0 -180 -90 -180 -192c0 -82 60 -142 150 -142zM561 721c-67 0 -86 43 -123 43
c-13 0 -23 -12 -28 -37h-90c18 92 50 134 127 134c67 0 87 -43 124 -43c13 0 22 12 28 37h90c-20 -92 -51 -134 -128 -134z" />
    <glyph glyph-name="uni1ECC" unicode="&#x1ecc;" horiz-adv-x="766" 
d="M376 -12c-198 0 -348 125 -348 306c0 213 169 384 401 384c197 0 347 -124 347 -304c0 -213 -168 -386 -400 -386zM387 166c106 0 180 90 180 192c0 82 -60 142 -150 142c-106 0 -180 -90 -180 -192c0 -82 60 -142 150 -142zM391 -110c0 -52 -49 -99 -101 -99
c-45 0 -79 34 -79 79c0 52 49 99 101 99c45 0 79 -34 79 -79z" />
    <glyph glyph-name="uni1ECE" unicode="&#x1ece;" horiz-adv-x="766" 
d="M376 -12c-198 0 -348 125 -348 306c0 213 169 384 401 384c197 0 347 -124 347 -304c0 -213 -168 -386 -400 -386zM387 166c106 0 180 90 180 192c0 82 -60 142 -150 142c-106 0 -180 -90 -180 -192c0 -82 60 -142 150 -142zM463 747l-51 25c18 32 49 48 89 48
c37 0 81 -20 81 -65c0 -19 -10 -43 -20 -58h-71c15 15 24 32 24 48c0 12 -9 21 -22 21c-12 0 -22 -7 -30 -19z" />
    <glyph glyph-name="uni1ED0" unicode="&#x1ed0;" horiz-adv-x="766" 
d="M643 682h-103l-48 55l-77 -55h-107l120 108h156zM930 843l-187 -108h-122l152 108h157zM376 -12c-198 0 -348 125 -348 306c0 213 169 384 401 384c197 0 347 -124 347 -304c0 -213 -168 -386 -400 -386zM387 166c106 0 180 90 180 192c0 82 -60 142 -150 142
c-106 0 -180 -90 -180 -192c0 -82 60 -142 150 -142z" />
    <glyph glyph-name="uni1ED2" unicode="&#x1ed2;" horiz-adv-x="766" 
d="M643 682h-103l-48 55l-77 -55h-107l120 108h156zM376 -12c-198 0 -348 125 -348 306c0 213 169 384 401 384c197 0 347 -124 347 -304c0 -213 -168 -386 -400 -386zM387 166c106 0 180 90 180 192c0 82 -60 142 -150 142c-106 0 -180 -90 -180 -192
c0 -82 60 -142 150 -142zM359 735h-120l-123 108h155z" />
    <glyph glyph-name="uni1ED4" unicode="&#x1ed4;" horiz-adv-x="766" 
d="M643 682h-103l-48 55l-77 -55h-107l120 108h156zM376 -12c-198 0 -348 125 -348 306c0 213 169 384 401 384c197 0 347 -124 347 -304c0 -213 -168 -386 -400 -386zM387 166c106 0 180 90 180 192c0 82 -60 142 -150 142c-106 0 -180 -90 -180 -192
c0 -82 60 -142 150 -142zM602 794l-51 18c18 24 49 36 89 36c37 0 81 -15 81 -48c0 -15 -10 -33 -20 -44h-71c15 11 24 24 24 36c0 9 -9 16 -22 16c-12 0 -22 -5 -30 -14z" />
    <glyph glyph-name="uni1ED6" unicode="&#x1ed6;" horiz-adv-x="766" 
d="M636 678h-103l-48 36l-77 -36h-107l120 72h156zM376 -12c-198 0 -348 125 -348 306c0 213 169 384 401 384c197 0 347 -124 347 -304c0 -213 -168 -386 -400 -386zM387 166c106 0 180 90 180 192c0 82 -60 142 -150 142c-106 0 -180 -90 -180 -192
c0 -82 60 -142 150 -142zM557 757c-67 0 -86 21 -123 21c-13 0 -23 -6 -28 -18h-90c18 46 50 67 127 67c67 0 87 -22 124 -22c13 0 22 6 28 19h90c-20 -46 -51 -67 -128 -67z" />
    <glyph glyph-name="uni1ED8" unicode="&#x1ed8;" horiz-adv-x="766" 
d="M655 723h-103l-48 73l-77 -73h-107l120 144h156zM376 -12c-198 0 -348 125 -348 306c0 213 169 384 401 384c197 0 347 -124 347 -304c0 -213 -168 -386 -400 -386zM387 166c106 0 180 90 180 192c0 82 -60 142 -150 142c-106 0 -180 -90 -180 -192
c0 -82 60 -142 150 -142zM393 -110c0 -52 -49 -99 -101 -99c-45 0 -79 34 -79 79c0 52 49 99 101 99c45 0 79 -34 79 -79z" />
    <glyph glyph-name="Ohorn" unicode="&#x1a0;" horiz-adv-x="766" 
d="M376 -12c-198 0 -348 125 -348 306c0 213 169 384 401 384c110 0 205 -39 268 -104c22 10 48 28 59 49c-2 -1 -6 -1 -8 -1c-28 0 -53 18 -53 56c0 41 38 74 77 74c34 0 67 -24 67 -69c0 -57 -44 -118 -108 -152c29 -44 45 -98 45 -157c0 -213 -168 -386 -400 -386z
M387 166c106 0 180 90 180 192c0 82 -60 142 -150 142c-106 0 -180 -90 -180 -192c0 -82 60 -142 150 -142z" />
    <glyph glyph-name="uni1EDA" unicode="&#x1eda;" horiz-adv-x="766" 
d="M724 867l-187 -144h-122l152 144h157zM376 -12c-198 0 -348 125 -348 306c0 213 169 384 401 384c110 0 205 -39 268 -104c22 10 48 28 59 49c-2 -1 -6 -1 -8 -1c-28 0 -53 18 -53 56c0 41 38 74 77 74c34 0 67 -24 67 -69c0 -57 -44 -118 -108 -152
c29 -44 45 -98 45 -157c0 -213 -168 -386 -400 -386zM387 166c106 0 180 90 180 192c0 82 -60 142 -150 142c-106 0 -180 -90 -180 -192c0 -82 60 -142 150 -142z" />
    <glyph glyph-name="uni1EDC" unicode="&#x1edc;" horiz-adv-x="766" 
d="M376 -12c-198 0 -348 125 -348 306c0 213 169 384 401 384c110 0 205 -39 268 -104c22 10 48 28 59 49c-2 -1 -6 -1 -8 -1c-28 0 -53 18 -53 56c0 41 38 74 77 74c34 0 67 -24 67 -69c0 -57 -44 -118 -108 -152c29 -44 45 -98 45 -157c0 -213 -168 -386 -400 -386z
M387 166c106 0 180 90 180 192c0 82 -60 142 -150 142c-106 0 -180 -90 -180 -192c0 -82 60 -142 150 -142zM558 723h-120l-123 144h155z" />
    <glyph glyph-name="uni1EDE" unicode="&#x1ede;" horiz-adv-x="766" 
d="M376 -12c-198 0 -348 125 -348 306c0 213 169 384 401 384c110 0 205 -39 268 -104c22 10 48 28 59 49c-2 -1 -6 -1 -8 -1c-28 0 -53 18 -53 56c0 41 38 74 77 74c34 0 67 -24 67 -69c0 -57 -44 -118 -108 -152c29 -44 45 -98 45 -157c0 -213 -168 -386 -400 -386z
M387 166c106 0 180 90 180 192c0 82 -60 142 -150 142c-106 0 -180 -90 -180 -192c0 -82 60 -142 150 -142zM463 747l-51 25c18 32 49 48 89 48c37 0 81 -20 81 -65c0 -19 -10 -43 -20 -58h-71c15 15 24 32 24 48c0 12 -9 21 -22 21c-12 0 -22 -7 -30 -19z" />
    <glyph glyph-name="uni1EE0" unicode="&#x1ee0;" horiz-adv-x="766" 
d="M376 -12c-198 0 -348 125 -348 306c0 213 169 384 401 384c110 0 205 -39 268 -104c22 10 48 28 59 49c-2 -1 -6 -1 -8 -1c-28 0 -53 18 -53 56c0 41 38 74 77 74c34 0 67 -24 67 -69c0 -57 -44 -118 -108 -152c29 -44 45 -98 45 -157c0 -213 -168 -386 -400 -386z
M387 166c106 0 180 90 180 192c0 82 -60 142 -150 142c-106 0 -180 -90 -180 -192c0 -82 60 -142 150 -142zM561 721c-67 0 -86 43 -123 43c-13 0 -23 -12 -28 -37h-90c18 92 50 134 127 134c67 0 87 -43 124 -43c13 0 22 12 28 37h90c-20 -92 -51 -134 -128 -134z" />
    <glyph glyph-name="uni1EE2" unicode="&#x1ee2;" horiz-adv-x="766" 
d="M376 -12c-198 0 -348 125 -348 306c0 213 169 384 401 384c110 0 205 -39 268 -104c22 10 48 28 59 49c-2 -1 -6 -1 -8 -1c-28 0 -53 18 -53 56c0 41 38 74 77 74c34 0 67 -24 67 -69c0 -57 -44 -118 -108 -152c29 -44 45 -98 45 -157c0 -213 -168 -386 -400 -386z
M387 166c106 0 180 90 180 192c0 82 -60 142 -150 142c-106 0 -180 -90 -180 -192c0 -82 60 -142 150 -142zM391 -110c0 -52 -49 -99 -101 -99c-45 0 -79 34 -79 79c0 52 49 99 101 99c45 0 79 -34 79 -79z" />
    <glyph glyph-name="OE" unicode="&#x152;" horiz-adv-x="1062" 
d="M978 0h-506l10 49c-41 -38 -98 -61 -175 -61c-148 0 -279 126 -279 306c0 231 177 383 380 383c86 0 150 -26 197 -74l14 64h506l-39 -176h-304l-14 -66h297l-39 -176h-297l-16 -73h304zM524 237l40 179c-25 53 -77 83 -139 83c-118 0 -188 -93 -188 -191
c0 -85 62 -142 142 -142c60 0 111 28 145 71z" />
    <glyph glyph-name="uni1E56" unicode="&#x1e56;" horiz-adv-x="662" 
d="M202 0h-202l147 667h352c112 0 196 -88 196 -197c0 -97 -64 -260 -295 -260h-152zM287 386h123c37 0 76 22 76 61c0 30 -21 44 -55 44h-121zM557 796c0 -52 -49 -99 -101 -99c-45 0 -79 34 -79 79c0 52 49 99 101 99c45 0 79 -34 79 -79z" />
    <glyph glyph-name="Racute" unicode="&#x154;" horiz-adv-x="678" 
d="M689 867l-187 -144h-122l152 144h157zM597 0h-222l-46 210h-81l-46 -210h-202l147 667h324c121 0 224 -79 224 -202c0 -118 -77 -209 -164 -240zM407 386h3c44 0 76 19 76 57c0 28 -25 48 -56 48h-120l-23 -105h120z" />
    <glyph glyph-name="Rcaron" unicode="&#x158;" horiz-adv-x="678" 
d="M531 723h-156l-59 144h103l48 -73l77 73h107zM597 0h-222l-46 210h-81l-46 -210h-202l147 667h324c121 0 224 -79 224 -202c0 -118 -77 -209 -164 -240zM407 386h3c44 0 76 19 76 57c0 28 -25 48 -56 48h-120l-23 -105h120z" />
    <glyph glyph-name="Rcommaaccent" unicode="&#x156;" horiz-adv-x="678" 
d="M345 -120c0 -67 -55 -141 -133 -178l-45 46c26 11 68 35 84 63c-2 -1 -8 -1 -10 -1c-32 0 -60 21 -60 64c0 46 44 85 88 85c39 0 76 -27 76 -79zM597 0h-222l-46 210h-81l-46 -210h-202l147 667h324c121 0 224 -79 224 -202c0 -118 -77 -209 -164 -240zM407 386h3
c44 0 76 19 76 57c0 28 -25 48 -56 48h-120l-23 -105h120z" />
    <glyph glyph-name="Sacute" unicode="&#x15a;" horiz-adv-x="613" 
d="M659 867l-187 -144h-122l152 144h157zM316 -12c-142 0 -268 51 -334 130l120 144c46 -60 140 -102 230 -102c38 0 53 17 53 29c0 56 -319 54 -319 249c0 116 96 239 286 239c109 0 218 -38 291 -111l-121 -140c-55 55 -140 81 -203 81c-26 0 -41 -12 -41 -27
c0 -53 320 -56 320 -249c0 -140 -110 -243 -282 -243z" />
    <glyph glyph-name="Scaron" unicode="&#x160;" horiz-adv-x="613" 
d="M500 723h-156l-59 144h103l48 -73l77 73h107zM316 -12c-142 0 -268 51 -334 130l120 144c46 -60 140 -102 230 -102c38 0 53 17 53 29c0 56 -319 54 -319 249c0 116 96 239 286 239c109 0 218 -38 291 -111l-121 -140c-55 55 -140 81 -203 81c-26 0 -41 -12 -41 -27
c0 -53 320 -56 320 -249c0 -140 -110 -243 -282 -243z" />
    <glyph glyph-name="Scircumflex" unicode="&#x15c;" horiz-adv-x="613" 
d="M589 723h-103l-48 73l-77 -73h-107l120 144h156zM316 -12c-142 0 -268 51 -334 130l120 144c46 -60 140 -102 230 -102c38 0 53 17 53 29c0 56 -319 54 -319 249c0 116 96 239 286 239c109 0 218 -38 291 -111l-121 -140c-55 55 -140 81 -203 81c-26 0 -41 -12 -41 -27
c0 -53 320 -56 320 -249c0 -140 -110 -243 -282 -243z" />
    <glyph glyph-name="Scedilla" unicode="&#x15e;" horiz-adv-x="613" 
d="M247 -200c-58 0 -107 21 -130 44l43 60c25 -21 55 -36 86 -36c21 0 38 7 38 24c0 9 -7 17 -22 17c-11 0 -18 -5 -24 -12l-52 34l38 65c-103 16 -191 60 -242 122l120 144c46 -60 140 -102 230 -102c38 0 53 17 53 29c0 56 -319 54 -319 249c0 116 96 239 286 239
c109 0 218 -38 291 -111l-121 -140c-55 55 -140 81 -203 81c-26 0 -41 -12 -41 -27c0 -53 320 -56 320 -249c0 -140 -110 -243 -282 -243c-6 0 -12 1 -17 1l-23 -36c10 7 17 9 29 9c33 0 60 -25 60 -65c0 -61 -54 -97 -118 -97z" />
    <glyph glyph-name="Scommaaccent" unicode="&#x218;" horiz-adv-x="613" 
d="M299 -120c0 -67 -55 -141 -133 -178l-45 46c26 11 68 35 84 63c-2 -1 -8 -1 -10 -1c-32 0 -60 21 -60 64c0 46 44 85 88 85c39 0 76 -27 76 -79zM316 -12c-142 0 -268 51 -334 130l120 144c46 -60 140 -102 230 -102c38 0 53 17 53 29c0 56 -319 54 -319 249
c0 116 96 239 286 239c109 0 218 -38 291 -111l-121 -140c-55 55 -140 81 -203 81c-26 0 -41 -12 -41 -27c0 -53 320 -56 320 -249c0 -140 -110 -243 -282 -243z" />
    <glyph glyph-name="uni1E60" unicode="&#x1e60;" horiz-adv-x="613" 
d="M316 -12c-142 0 -268 51 -334 130l120 144c46 -60 140 -102 230 -102c38 0 53 17 53 29c0 56 -319 54 -319 249c0 116 96 239 286 239c109 0 218 -38 291 -111l-121 -140c-55 55 -140 81 -203 81c-26 0 -41 -12 -41 -27c0 -53 320 -56 320 -249
c0 -140 -110 -243 -282 -243zM526 796c0 -52 -49 -99 -101 -99c-45 0 -79 34 -79 79c0 52 49 99 101 99c45 0 79 -34 79 -79z" />
    <glyph glyph-name="Tbar" unicode="&#x166;" horiz-adv-x="595" 
d="M345 0h-202l51 231h-116l21 97h116l36 163h-179l39 176h559l-39 -176h-178l-36 -163h116l-21 -97h-116z" />
    <glyph glyph-name="Tcaron" unicode="&#x164;" horiz-adv-x="595" 
d="M479 723h-156l-59 144h103l48 -73l77 73h107zM345 0h-202l108 491h-179l39 176h559l-39 -176h-178z" />
    <glyph glyph-name="Tcommaaccent" unicode="&#x162;" horiz-adv-x="595" 
d="M300 -120c0 -67 -55 -141 -133 -178l-45 46c26 11 68 35 84 63c-2 -1 -8 -1 -10 -1c-32 0 -60 21 -60 64c0 46 44 85 88 85c39 0 76 -27 76 -79zM345 0h-202l108 491h-179l39 176h559l-39 -176h-178z" />
    <glyph glyph-name="uni021A" unicode="&#x21a;" horiz-adv-x="595" 
d="M300 -120c0 -67 -55 -141 -133 -178l-45 46c26 11 68 35 84 63c-2 -1 -8 -1 -10 -1c-32 0 -60 21 -60 64c0 46 44 85 88 85c39 0 76 -27 76 -79zM345 0h-202l108 491h-179l39 176h559l-39 -176h-178z" />
    <glyph glyph-name="uni1E6A" unicode="&#x1e6a;" horiz-adv-x="595" 
d="M345 0h-202l108 491h-179l39 176h559l-39 -176h-178zM508 796c0 -52 -49 -99 -101 -99c-45 0 -79 34 -79 79c0 52 49 99 101 99c45 0 79 -34 79 -79z" />
    <glyph glyph-name="Uacute" unicode="&#xda;" horiz-adv-x="767" 
d="M723 867l-187 -144h-122l152 144h157zM376 -12c-218 0 -321 101 -321 244c0 8 3 32 5 42l87 393h205l-86 -388c-1 -5 -2 -14 -2 -24c1 -43 36 -91 112 -91c82 0 125 51 139 115l86 388h205l-87 -392c-35 -161 -128 -287 -343 -287z" />
    <glyph glyph-name="Ubreve" unicode="&#x16c;" horiz-adv-x="767" 
d="M376 -12c-218 0 -321 101 -321 244c0 8 3 32 5 42l87 393h205l-86 -388c-1 -5 -2 -14 -2 -24c1 -43 36 -91 112 -91c82 0 125 51 139 115l86 388h205l-87 -392c-35 -161 -128 -287 -343 -287zM674 779c-52 -54 -122 -88 -194 -88c-71 0 -128 34 -157 88l86 62
c15 -31 44 -53 88 -53c42 0 80 19 112 53z" />
    <glyph glyph-name="Ucircumflex" unicode="&#xdb;" horiz-adv-x="767" 
d="M654 723h-103l-48 73l-77 -73h-107l120 144h156zM376 -12c-218 0 -321 101 -321 244c0 8 3 32 5 42l87 393h205l-86 -388c-1 -5 -2 -14 -2 -24c1 -43 36 -91 112 -91c82 0 125 51 139 115l86 388h205l-87 -392c-35 -161 -128 -287 -343 -287z" />
    <glyph glyph-name="Udieresis" unicode="&#xdc;" horiz-adv-x="767" 
d="M700 795c0 -52 -49 -99 -101 -99c-45 0 -79 34 -79 79c0 52 49 99 101 99c45 0 79 -34 79 -79zM484 795c0 -52 -49 -99 -101 -99c-45 0 -79 34 -79 79c0 52 49 99 101 99c45 0 79 -34 79 -79zM376 -12c-218 0 -321 101 -321 244c0 8 3 32 5 42l87 393h205l-86 -388
c-1 -5 -2 -14 -2 -24c1 -43 36 -91 112 -91c82 0 125 51 139 115l86 388h205l-87 -392c-35 -161 -128 -287 -343 -287z" />
    <glyph glyph-name="Ugrave" unicode="&#xd9;" horiz-adv-x="767" 
d="M376 -12c-218 0 -321 101 -321 244c0 8 3 32 5 42l87 393h205l-86 -388c-1 -5 -2 -14 -2 -24c1 -43 36 -91 112 -91c82 0 125 51 139 115l86 388h205l-87 -392c-35 -161 -128 -287 -343 -287zM558 723h-120l-123 144h155z" />
    <glyph glyph-name="Uhungarumlaut" unicode="&#x170;" horiz-adv-x="767" 
d="M376 -12c-218 0 -321 101 -321 244c0 8 3 32 5 42l87 393h205l-86 -388c-1 -5 -2 -14 -2 -24c1 -43 36 -91 112 -91c82 0 125 51 139 115l86 388h205l-87 -392c-35 -161 -128 -287 -343 -287zM581 867l-147 -144h-102l112 144h137zM737 867l-147 -144h-102l112 144h137z
" />
    <glyph glyph-name="Umacron" unicode="&#x16a;" horiz-adv-x="767" 
d="M376 -12c-218 0 -321 101 -321 244c0 8 3 32 5 42l87 393h205l-86 -388c-1 -5 -2 -14 -2 -24c1 -43 36 -91 112 -91c82 0 125 51 139 115l86 388h205l-87 -392c-35 -161 -128 -287 -343 -287zM669 718h-362l21 97h362z" />
    <glyph glyph-name="Uogonek" unicode="&#x172;" horiz-adv-x="767" 
d="M461 -91l55 -49c-26 -29 -58 -46 -98 -46c-54 0 -105 26 -105 81c0 31 12 65 38 94c-201 7 -296 105 -296 243c0 8 3 32 5 42l87 393h205l-86 -388c-1 -5 -2 -14 -2 -24c1 -43 36 -91 112 -91c82 0 125 51 139 115l86 388h205l-87 -392c-29 -132 -97 -240 -238 -275
c-58 -26 -86 -59 -86 -92c0 -16 11 -26 27 -26s29 12 39 27z" />
    <glyph glyph-name="Uring" unicode="&#x16e;" horiz-adv-x="767" 
d="M495 686c-61 0 -102 41 -102 102c0 66 56 122 122 122c61 0 102 -41 102 -102c0 -66 -56 -122 -122 -122zM503 764c19 0 36 17 36 36s-13 32 -32 32s-36 -17 -36 -36s13 -32 32 -32zM376 -12c-218 0 -321 101 -321 244c0 8 3 32 5 42l87 393h205l-86 -388
c-1 -5 -2 -14 -2 -24c1 -43 36 -91 112 -91c82 0 125 51 139 115l86 388h205l-87 -392c-35 -161 -128 -287 -343 -287z" />
    <glyph glyph-name="Utilde" unicode="&#x168;" horiz-adv-x="767" 
d="M376 -12c-218 0 -321 101 -321 244c0 8 3 32 5 42l87 393h205l-86 -388c-1 -5 -2 -14 -2 -24c1 -43 36 -91 112 -91c82 0 125 51 139 115l86 388h205l-87 -392c-35 -161 -128 -287 -343 -287zM561 721c-67 0 -86 43 -123 43c-13 0 -23 -12 -28 -37h-90
c18 92 50 134 127 134c67 0 87 -43 124 -43c13 0 22 12 28 37h90c-20 -92 -51 -134 -128 -134z" />
    <glyph glyph-name="uni1EE4" unicode="&#x1ee4;" horiz-adv-x="767" 
d="M376 -12c-218 0 -321 101 -321 244c0 8 3 32 5 42l87 393h205l-86 -388c-1 -5 -2 -14 -2 -24c1 -43 36 -91 112 -91c82 0 125 51 139 115l86 388h205l-87 -392c-35 -161 -128 -287 -343 -287zM391 -110c0 -52 -49 -99 -101 -99c-45 0 -79 34 -79 79c0 52 49 99 101 99
c45 0 79 -34 79 -79z" />
    <glyph glyph-name="Uhorn" unicode="&#x1af;" horiz-adv-x="767" 
d="M922 741c0 -74 -62 -134 -136 -165l-67 -301c-35 -161 -128 -287 -343 -287c-218 0 -321 101 -321 244c0 8 3 32 5 42l87 393h205l-86 -388c-1 -5 -2 -14 -2 -24c1 -43 36 -91 112 -91c82 0 125 51 139 115l86 388h205l-5 -23c15 10 30 23 38 37c-2 -1 -6 -1 -8 -1
c-28 0 -53 18 -53 56c0 41 38 74 77 74c34 0 67 -24 67 -69z" />
    <glyph glyph-name="uni1EE6" unicode="&#x1ee6;" horiz-adv-x="767" 
d="M376 -12c-218 0 -321 101 -321 244c0 8 3 32 5 42l87 393h205l-86 -388c-1 -5 -2 -14 -2 -24c1 -43 36 -91 112 -91c82 0 125 51 139 115l86 388h205l-87 -392c-35 -161 -128 -287 -343 -287zM463 747l-51 25c18 32 49 48 89 48c37 0 81 -20 81 -65
c0 -19 -10 -43 -20 -58h-71c15 15 24 32 24 48c0 12 -9 21 -22 21c-12 0 -22 -7 -30 -19z" />
    <glyph glyph-name="uni1EE8" unicode="&#x1ee8;" horiz-adv-x="767" 
d="M723 867l-187 -144h-122l152 144h157zM922 741c0 -74 -62 -134 -136 -165l-67 -301c-35 -161 -128 -287 -343 -287c-218 0 -321 101 -321 244c0 8 3 32 5 42l87 393h205l-86 -388c-1 -5 -2 -14 -2 -24c1 -43 36 -91 112 -91c82 0 125 51 139 115l86 388h205l-5 -23
c15 10 30 23 38 37c-2 -1 -6 -1 -8 -1c-28 0 -53 18 -53 56c0 41 38 74 77 74c34 0 67 -24 67 -69z" />
    <glyph glyph-name="uni1EEA" unicode="&#x1eea;" horiz-adv-x="767" 
d="M558 723h-120l-123 144h155zM922 741c0 -74 -62 -134 -136 -165l-67 -301c-35 -161 -128 -287 -343 -287c-218 0 -321 101 -321 244c0 8 3 32 5 42l87 393h205l-86 -388c-1 -5 -2 -14 -2 -24c1 -43 36 -91 112 -91c82 0 125 51 139 115l86 388h205l-5 -23
c15 10 30 23 38 37c-2 -1 -6 -1 -8 -1c-28 0 -53 18 -53 56c0 41 38 74 77 74c34 0 67 -24 67 -69z" />
    <glyph glyph-name="uni1EEC" unicode="&#x1eec;" horiz-adv-x="767" 
d="M463 747l-51 25c18 32 49 48 89 48c37 0 81 -20 81 -65c0 -19 -10 -43 -20 -58h-71c15 15 24 32 24 48c0 12 -9 21 -22 21c-12 0 -22 -7 -30 -19zM922 741c0 -74 -62 -134 -136 -165l-67 -301c-35 -161 -128 -287 -343 -287c-218 0 -321 101 -321 244c0 8 3 32 5 42
l87 393h205l-86 -388c-1 -5 -2 -14 -2 -24c1 -43 36 -91 112 -91c82 0 125 51 139 115l86 388h205l-5 -23c15 10 30 23 38 37c-2 -1 -6 -1 -8 -1c-28 0 -53 18 -53 56c0 41 38 74 77 74c34 0 67 -24 67 -69z" />
    <glyph glyph-name="uni1EEE" unicode="&#x1eee;" horiz-adv-x="767" 
d="M922 741c0 -74 -62 -134 -136 -165l-67 -301c-35 -161 -128 -287 -343 -287c-218 0 -321 101 -321 244c0 8 3 32 5 42l87 393h205l-86 -388c-1 -5 -2 -14 -2 -24c1 -43 36 -91 112 -91c82 0 125 51 139 115l86 388h205l-5 -23c15 10 30 23 38 37c-2 -1 -6 -1 -8 -1
c-28 0 -53 18 -53 56c0 41 38 74 77 74c34 0 67 -24 67 -69zM561 721c-67 0 -86 43 -123 43c-13 0 -23 -12 -28 -37h-90c18 92 50 134 127 134c67 0 87 -43 124 -43c13 0 22 12 28 37h90c-20 -92 -51 -134 -128 -134z" />
    <glyph glyph-name="uni1EF0" unicode="&#x1ef0;" horiz-adv-x="767" 
d="M391 -110c0 -52 -49 -99 -101 -99c-45 0 -79 34 -79 79c0 52 49 99 101 99c45 0 79 -34 79 -79zM922 741c0 -74 -62 -134 -136 -165l-67 -301c-35 -161 -128 -287 -343 -287c-218 0 -321 101 -321 244c0 8 3 32 5 42l87 393h205l-86 -388c-1 -5 -2 -14 -2 -24
c1 -43 36 -91 112 -91c82 0 125 51 139 115l86 388h205l-5 -23c15 10 30 23 38 37c-2 -1 -6 -1 -8 -1c-28 0 -53 18 -53 56c0 41 38 74 77 74c34 0 67 -24 67 -69z" />
    <glyph glyph-name="Wacute" unicode="&#x1e82;" horiz-adv-x="954" 
d="M812 867l-187 -144h-122l152 144h157zM721 0h-212l-3 378l-169 -378h-212l-44 667h221l-4 -408l191 408h152l11 -408l175 408h232z" />
    <glyph glyph-name="Wcircumflex" unicode="&#x174;" horiz-adv-x="954" 
d="M745 723h-103l-48 73l-77 -73h-107l120 144h156zM721 0h-212l-3 378l-169 -378h-212l-44 667h221l-4 -408l191 408h152l11 -408l175 408h232z" />
    <glyph glyph-name="Wdieresis" unicode="&#x1e84;" horiz-adv-x="954" 
d="M787 795c0 -52 -49 -99 -101 -99c-45 0 -79 34 -79 79c0 52 49 99 101 99c45 0 79 -34 79 -79zM571 795c0 -52 -49 -99 -101 -99c-45 0 -79 34 -79 79c0 52 49 99 101 99c45 0 79 -34 79 -79zM721 0h-212l-3 378l-169 -378h-212l-44 667h221l-4 -408l191 408h152l11 -408
l175 408h232z" />
    <glyph glyph-name="Wgrave" unicode="&#x1e80;" horiz-adv-x="954" 
d="M721 0h-212l-3 378l-169 -378h-212l-44 667h221l-4 -408l191 408h152l11 -408l175 408h232zM646 723h-120l-123 144h155z" />
    <glyph glyph-name="Yacute" unicode="&#xdd;" horiz-adv-x="664" 
d="M380 0h-202l58 265l-161 402h217l74 -225l172 225h237l-337 -402zM675 867l-187 -144h-122l152 144h157z" />
    <glyph glyph-name="Ycircumflex" unicode="&#x176;" horiz-adv-x="664" 
d="M607 723h-103l-48 73l-77 -73h-107l120 144h156zM380 0h-202l58 265l-161 402h217l74 -225l172 225h237l-337 -402z" />
    <glyph glyph-name="Ydieresis" unicode="&#x178;" horiz-adv-x="664" 
d="M651 795c0 -52 -49 -99 -101 -99c-45 0 -79 34 -79 79c0 52 49 99 101 99c45 0 79 -34 79 -79zM435 795c0 -52 -49 -99 -101 -99c-45 0 -79 34 -79 79c0 52 49 99 101 99c45 0 79 -34 79 -79zM380 0h-202l58 265l-161 402h217l74 -225l172 225h237l-337 -402z" />
    <glyph glyph-name="Ygrave" unicode="&#x1ef2;" horiz-adv-x="664" 
d="M380 0h-202l58 265l-161 402h217l74 -225l172 225h237l-337 -402zM509 723h-120l-123 144h155z" />
    <glyph glyph-name="Zacute" unicode="&#x179;" horiz-adv-x="600" 
d="M638 867l-187 -144h-122l152 144h157zM510 0h-528l35 160l317 331h-244l39 176h521l-35 -159l-318 -332h252z" />
    <glyph glyph-name="Zcaron" unicode="&#x17d;" horiz-adv-x="600" 
d="M482 723h-156l-59 144h103l48 -73l77 73h107zM510 0h-528l35 160l317 331h-244l39 176h521l-35 -159l-318 -332h252z" />
    <glyph glyph-name="Zdotaccent" unicode="&#x17b;" horiz-adv-x="600" 
d="M510 0h-528l35 160l317 331h-244l39 176h521l-35 -159l-318 -332h252zM506 796c0 -52 -49 -99 -101 -99c-45 0 -79 34 -79 79c0 52 49 99 101 99c45 0 79 -34 79 -79z" />
    <glyph glyph-name="Eth" unicode="&#xd0;" horiz-adv-x="757" 
d="M318 0h-297l56 254h-68l35 159h68l56 254h293c148 0 302 -111 302 -288c0 -169 -107 -379 -445 -379zM358 176c124 1 196 87 196 188c0 71 -52 127 -130 127h-93l-17 -78h128l-35 -159h-128l-17 -78h96z" />
    <glyph glyph-name="Thorn" unicode="&#xde;" horiz-adv-x="662" 
d="M202 0h-202l147 667h202l-21 -96h150c116 0 196 -93 196 -197c0 -114 -78 -260 -294 -260h-153zM389 290c44 0 76 27 76 61c0 29 -21 44 -55 44h-121l-23 -105h123z" />
    <glyph glyph-name="aacute" unicode="&#xe1;" 
d="M268 495c55 0 109 -20 140 -63l11 51h180l-107 -483h-180l12 51c-42 -46 -81 -63 -131 -63c-108 0 -180 71 -180 201c0 134 83 306 255 306zM300 336c-57 0 -101 -47 -101 -109c0 -48 37 -80 80 -80c28 0 52 12 73 33l28 123c-19 21 -48 33 -80 33zM599 700l-187 -144
h-122l152 144h157z" />
    <glyph glyph-name="abreve" unicode="&#x103;" 
d="M268 495c55 0 109 -20 140 -63l11 51h180l-107 -483h-180l12 51c-42 -46 -81 -63 -131 -63c-108 0 -180 71 -180 201c0 134 83 306 255 306zM300 336c-57 0 -101 -47 -101 -109c0 -48 37 -80 80 -80c28 0 52 12 73 33l28 123c-19 21 -48 33 -80 33zM547 612
c-52 -54 -122 -88 -194 -88c-71 0 -128 34 -157 88l86 62c15 -31 44 -53 88 -53c42 0 80 19 112 53z" />
    <glyph glyph-name="acircumflex" unicode="&#xe2;" 
d="M268 495c55 0 109 -20 140 -63l11 51h180l-107 -483h-180l12 51c-42 -46 -81 -63 -131 -63c-108 0 -180 71 -180 201c0 134 83 306 255 306zM300 336c-57 0 -101 -47 -101 -109c0 -48 37 -80 80 -80c28 0 52 12 73 33l28 123c-19 21 -48 33 -80 33zM528 556h-103l-48 73
l-77 -73h-107l120 144h156z" />
    <glyph glyph-name="adieresis" unicode="&#xe4;" 
d="M268 495c55 0 109 -20 140 -63l11 51h180l-107 -483h-180l12 51c-42 -46 -81 -63 -131 -63c-108 0 -180 71 -180 201c0 134 83 306 255 306zM300 336c-57 0 -101 -47 -101 -109c0 -48 37 -80 80 -80c28 0 52 12 73 33l28 123c-19 21 -48 33 -80 33zM572 628
c0 -52 -49 -99 -101 -99c-45 0 -79 34 -79 79c0 52 49 99 101 99c45 0 79 -34 79 -79zM356 628c0 -52 -49 -99 -101 -99c-45 0 -79 34 -79 79c0 52 49 99 101 99c45 0 79 -34 79 -79z" />
    <glyph glyph-name="agrave" unicode="&#xe0;" 
d="M268 495c55 0 109 -20 140 -63l11 51h180l-107 -483h-180l12 51c-42 -46 -81 -63 -131 -63c-108 0 -180 71 -180 201c0 134 83 306 255 306zM300 336c-57 0 -101 -47 -101 -109c0 -48 37 -80 80 -80c28 0 52 12 73 33l28 123c-19 21 -48 33 -80 33zM432 556h-120
l-123 144h155z" />
    <glyph glyph-name="amacron" unicode="&#x101;" 
d="M268 495c55 0 109 -20 140 -63l11 51h180l-107 -483h-180l12 51c-42 -46 -81 -63 -131 -63c-108 0 -180 71 -180 201c0 134 83 306 255 306zM300 336c-57 0 -101 -47 -101 -109c0 -48 37 -80 80 -80c28 0 52 12 73 33l28 123c-19 21 -48 33 -80 33zM542 551h-362l21 97
h362z" />
    <glyph glyph-name="aogonek" unicode="&#x105;" 
d="M472 -91l55 -49c-26 -29 -58 -46 -98 -46c-54 0 -105 26 -105 81c0 35 15 74 50 105h-62l12 51c-42 -46 -81 -63 -131 -63c-108 0 -180 71 -180 201c0 134 83 306 255 306c55 0 109 -20 140 -63l11 51h180l-107 -483c-58 -26 -86 -59 -86 -92c0 -16 11 -26 27 -26
s29 12 39 27zM300 336c-57 0 -101 -47 -101 -109c0 -48 37 -80 80 -80c28 0 52 12 73 33l28 123c-19 21 -48 33 -80 33z" />
    <glyph glyph-name="aring" unicode="&#xe5;" 
d="M268 495c55 0 109 -20 140 -63l11 51h180l-107 -483h-180l12 51c-42 -46 -81 -63 -131 -63c-108 0 -180 71 -180 201c0 134 83 306 255 306zM300 336c-57 0 -101 -47 -101 -109c0 -48 37 -80 80 -80c28 0 52 12 73 33l28 123c-19 21 -48 33 -80 33zM367 512
c-61 0 -102 41 -102 102c0 66 56 122 122 122c61 0 102 -41 102 -102c0 -66 -56 -122 -122 -122zM375 590c19 0 36 17 36 36s-13 32 -32 32s-36 -17 -36 -36s13 -32 32 -32z" />
    <glyph glyph-name="atilde" unicode="&#xe3;" 
d="M268 495c55 0 109 -20 140 -63l11 51h180l-107 -483h-180l12 51c-42 -46 -81 -63 -131 -63c-108 0 -180 71 -180 201c0 134 83 306 255 306zM300 336c-57 0 -101 -47 -101 -109c0 -48 37 -80 80 -80c28 0 52 12 73 33l28 123c-19 21 -48 33 -80 33zM434 554
c-67 0 -86 43 -123 43c-13 0 -23 -12 -28 -37h-90c18 92 50 134 127 134c67 0 87 -43 124 -43c13 0 22 12 28 37h90c-20 -92 -51 -134 -128 -134z" />
    <glyph glyph-name="uni1EA1" unicode="&#x1ea1;" 
d="M268 495c55 0 109 -20 140 -63l11 51h180l-107 -483h-180l12 51c-42 -46 -81 -63 -131 -63c-108 0 -180 71 -180 201c0 134 83 306 255 306zM300 336c-57 0 -101 -47 -101 -109c0 -48 37 -80 80 -80c28 0 52 12 73 33l28 123c-19 21 -48 33 -80 33zM301 -110
c0 -52 -49 -99 -101 -99c-45 0 -79 34 -79 79c0 52 49 99 101 99c45 0 79 -34 79 -79z" />
    <glyph glyph-name="uni1EA3" unicode="&#x1ea3;" 
d="M268 495c55 0 109 -20 140 -63l11 51h180l-107 -483h-180l12 51c-42 -46 -81 -63 -131 -63c-108 0 -180 71 -180 201c0 134 83 306 255 306zM300 336c-57 0 -101 -47 -101 -109c0 -48 37 -80 80 -80c28 0 52 12 73 33l28 123c-19 21 -48 33 -80 33zM334 577l-51 25
c18 32 49 48 89 48c37 0 81 -20 81 -65c0 -19 -10 -43 -20 -58h-71c15 15 24 32 24 48c0 12 -9 21 -22 21c-12 0 -22 -7 -30 -19z" />
    <glyph glyph-name="uni1EA5" unicode="&#x1ea5;" 
d="M268 495c55 0 109 -20 140 -63l11 51h180l-107 -483h-180l12 51c-42 -46 -81 -63 -131 -63c-108 0 -180 71 -180 201c0 134 83 306 255 306zM300 336c-57 0 -101 -47 -101 -109c0 -48 37 -80 80 -80c28 0 52 12 73 33l28 123c-19 21 -48 33 -80 33zM529 556h-103l-48 73
l-77 -73h-107l120 144h156zM814 770l-187 -144h-122l152 144h157z" />
    <glyph glyph-name="uni1EAD" unicode="&#x1ead;" 
d="M268 495c55 0 109 -20 140 -63l11 51h180l-107 -483h-180l12 51c-42 -46 -81 -63 -131 -63c-108 0 -180 71 -180 201c0 134 83 306 255 306zM300 336c-57 0 -101 -47 -101 -109c0 -48 37 -80 80 -80c28 0 52 12 73 33l28 123c-19 21 -48 33 -80 33zM529 556h-103l-48 73
l-77 -73h-107l120 144h156zM301 -110c0 -52 -49 -99 -101 -99c-45 0 -79 34 -79 79c0 52 49 99 101 99c45 0 79 -34 79 -79z" />
    <glyph glyph-name="uni1EA7" unicode="&#x1ea7;" 
d="M268 495c55 0 109 -20 140 -63l11 51h180l-107 -483h-180l12 51c-42 -46 -81 -63 -131 -63c-108 0 -180 71 -180 201c0 134 83 306 255 306zM300 336c-57 0 -101 -47 -101 -109c0 -48 37 -80 80 -80c28 0 52 12 73 33l28 123c-19 21 -48 33 -80 33zM529 556h-103l-48 73
l-77 -73h-107l120 144h156zM247 626h-120l-123 144h155z" />
    <glyph glyph-name="uni1EA9" unicode="&#x1ea9;" 
d="M268 495c55 0 109 -20 140 -63l11 51h180l-107 -483h-180l12 51c-42 -46 -81 -63 -131 -63c-108 0 -180 71 -180 201c0 134 83 306 255 306zM300 336c-57 0 -101 -47 -101 -109c0 -48 37 -80 80 -80c28 0 52 12 73 33l28 123c-19 21 -48 33 -80 33zM529 556h-103l-48 73
l-77 -73h-107l120 144h156zM474 717l-51 25c18 32 49 48 89 48c37 0 81 -20 81 -65c0 -19 -10 -43 -20 -58h-71c15 15 24 32 24 48c0 12 -9 21 -22 21c-12 0 -22 -7 -30 -19z" />
    <glyph glyph-name="uni1EAF" unicode="&#x1eaf;" 
d="M268 495c55 0 109 -20 140 -63l11 51h180l-107 -483h-180l12 51c-42 -46 -81 -63 -131 -63c-108 0 -180 71 -180 201c0 134 83 306 255 306zM300 336c-57 0 -101 -47 -101 -109c0 -48 37 -80 80 -80c28 0 52 12 73 33l28 123c-19 21 -48 33 -80 33zM617 790l-187 -144
h-122l152 144h157zM544 599c-52 -54 -122 -88 -194 -88c-71 0 -128 34 -157 88l86 62c15 -31 44 -53 88 -53c42 0 80 19 112 53z" />
    <glyph glyph-name="uni1EAB" unicode="&#x1eab;" 
d="M268 495c55 0 109 -20 140 -63l11 51h180l-107 -483h-180l12 51c-42 -46 -81 -63 -131 -63c-108 0 -180 71 -180 201c0 134 83 306 255 306zM300 336c-57 0 -101 -47 -101 -109c0 -48 37 -80 80 -80c28 0 52 12 73 33l28 123c-19 21 -48 33 -80 33zM521 523h-103l-48 73
l-77 -73h-107l120 144h156zM462 682c-67 0 -86 43 -123 43c-13 0 -23 -12 -28 -37h-90c18 92 50 134 127 134c67 0 87 -43 124 -43c13 0 22 12 28 37h90c-20 -92 -51 -134 -128 -134z" />
    <glyph glyph-name="uni1EB1" unicode="&#x1eb1;" 
d="M268 495c55 0 109 -20 140 -63l11 51h180l-107 -483h-180l12 51c-42 -46 -81 -63 -131 -63c-108 0 -180 71 -180 201c0 134 83 306 255 306zM300 336c-57 0 -101 -47 -101 -109c0 -48 37 -80 80 -80c28 0 52 12 73 33l28 123c-19 21 -48 33 -80 33zM448 651h-120
l-123 144h155zM544 599c-52 -54 -122 -88 -194 -88c-71 0 -128 34 -157 88l86 62c15 -31 44 -53 88 -53c42 0 80 19 112 53z" />
    <glyph glyph-name="uni1EB3" unicode="&#x1eb3;" 
d="M268 495c55 0 109 -20 140 -63l11 51h180l-107 -483h-180l12 51c-42 -46 -81 -63 -131 -63c-108 0 -180 71 -180 201c0 134 83 306 255 306zM300 336c-57 0 -101 -47 -101 -109c0 -48 37 -80 80 -80c28 0 52 12 73 33l28 123c-19 21 -48 33 -80 33zM352 712l-51 25
c18 32 49 48 89 48c37 0 81 -20 81 -65c0 -19 -10 -43 -20 -58h-71c15 15 24 32 24 48c0 12 -9 21 -22 21c-12 0 -22 -7 -30 -19zM544 599c-52 -54 -122 -88 -194 -88c-71 0 -128 34 -157 88l86 62c15 -31 44 -53 88 -53c42 0 80 19 112 53z" />
    <glyph glyph-name="uni1EB5" unicode="&#x1eb5;" 
d="M268 495c55 0 109 -20 140 -63l11 51h180l-107 -483h-180l12 51c-42 -46 -81 -63 -131 -63c-108 0 -180 71 -180 201c0 134 83 306 255 306zM300 336c-57 0 -101 -47 -101 -109c0 -48 37 -80 80 -80c28 0 52 12 73 33l28 123c-19 21 -48 33 -80 33zM544 599
c-52 -54 -122 -88 -194 -88c-71 0 -128 34 -157 88l86 62c15 -31 44 -53 88 -53c42 0 80 19 112 53zM460 677c-67 0 -86 43 -123 43c-13 0 -23 -12 -28 -37h-90c18 92 50 134 127 134c67 0 87 -43 124 -43c13 0 22 12 28 37h90c-20 -92 -51 -134 -128 -134z" />
    <glyph glyph-name="uni1EB7" unicode="&#x1eb7;" 
d="M268 495c55 0 109 -20 140 -63l11 51h180l-107 -483h-180l12 51c-42 -46 -81 -63 -131 -63c-108 0 -180 71 -180 201c0 134 83 306 255 306zM300 336c-57 0 -101 -47 -101 -109c0 -48 37 -80 80 -80c28 0 52 12 73 33l28 123c-19 21 -48 33 -80 33zM302 -110
c0 -52 -49 -99 -101 -99c-45 0 -79 34 -79 79c0 52 49 99 101 99c45 0 79 -34 79 -79zM547 612c-52 -54 -122 -88 -194 -88c-71 0 -128 34 -157 88l86 62c15 -31 44 -53 88 -53c42 0 80 19 112 53z" />
    <glyph glyph-name="ae" unicode="&#xe6;" horiz-adv-x="890" 
d="M300 336c-57 0 -101 -47 -101 -109c0 -48 37 -80 80 -80c28 0 52 12 73 33l28 123c-19 21 -48 33 -80 33zM503 50l-11 -50h-180l12 51c-42 -46 -81 -63 -131 -63c-108 0 -180 71 -180 201c0 134 83 306 255 306c55 0 109 -20 140 -63l11 51h180l-8 -34
c33 28 73 46 118 46c103 0 166 -59 166 -206c0 -37 -7 -85 -12 -103h-324v-1c0 -7 35 -56 111 -56c35 0 73 9 95 24l54 -121c-49 -31 -107 -44 -146 -44c-75 0 -126 27 -150 62zM559 300h158v1c0 17 -18 57 -75 57c-48 0 -77 -37 -83 -58z" />
    <glyph glyph-name="aeacute" unicode="&#x1fd;" horiz-adv-x="890" 
d="M766 700l-187 -144h-122l152 144h157zM300 336c-57 0 -101 -47 -101 -109c0 -48 37 -80 80 -80c28 0 52 12 73 33l28 123c-19 21 -48 33 -80 33zM503 50l-11 -50h-180l12 51c-42 -46 -81 -63 -131 -63c-108 0 -180 71 -180 201c0 134 83 306 255 306
c55 0 109 -20 140 -63l11 51h180l-8 -34c33 28 73 46 118 46c103 0 166 -59 166 -206c0 -37 -7 -85 -12 -103h-324v-1c0 -7 35 -56 111 -56c35 0 73 9 95 24l54 -121c-49 -31 -107 -44 -146 -44c-75 0 -126 27 -150 62zM559 300h158v1c0 17 -18 57 -75 57
c-48 0 -77 -37 -83 -58z" />
    <glyph glyph-name="aacute.alt1" horiz-adv-x="559" 
d="M581 700l-187 -144h-122l152 144h157zM467 0h-180l10 46c-30 -34 -78 -58 -138 -58c-81 0 -156 47 -156 140c0 108 81 173 177 173c63 0 114 -16 160 -57l7 29c1 4 3 18 3 23c0 36 -43 58 -98 58c-45 0 -86 -11 -125 -34l-38 123c58 35 130 52 203 52
c124 0 241 -44 241 -169c0 -10 -4 -43 -7 -58zM245 105c34 0 58 11 70 24l6 26c-13 16 -42 29 -77 29c-38 0 -59 -16 -59 -42c0 -23 20 -37 60 -37z" />
    <glyph glyph-name="abreve.alt1" horiz-adv-x="559" 
d="M467 0h-180l10 46c-30 -34 -78 -58 -138 -58c-81 0 -156 47 -156 140c0 108 81 173 177 173c63 0 114 -16 160 -57l7 29c1 4 3 18 3 23c0 36 -43 58 -98 58c-45 0 -86 -11 -125 -34l-38 123c58 35 130 52 203 52c124 0 241 -44 241 -169c0 -10 -4 -43 -7 -58zM245 105
c34 0 58 11 70 24l6 26c-13 16 -42 29 -77 29c-38 0 -59 -16 -59 -42c0 -23 20 -37 60 -37zM531 612c-52 -54 -122 -88 -194 -88c-71 0 -128 34 -157 88l86 62c15 -31 44 -53 88 -53c42 0 80 19 112 53z" />
    <glyph glyph-name="acircumflex.alt1" horiz-adv-x="559" 
d="M512 556h-103l-48 73l-77 -73h-107l120 144h156zM467 0h-180l10 46c-30 -34 -78 -58 -138 -58c-81 0 -156 47 -156 140c0 108 81 173 177 173c63 0 114 -16 160 -57l7 29c1 4 3 18 3 23c0 36 -43 58 -98 58c-45 0 -86 -11 -125 -34l-38 123c58 35 130 52 203 52
c124 0 241 -44 241 -169c0 -10 -4 -43 -7 -58zM245 105c34 0 58 11 70 24l6 26c-13 16 -42 29 -77 29c-38 0 -59 -16 -59 -42c0 -23 20 -37 60 -37z" />
    <glyph glyph-name="adieresis.alt1" horiz-adv-x="559" 
d="M556 628c0 -52 -49 -99 -101 -99c-45 0 -79 34 -79 79c0 52 49 99 101 99c45 0 79 -34 79 -79zM340 628c0 -52 -49 -99 -101 -99c-45 0 -79 34 -79 79c0 52 49 99 101 99c45 0 79 -34 79 -79zM467 0h-180l10 46c-30 -34 -78 -58 -138 -58c-81 0 -156 47 -156 140
c0 108 81 173 177 173c63 0 114 -16 160 -57l7 29c1 4 3 18 3 23c0 36 -43 58 -98 58c-45 0 -86 -11 -125 -34l-38 123c58 35 130 52 203 52c124 0 241 -44 241 -169c0 -10 -4 -43 -7 -58zM245 105c34 0 58 11 70 24l6 26c-13 16 -42 29 -77 29c-38 0 -59 -16 -59 -42
c0 -23 20 -37 60 -37z" />
    <glyph glyph-name="agrave.alt1" horiz-adv-x="559" 
d="M467 0h-180l10 46c-30 -34 -78 -58 -138 -58c-81 0 -156 47 -156 140c0 108 81 173 177 173c63 0 114 -16 160 -57l7 29c1 4 3 18 3 23c0 36 -43 58 -98 58c-45 0 -86 -11 -125 -34l-38 123c58 35 130 52 203 52c124 0 241 -44 241 -169c0 -10 -4 -43 -7 -58zM245 105
c34 0 58 11 70 24l6 26c-13 16 -42 29 -77 29c-38 0 -59 -16 -59 -42c0 -23 20 -37 60 -37zM415 556h-120l-123 144h155z" />
    <glyph glyph-name="amacron.alt1" horiz-adv-x="559" 
d="M526 551h-362l21 97h362zM467 0h-180l10 46c-30 -34 -78 -58 -138 -58c-81 0 -156 47 -156 140c0 108 81 173 177 173c63 0 114 -16 160 -57l7 29c1 4 3 18 3 23c0 36 -43 58 -98 58c-45 0 -86 -11 -125 -34l-38 123c58 35 130 52 203 52c124 0 241 -44 241 -169
c0 -10 -4 -43 -7 -58zM245 105c34 0 58 11 70 24l6 26c-13 16 -42 29 -77 29c-38 0 -59 -16 -59 -42c0 -23 20 -37 60 -37z" />
    <glyph glyph-name="aogonek.alt1" horiz-adv-x="559" 
d="M467 0c-58 -26 -86 -59 -86 -92c0 -16 11 -26 27 -26s29 12 39 27l55 -49c-26 -29 -58 -46 -98 -46c-54 0 -105 26 -105 81c0 35 15 74 50 105h-62l10 46c-30 -34 -78 -58 -138 -58c-81 0 -156 47 -156 140c0 108 81 173 177 173c63 0 114 -16 160 -57l7 29
c1 4 3 18 3 23c0 36 -43 58 -98 58c-45 0 -86 -11 -125 -34l-38 123c58 35 130 52 203 52c124 0 241 -44 241 -169c0 -10 -4 -43 -7 -58zM245 105c34 0 58 11 70 24l6 26c-13 16 -42 29 -77 29c-38 0 -59 -16 -59 -42c0 -23 20 -37 60 -37z" />
    <glyph glyph-name="aring.alt1" horiz-adv-x="559" 
d="M351 519c-61 0 -102 41 -102 102c0 66 56 122 122 122c61 0 102 -41 102 -102c0 -66 -56 -122 -122 -122zM359 597c19 0 36 17 36 36s-13 32 -32 32s-36 -17 -36 -36s13 -32 32 -32zM467 0h-180l10 46c-30 -34 -78 -58 -138 -58c-81 0 -156 47 -156 140
c0 108 81 173 177 173c63 0 114 -16 160 -57l7 29c1 4 3 18 3 23c0 36 -43 58 -98 58c-45 0 -86 -11 -125 -34l-38 123c58 35 130 52 203 52c124 0 241 -44 241 -169c0 -10 -4 -43 -7 -58zM245 105c34 0 58 11 70 24l6 26c-13 16 -42 29 -77 29c-38 0 -59 -16 -59 -42
c0 -23 20 -37 60 -37z" />
    <glyph glyph-name="atilde.alt1" horiz-adv-x="559" 
d="M467 0h-180l10 46c-30 -34 -78 -58 -138 -58c-81 0 -156 47 -156 140c0 108 81 173 177 173c63 0 114 -16 160 -57l7 29c1 4 3 18 3 23c0 36 -43 58 -98 58c-45 0 -86 -11 -125 -34l-38 123c58 35 130 52 203 52c124 0 241 -44 241 -169c0 -10 -4 -43 -7 -58zM245 105
c34 0 58 11 70 24l6 26c-13 16 -42 29 -77 29c-38 0 -59 -16 -59 -42c0 -23 20 -37 60 -37zM417 554c-67 0 -86 43 -123 43c-13 0 -23 -12 -28 -37h-90c18 92 50 134 127 134c67 0 87 -43 124 -43c13 0 22 12 28 37h90c-20 -92 -51 -134 -128 -134z" />
    <glyph glyph-name="uni1EA1.alt1" horiz-adv-x="559" 
d="M467 0h-180l10 46c-30 -34 -78 -58 -138 -58c-81 0 -156 47 -156 140c0 108 81 173 177 173c63 0 114 -16 160 -57l7 29c1 4 3 18 3 23c0 36 -43 58 -98 58c-45 0 -86 -11 -125 -34l-38 123c58 35 130 52 203 52c124 0 241 -44 241 -169c0 -10 -4 -43 -7 -58zM245 105
c34 0 58 11 70 24l6 26c-13 16 -42 29 -77 29c-38 0 -59 -16 -59 -42c0 -23 20 -37 60 -37zM286 -110c0 -52 -49 -99 -101 -99c-45 0 -79 34 -79 79c0 52 49 99 101 99c45 0 79 -34 79 -79z" />
    <glyph glyph-name="uni1EA3.alt1" horiz-adv-x="559" 
d="M467 0h-180l10 46c-30 -34 -78 -58 -138 -58c-81 0 -156 47 -156 140c0 108 81 173 177 173c63 0 114 -16 160 -57l7 29c1 4 3 18 3 23c0 36 -43 58 -98 58c-45 0 -86 -11 -125 -34l-38 123c58 35 130 52 203 52c124 0 241 -44 241 -169c0 -10 -4 -43 -7 -58zM245 105
c34 0 58 11 70 24l6 26c-13 16 -42 29 -77 29c-38 0 -59 -16 -59 -42c0 -23 20 -37 60 -37zM316 567l-51 25c18 32 49 48 89 48c37 0 81 -20 81 -65c0 -19 -10 -43 -20 -58h-71c15 15 24 32 24 48c0 12 -9 21 -22 21c-12 0 -22 -7 -30 -19z" />
    <glyph glyph-name="uni1EA5.alt1" horiz-adv-x="559" 
d="M512 556h-103l-48 73l-77 -73h-107l120 144h156zM797 770l-187 -144h-122l152 144h157zM467 0h-180l10 46c-30 -34 -78 -58 -138 -58c-81 0 -156 47 -156 140c0 108 81 173 177 173c63 0 114 -16 160 -57l7 29c1 4 3 18 3 23c0 36 -43 58 -98 58c-45 0 -86 -11 -125 -34
l-38 123c58 35 130 52 203 52c124 0 241 -44 241 -169c0 -10 -4 -43 -7 -58zM245 105c34 0 58 11 70 24l6 26c-13 16 -42 29 -77 29c-38 0 -59 -16 -59 -42c0 -23 20 -37 60 -37z" />
    <glyph glyph-name="uni1EAD.alt1" horiz-adv-x="559" 
d="M512 556h-103l-48 73l-77 -73h-107l120 144h156zM467 0h-180l10 46c-30 -34 -78 -58 -138 -58c-81 0 -156 47 -156 140c0 108 81 173 177 173c63 0 114 -16 160 -57l7 29c1 4 3 18 3 23c0 36 -43 58 -98 58c-45 0 -86 -11 -125 -34l-38 123c58 35 130 52 203 52
c124 0 241 -44 241 -169c0 -10 -4 -43 -7 -58zM245 105c34 0 58 11 70 24l6 26c-13 16 -42 29 -77 29c-38 0 -59 -16 -59 -42c0 -23 20 -37 60 -37zM286 -110c0 -52 -49 -99 -101 -99c-45 0 -79 34 -79 79c0 52 49 99 101 99c45 0 79 -34 79 -79z" />
    <glyph glyph-name="uni1EA7.alt1" horiz-adv-x="559" 
d="M512 556h-103l-48 73l-77 -73h-107l120 144h156zM467 0h-180l10 46c-30 -34 -78 -58 -138 -58c-81 0 -156 47 -156 140c0 108 81 173 177 173c63 0 114 -16 160 -57l7 29c1 4 3 18 3 23c0 36 -43 58 -98 58c-45 0 -86 -11 -125 -34l-38 123c58 35 130 52 203 52
c124 0 241 -44 241 -169c0 -10 -4 -43 -7 -58zM245 105c34 0 58 11 70 24l6 26c-13 16 -42 29 -77 29c-38 0 -59 -16 -59 -42c0 -23 20 -37 60 -37zM230 626h-120l-123 144h155z" />
    <glyph glyph-name="uni1EA9.alt1" horiz-adv-x="559" 
d="M512 556h-103l-48 73l-77 -73h-107l120 144h156zM467 0h-180l10 46c-30 -34 -78 -58 -138 -58c-81 0 -156 47 -156 140c0 108 81 173 177 173c63 0 114 -16 160 -57l7 29c1 4 3 18 3 23c0 36 -43 58 -98 58c-45 0 -86 -11 -125 -34l-38 123c58 35 130 52 203 52
c124 0 241 -44 241 -169c0 -10 -4 -43 -7 -58zM245 105c34 0 58 11 70 24l6 26c-13 16 -42 29 -77 29c-38 0 -59 -16 -59 -42c0 -23 20 -37 60 -37zM457 717l-51 25c18 32 49 48 89 48c37 0 81 -20 81 -65c0 -19 -10 -43 -20 -58h-71c15 15 24 32 24 48c0 12 -9 21 -22 21
c-12 0 -22 -7 -30 -19z" />
    <glyph glyph-name="uni1EAF.alt1" horiz-adv-x="559" 
d="M604 790l-187 -144h-122l152 144h157zM467 0h-180l10 46c-30 -34 -78 -58 -138 -58c-81 0 -156 47 -156 140c0 108 81 173 177 173c63 0 114 -16 160 -57l7 29c1 4 3 18 3 23c0 36 -43 58 -98 58c-45 0 -86 -11 -125 -34l-38 123c58 35 130 52 203 52
c124 0 241 -44 241 -169c0 -10 -4 -43 -7 -58zM245 105c34 0 58 11 70 24l6 26c-13 16 -42 29 -77 29c-38 0 -59 -16 -59 -42c0 -23 20 -37 60 -37zM528 599c-52 -54 -122 -88 -194 -88c-71 0 -128 34 -157 88l86 62c15 -31 44 -53 88 -53c42 0 80 19 112 53z" />
    <glyph glyph-name="uni1EAB.alt1" horiz-adv-x="559" 
d="M505 523h-103l-48 73l-77 -73h-107l120 144h156zM467 0h-180l10 46c-30 -34 -78 -58 -138 -58c-81 0 -156 47 -156 140c0 108 81 173 177 173c63 0 114 -16 160 -57l7 29c1 4 3 18 3 23c0 36 -43 58 -98 58c-45 0 -86 -11 -125 -34l-38 123c58 35 130 52 203 52
c124 0 241 -44 241 -169c0 -10 -4 -43 -7 -58zM245 105c34 0 58 11 70 24l6 26c-13 16 -42 29 -77 29c-38 0 -59 -16 -59 -42c0 -23 20 -37 60 -37zM445 682c-67 0 -86 43 -123 43c-13 0 -23 -12 -28 -37h-90c18 92 50 134 127 134c67 0 87 -43 124 -43c13 0 22 12 28 37h90
c-20 -92 -51 -134 -128 -134z" />
    <glyph glyph-name="uni1EB1.alt1" horiz-adv-x="559" 
d="M467 0h-180l10 46c-30 -34 -78 -58 -138 -58c-81 0 -156 47 -156 140c0 108 81 173 177 173c63 0 114 -16 160 -57l7 29c1 4 3 18 3 23c0 36 -43 58 -98 58c-45 0 -86 -11 -125 -34l-38 123c58 35 130 52 203 52c124 0 241 -44 241 -169c0 -10 -4 -43 -7 -58zM245 105
c34 0 58 11 70 24l6 26c-13 16 -42 29 -77 29c-38 0 -59 -16 -59 -42c0 -23 20 -37 60 -37zM431 651h-120l-123 144h155zM528 599c-52 -54 -122 -88 -194 -88c-71 0 -128 34 -157 88l86 62c15 -31 44 -53 88 -53c42 0 80 19 112 53z" />
    <glyph glyph-name="uni1EB3.alt1" horiz-adv-x="559" 
d="M467 0h-180l10 46c-30 -34 -78 -58 -138 -58c-81 0 -156 47 -156 140c0 108 81 173 177 173c63 0 114 -16 160 -57l7 29c1 4 3 18 3 23c0 36 -43 58 -98 58c-45 0 -86 -11 -125 -34l-38 123c58 35 130 52 203 52c124 0 241 -44 241 -169c0 -10 -4 -43 -7 -58zM245 105
c34 0 58 11 70 24l6 26c-13 16 -42 29 -77 29c-38 0 -59 -16 -59 -42c0 -23 20 -37 60 -37zM325 707l-51 25c18 32 49 48 89 48c37 0 81 -20 81 -65c0 -19 -10 -43 -20 -58h-71c15 15 24 32 24 48c0 12 -9 21 -22 21c-12 0 -22 -7 -30 -19zM528 599
c-52 -54 -122 -88 -194 -88c-71 0 -128 34 -157 88l86 62c15 -31 44 -53 88 -53c42 0 80 19 112 53z" />
    <glyph glyph-name="uni1EB5.alt1" horiz-adv-x="559" 
d="M528 599c-52 -54 -122 -88 -194 -88c-71 0 -128 34 -157 88l86 62c15 -31 44 -53 88 -53c42 0 80 19 112 53zM467 0h-180l10 46c-30 -34 -78 -58 -138 -58c-81 0 -156 47 -156 140c0 108 81 173 177 173c63 0 114 -16 160 -57l7 29c1 4 3 18 3 23c0 36 -43 58 -98 58
c-45 0 -86 -11 -125 -34l-38 123c58 35 130 52 203 52c124 0 241 -44 241 -169c0 -10 -4 -43 -7 -58zM245 105c34 0 58 11 70 24l6 26c-13 16 -42 29 -77 29c-38 0 -59 -16 -59 -42c0 -23 20 -37 60 -37zM444 677c-67 0 -86 43 -123 43c-13 0 -23 -12 -28 -37h-90
c18 92 50 134 127 134c67 0 87 -43 124 -43c13 0 22 12 28 37h90c-20 -92 -51 -134 -128 -134z" />
    <glyph glyph-name="uni1EB7.alt1" horiz-adv-x="559" 
d="M467 0h-180l10 46c-30 -34 -78 -58 -138 -58c-81 0 -156 47 -156 140c0 108 81 173 177 173c63 0 114 -16 160 -57l7 29c1 4 3 18 3 23c0 36 -43 58 -98 58c-45 0 -86 -11 -125 -34l-38 123c58 35 130 52 203 52c124 0 241 -44 241 -169c0 -10 -4 -43 -7 -58zM245 105
c34 0 58 11 70 24l6 26c-13 16 -42 29 -77 29c-38 0 -59 -16 -59 -42c0 -23 20 -37 60 -37zM286 -110c0 -52 -49 -99 -101 -99c-45 0 -79 34 -79 79c0 52 49 99 101 99c45 0 79 -34 79 -79zM531 612c-52 -54 -122 -88 -194 -88c-71 0 -128 34 -157 88l86 62
c15 -31 44 -53 88 -53c42 0 80 19 112 53z" />
    <glyph glyph-name="ae.alt1" horiz-adv-x="865" 
d="M839 186h-320v-2c0 -9 35 -59 99 -59c27 0 74 5 102 24l54 -117c-40 -28 -89 -44 -152 -44c-98 0 -162 27 -210 76c-61 -54 -126 -76 -215 -76c-104 0 -194 44 -194 140c0 111 86 173 177 173c65 0 130 -23 165 -57l8 35c2 8 2 13 2 17c0 35 -40 58 -97 58
c-45 0 -91 -11 -131 -34l-38 123c59 36 133 52 206 52c78 0 136 -24 164 -78c44 44 101 78 185 78c105 0 206 -67 206 -220c0 -33 -8 -75 -11 -89zM537 299h154v2c0 19 -27 57 -69 57c-53 0 -76 -34 -85 -59zM325 151l1 4c-14 18 -51 29 -79 29c-30 0 -62 -11 -62 -37
c0 -20 27 -32 63 -32c28 0 72 14 77 36z" />
    <glyph glyph-name="aeacute.alt1" horiz-adv-x="865" 
d="M839 186h-320v-2c0 -9 35 -59 99 -59c27 0 74 5 102 24l54 -117c-40 -28 -89 -44 -152 -44c-98 0 -162 27 -210 76c-61 -54 -126 -76 -215 -76c-104 0 -194 44 -194 140c0 111 86 173 177 173c65 0 130 -23 165 -57l8 35c2 8 2 13 2 17c0 35 -40 58 -97 58
c-45 0 -91 -11 -131 -34l-38 123c59 36 133 52 206 52c78 0 136 -24 164 -78c44 44 101 78 185 78c105 0 206 -67 206 -220c0 -33 -8 -75 -11 -89zM537 299h154v2c0 19 -27 57 -69 57c-53 0 -76 -34 -85 -59zM325 151l1 4c-14 18 -51 29 -79 29c-30 0 -62 -11 -62 -37
c0 -20 27 -32 63 -32c28 0 72 14 77 36zM738 700l-187 -144h-122l152 144h157z" />
    <glyph glyph-name="uni1E03" unicode="&#x1e03;" 
d="M327 -12c-55 0 -109 20 -140 63l-11 -51h-180l147 667h180l-52 -235c42 46 81 63 131 63c108 0 180 -71 180 -201c0 -134 -83 -306 -255 -306zM295 147c57 0 101 47 101 109c0 48 -37 80 -80 80c-28 0 -52 -12 -73 -33l-28 -123c19 -21 48 -33 80 -33zM516 796
c0 -52 -49 -99 -101 -99c-45 0 -79 34 -79 79c0 52 49 99 101 99c45 0 79 -34 79 -79z" />
    <glyph glyph-name="cacute" unicode="&#x107;" horiz-adv-x="502" 
d="M601 700l-187 -144h-122l152 144h157zM268 -12c-158 0 -253 96 -253 224c0 159 127 283 291 283c110 0 179 -46 212 -100l-134 -103c-14 24 -42 44 -80 44c-62 0 -107 -47 -107 -112c0 -47 41 -77 89 -77c33 0 62 17 81 39l96 -119c-32 -35 -101 -79 -195 -79z" />
    <glyph glyph-name="ccedilla" unicode="&#xe7;" horiz-adv-x="502" 
d="M215 -200c-58 0 -107 21 -130 44l43 60c25 -21 55 -36 86 -36c21 0 38 7 38 24c0 9 -7 17 -22 17c-11 0 -18 -5 -24 -12l-52 34l39 65c-113 25 -178 110 -178 216c0 159 127 283 291 283c110 0 179 -46 212 -100l-134 -103c-14 24 -42 44 -80 44
c-62 0 -107 -47 -107 -112c0 -47 41 -77 89 -77c33 0 62 17 81 39l96 -119c-32 -35 -101 -79 -195 -79h-1l-23 -35c10 7 17 9 29 9c33 0 60 -25 60 -65c0 -61 -54 -97 -118 -97z" />
    <glyph glyph-name="ccircumflex" unicode="&#x109;" horiz-adv-x="502" 
d="M533 556h-103l-48 73l-77 -73h-107l120 144h156zM268 -12c-158 0 -253 96 -253 224c0 159 127 283 291 283c110 0 179 -46 212 -100l-134 -103c-14 24 -42 44 -80 44c-62 0 -107 -47 -107 -112c0 -47 41 -77 89 -77c33 0 62 17 81 39l96 -119c-32 -35 -101 -79 -195 -79z
" />
    <glyph glyph-name="cdotaccent" unicode="&#x10b;" horiz-adv-x="502" 
d="M268 -12c-158 0 -253 96 -253 224c0 159 127 283 291 283c110 0 179 -46 212 -100l-134 -103c-14 24 -42 44 -80 44c-62 0 -107 -47 -107 -112c0 -47 41 -77 89 -77c33 0 62 17 81 39l96 -119c-32 -35 -101 -79 -195 -79zM470 629c0 -52 -49 -99 -101 -99
c-45 0 -79 34 -79 79c0 52 49 99 101 99c45 0 79 -34 79 -79z" />
    <glyph glyph-name="ccaron" unicode="&#x10d;" horiz-adv-x="502" 
d="M445 556h-156l-59 144h103l48 -73l77 73h107zM268 -12c-158 0 -253 96 -253 224c0 159 127 283 291 283c110 0 179 -46 212 -100l-134 -103c-14 24 -42 44 -80 44c-62 0 -107 -47 -107 -112c0 -47 41 -77 89 -77c33 0 62 17 81 39l96 -119c-32 -35 -101 -79 -195 -79z
" />
    <glyph glyph-name="dcaron" unicode="&#x10f;" horiz-adv-x="736" 
d="M818 601c0 -67 -55 -141 -133 -178l-45 46c26 11 68 35 84 63c-2 -1 -8 -1 -10 -1c-32 0 -60 21 -60 64c0 46 44 85 88 85c39 0 76 -27 76 -79zM268 495c55 0 109 -20 140 -63l52 235h180l-148 -667h-180l12 51c-42 -46 -81 -63 -131 -63c-108 0 -180 71 -180 201
c0 134 83 306 255 306zM300 336c-57 0 -101 -47 -101 -109c0 -48 37 -80 80 -80c28 0 52 12 73 33l28 123c-19 21 -48 33 -80 33z" />
    <glyph glyph-name="dcroat" unicode="&#x111;" horiz-adv-x="602" 
d="M268 495c55 0 109 -20 140 -63l19 89h-133l21 97h134l11 49h180l-11 -49h48l-21 -97h-49l-115 -521h-180l12 51c-42 -46 -81 -63 -131 -63c-108 0 -180 71 -180 201c0 134 83 306 255 306zM300 336c-57 0 -101 -47 -101 -109c0 -48 37 -80 80 -80c28 0 52 12 73 33
l28 123c-19 21 -48 33 -80 33z" />
    <glyph glyph-name="uni1E0B" unicode="&#x1e0b;" 
d="M268 495c55 0 109 -20 140 -63l52 235h180l-148 -667h-180l12 51c-42 -46 -81 -63 -131 -63c-108 0 -180 71 -180 201c0 134 83 306 255 306zM300 336c-57 0 -101 -47 -101 -109c0 -48 37 -80 80 -80c28 0 52 12 73 33l28 123c-19 21 -48 33 -80 33zM502 796
c0 -52 -49 -99 -101 -99c-45 0 -79 34 -79 79c0 52 49 99 101 99c45 0 79 -34 79 -79z" />
    <glyph glyph-name="eacute" unicode="&#xe9;" horiz-adv-x="543" 
d="M596 700l-187 -144h-122l152 144h157zM279 -12c-156 0 -264 78 -264 220c0 154 118 287 287 287c120 0 226 -73 226 -220c0 -33 -6 -71 -11 -89h-324v-1c0 -7 29 -60 99 -60c38 0 83 9 105 24l55 -117c-49 -31 -115 -44 -173 -44zM210 300h159v3c0 14 -17 55 -74 55
c-48 0 -79 -37 -85 -58z" />
    <glyph glyph-name="ebreve" unicode="&#x115;" horiz-adv-x="543" 
d="M279 -12c-156 0 -264 78 -264 220c0 154 118 287 287 287c120 0 226 -73 226 -220c0 -33 -6 -71 -11 -89h-324v-1c0 -7 29 -60 99 -60c38 0 83 9 105 24l55 -117c-49 -31 -115 -44 -173 -44zM210 300h159v3c0 14 -17 55 -74 55c-48 0 -79 -37 -85 -58zM545 612
c-52 -54 -122 -88 -194 -88c-71 0 -128 34 -157 88l86 62c15 -31 44 -53 88 -53c42 0 80 19 112 53z" />
    <glyph glyph-name="ecircumflex" unicode="&#xea;" horiz-adv-x="543" 
d="M527 556h-103l-48 73l-77 -73h-107l120 144h156zM279 -12c-156 0 -264 78 -264 220c0 154 118 287 287 287c120 0 226 -73 226 -220c0 -33 -6 -71 -11 -89h-324v-1c0 -7 29 -60 99 -60c38 0 83 9 105 24l55 -117c-49 -31 -115 -44 -173 -44zM210 300h159v3
c0 14 -17 55 -74 55c-48 0 -79 -37 -85 -58z" />
    <glyph glyph-name="edieresis" unicode="&#xeb;" horiz-adv-x="543" 
d="M571 628c0 -52 -49 -99 -101 -99c-45 0 -79 34 -79 79c0 52 49 99 101 99c45 0 79 -34 79 -79zM355 628c0 -52 -49 -99 -101 -99c-45 0 -79 34 -79 79c0 52 49 99 101 99c45 0 79 -34 79 -79zM279 -12c-156 0 -264 78 -264 220c0 154 118 287 287 287
c120 0 226 -73 226 -220c0 -33 -6 -71 -11 -89h-324v-1c0 -7 29 -60 99 -60c38 0 83 9 105 24l55 -117c-49 -31 -115 -44 -173 -44zM210 300h159v3c0 14 -17 55 -74 55c-48 0 -79 -37 -85 -58z" />
    <glyph glyph-name="edotaccent" unicode="&#x117;" horiz-adv-x="543" 
d="M279 -12c-156 0 -264 78 -264 220c0 154 118 287 287 287c120 0 226 -73 226 -220c0 -33 -6 -71 -11 -89h-324v-1c0 -7 29 -60 99 -60c38 0 83 9 105 24l55 -117c-49 -31 -115 -44 -173 -44zM210 300h159v3c0 14 -17 55 -74 55c-48 0 -79 -37 -85 -58zM464 629
c0 -52 -49 -99 -101 -99c-45 0 -79 34 -79 79c0 52 49 99 101 99c45 0 79 -34 79 -79z" />
    <glyph glyph-name="egrave" unicode="&#xe8;" horiz-adv-x="543" 
d="M279 -12c-156 0 -264 78 -264 220c0 154 118 287 287 287c120 0 226 -73 226 -220c0 -33 -6 -71 -11 -89h-324v-1c0 -7 29 -60 99 -60c38 0 83 9 105 24l55 -117c-49 -31 -115 -44 -173 -44zM210 300h159v3c0 14 -17 55 -74 55c-48 0 -79 -37 -85 -58zM430 556h-120
l-123 144h155z" />
    <glyph glyph-name="emacron" unicode="&#x113;" horiz-adv-x="543" 
d="M279 -12c-156 0 -264 78 -264 220c0 154 118 287 287 287c120 0 226 -73 226 -220c0 -33 -6 -71 -11 -89h-324v-1c0 -7 29 -60 99 -60c38 0 83 9 105 24l55 -117c-49 -31 -115 -44 -173 -44zM210 300h159v3c0 14 -17 55 -74 55c-48 0 -79 -37 -85 -58zM539 551h-362
l21 97h362z" />
    <glyph glyph-name="eogonek" unicode="&#x119;" horiz-adv-x="543" 
d="M355 -91l55 -49c-26 -29 -58 -46 -98 -46c-54 0 -105 26 -105 81c0 31 12 66 39 95c-138 10 -231 86 -231 218c0 154 118 287 287 287c120 0 226 -73 226 -220c0 -33 -6 -71 -11 -89h-324v-1c0 -7 29 -60 99 -60c38 0 83 9 105 24l55 -117c-23 -15 -50 -25 -77 -32
c-58 -26 -86 -59 -86 -92c0 -16 11 -26 27 -26s29 12 39 27zM210 300h159v3c0 14 -17 55 -74 55c-48 0 -79 -37 -85 -58z" />
    <glyph glyph-name="ecaron" unicode="&#x11b;" horiz-adv-x="543" 
d="M438 556h-156l-59 144h103l48 -73l77 73h107zM279 -12c-156 0 -264 78 -264 220c0 154 118 287 287 287c120 0 226 -73 226 -220c0 -33 -6 -71 -11 -89h-324v-1c0 -7 29 -60 99 -60c38 0 83 9 105 24l55 -117c-49 -31 -115 -44 -173 -44zM210 300h159v3
c0 14 -17 55 -74 55c-48 0 -79 -37 -85 -58z" />
    <glyph glyph-name="uni1EB9" unicode="&#x1eb9;" horiz-adv-x="543" 
d="M279 -12c-156 0 -264 78 -264 220c0 154 118 287 287 287c120 0 226 -73 226 -220c0 -33 -6 -71 -11 -89h-324v-1c0 -7 29 -60 99 -60c38 0 83 9 105 24l55 -117c-49 -31 -115 -44 -173 -44zM210 300h159v3c0 14 -17 55 -74 55c-48 0 -79 -37 -85 -58zM298 -110
c0 -52 -49 -99 -101 -99c-45 0 -79 34 -79 79c0 52 49 99 101 99c45 0 79 -34 79 -79z" />
    <glyph glyph-name="uni1EBB" unicode="&#x1ebb;" horiz-adv-x="543" 
d="M279 -12c-156 0 -264 78 -264 220c0 154 118 287 287 287c120 0 226 -73 226 -220c0 -33 -6 -71 -11 -89h-324v-1c0 -7 29 -60 99 -60c38 0 83 9 105 24l55 -117c-49 -31 -115 -44 -173 -44zM210 300h159v3c0 14 -17 55 -74 55c-48 0 -79 -37 -85 -58zM332 577l-51 25
c18 32 49 48 89 48c37 0 81 -20 81 -65c0 -19 -10 -43 -20 -58h-71c15 15 24 32 24 48c0 12 -9 21 -22 21c-12 0 -22 -7 -30 -19z" />
    <glyph glyph-name="uni1EBD" unicode="&#x1ebd;" horiz-adv-x="543" 
d="M279 -12c-156 0 -264 78 -264 220c0 154 118 287 287 287c120 0 226 -73 226 -220c0 -33 -6 -71 -11 -89h-324v-1c0 -7 29 -60 99 -60c38 0 83 9 105 24l55 -117c-49 -31 -115 -44 -173 -44zM210 300h159v3c0 14 -17 55 -74 55c-48 0 -79 -37 -85 -58zM432 554
c-67 0 -86 43 -123 43c-13 0 -23 -12 -28 -37h-90c18 92 50 134 127 134c67 0 87 -43 124 -43c13 0 22 12 28 37h90c-20 -92 -51 -134 -128 -134z" />
    <glyph glyph-name="uni1EBF" unicode="&#x1ebf;" horiz-adv-x="543" 
d="M525 556h-103l-48 73l-77 -73h-107l120 144h156zM810 770l-187 -144h-122l152 144h157zM279 -12c-156 0 -264 78 -264 220c0 154 118 287 287 287c120 0 226 -73 226 -220c0 -33 -6 -71 -11 -89h-324v-1c0 -7 29 -60 99 -60c38 0 83 9 105 24l55 -117
c-49 -31 -115 -44 -173 -44zM210 300h159v3c0 14 -17 55 -74 55c-48 0 -79 -37 -85 -58z" />
    <glyph glyph-name="uni1EC1" unicode="&#x1ec1;" horiz-adv-x="543" 
d="M526 556h-103l-48 73l-77 -73h-107l120 144h156zM279 -12c-156 0 -264 78 -264 220c0 154 118 287 287 287c120 0 226 -73 226 -220c0 -33 -6 -71 -11 -89h-324v-1c0 -7 29 -60 99 -60c38 0 83 9 105 24l55 -117c-49 -31 -115 -44 -173 -44zM210 300h159v3
c0 14 -17 55 -74 55c-48 0 -79 -37 -85 -58zM244 626h-120l-123 144h155z" />
    <glyph glyph-name="uni1EC3" unicode="&#x1ec3;" horiz-adv-x="543" 
d="M526 556h-103l-48 73l-77 -73h-107l120 144h156zM279 -12c-156 0 -264 78 -264 220c0 154 118 287 287 287c120 0 226 -73 226 -220c0 -33 -6 -71 -11 -89h-324v-1c0 -7 29 -60 99 -60c38 0 83 9 105 24l55 -117c-49 -31 -115 -44 -173 -44zM210 300h159v3
c0 14 -17 55 -74 55c-48 0 -79 -37 -85 -58zM471 717l-51 25c18 32 49 48 89 48c37 0 81 -20 81 -65c0 -19 -10 -43 -20 -58h-71c15 15 24 32 24 48c0 12 -9 21 -22 21c-12 0 -22 -7 -30 -19z" />
    <glyph glyph-name="uni1EC5" unicode="&#x1ec5;" horiz-adv-x="543" 
d="M520 523h-103l-48 73l-77 -73h-107l120 144h156zM279 -12c-156 0 -264 78 -264 220c0 154 118 287 287 287c120 0 226 -73 226 -220c0 -33 -6 -71 -11 -89h-324v-1c0 -7 29 -60 99 -60c38 0 83 9 105 24l55 -117c-49 -31 -115 -44 -173 -44zM210 300h159v3
c0 14 -17 55 -74 55c-48 0 -79 -37 -85 -58zM460 682c-67 0 -86 43 -123 43c-13 0 -23 -12 -28 -37h-90c18 92 50 134 127 134c67 0 87 -43 124 -43c13 0 22 12 28 37h90c-20 -92 -51 -134 -128 -134z" />
    <glyph glyph-name="uni1EC7" unicode="&#x1ec7;" horiz-adv-x="543" 
d="M526 556h-103l-48 73l-77 -73h-107l120 144h156zM279 -12c-156 0 -264 78 -264 220c0 154 118 287 287 287c120 0 226 -73 226 -220c0 -33 -6 -71 -11 -89h-324v-1c0 -7 29 -60 99 -60c38 0 83 9 105 24l55 -117c-49 -31 -115 -44 -173 -44zM210 300h159v3
c0 14 -17 55 -74 55c-48 0 -79 -37 -85 -58zM298 -110c0 -52 -49 -99 -101 -99c-45 0 -79 34 -79 79c0 52 49 99 101 99c45 0 79 -34 79 -79z" />
    <glyph glyph-name="fl.alt1" horiz-adv-x="699" 
d="M213 0h-180l72 327h-80l35 156h79l6 25c23 94 95 169 205 169c39 0 86 -6 123 -28l-59 -117c-9 8 -23 12 -39 12c-31 0 -46 -18 -50 -36l-6 -25h99l-35 -156h-98zM574 -12c-115 0 -178 47 -178 123c0 10 1 24 4 37l114 519h180l-103 -467c-1 -4 -2 -11 -2 -18
c0 -19 18 -35 46 -35c9 0 23 3 25 5v-144c-13 -10 -46 -20 -86 -20z" />
    <glyph glyph-name="f_f_l.alt1" horiz-adv-x="1070" 
d="M584 0h-180l72 327h-80l35 156h79l6 25c23 94 95 169 205 169c39 0 86 -6 123 -28l-59 -117c-9 8 -23 12 -39 12c-31 0 -46 -18 -50 -36l-6 -25h99l-35 -156h-98zM945 -12c-115 0 -178 47 -178 123c0 10 1 24 4 37l114 519h180l-103 -467c-1 -4 -2 -11 -2 -18
c0 -19 18 -35 46 -35c9 0 23 3 25 5v-144c-13 -10 -46 -20 -86 -20zM213 0h-180l72 327h-80l35 156h79l6 26c21 92 87 168 209 168c53 0 113 -15 149 -52l-84 -100c-13 14 -27 19 -48 19c-27 0 -42 -18 -47 -40l-5 -21h99l-35 -156h-98z" />
    <glyph glyph-name="uni1E1F" unicode="&#x1e1f;" horiz-adv-x="371" 
d="M463 796c0 -52 -49 -99 -101 -99c-45 0 -79 34 -79 79c0 52 49 99 101 99c45 0 79 -34 79 -79zM213 0h-180l72 327h-80l35 156h79l6 26c21 92 87 168 209 168c53 0 113 -15 149 -52l-84 -100c-13 14 -27 19 -48 19c-27 0 -42 -18 -47 -40l-5 -21h99l-35 -156h-98z" />
    <glyph glyph-name="gcircumflex" unicode="&#x11d;" horiz-adv-x="595" 
d="M524 546h-103l-48 73l-77 -73h-107l120 144h156zM212 -196c-99 0 -187 25 -251 86l101 119c29 -37 95 -58 147 -58c46 0 93 17 113 102l6 25c-35 -42 -82 -65 -132 -65c-93 0 -182 50 -182 192s91 290 250 290c51 0 107 -21 142 -63l12 51h180l-96 -430
c-47 -208 -186 -249 -290 -249zM284 172c28 0 53 13 72 34l20 91c-18 26 -46 39 -85 39c-49 0 -91 -30 -91 -94c0 -40 35 -70 84 -70z" />
    <glyph glyph-name="gbreve" unicode="&#x11f;" horiz-adv-x="595" 
d="M212 -196c-99 0 -187 25 -251 86l101 119c29 -37 95 -58 147 -58c46 0 93 17 113 102l6 25c-35 -42 -82 -65 -132 -65c-93 0 -182 50 -182 192s91 290 250 290c51 0 107 -21 142 -63l12 51h180l-96 -430c-47 -208 -186 -249 -290 -249zM284 172c28 0 53 13 72 34l20 91
c-18 26 -46 39 -85 39c-49 0 -91 -30 -91 -94c0 -40 35 -70 84 -70zM544 612c-52 -54 -122 -88 -194 -88c-71 0 -128 34 -157 88l86 62c15 -31 44 -53 88 -53c42 0 80 19 112 53z" />
    <glyph glyph-name="gdotaccent" unicode="&#x121;" horiz-adv-x="595" 
d="M212 -196c-99 0 -187 25 -251 86l101 119c29 -37 95 -58 147 -58c46 0 93 17 113 102l6 25c-35 -42 -82 -65 -132 -65c-93 0 -182 50 -182 192s91 290 250 290c51 0 107 -21 142 -63l12 51h180l-96 -430c-47 -208 -186 -249 -290 -249zM284 172c28 0 53 13 72 34l20 91
c-18 26 -46 39 -85 39c-49 0 -91 -30 -91 -94c0 -40 35 -70 84 -70zM463 629c0 -52 -49 -99 -101 -99c-45 0 -79 34 -79 79c0 52 49 99 101 99c45 0 79 -34 79 -79z" />
    <glyph glyph-name="gcommaaccent" unicode="&#x123;" horiz-adv-x="595" 
d="M289 610c0 69 57 145 136 182l46 -47c-27 -11 -70 -35 -86 -64h10c33 0 62 -20 62 -65c0 -47 -45 -86 -90 -86c-40 0 -78 28 -78 80zM212 -196c-99 0 -187 25 -251 86l101 119c29 -37 95 -58 147 -58c46 0 93 17 113 102l6 25c-35 -42 -82 -65 -132 -65
c-93 0 -182 50 -182 192s91 290 250 290c51 0 107 -21 142 -63l12 51h180l-96 -430c-47 -208 -186 -249 -290 -249zM284 172c28 0 53 13 72 34l20 91c-18 26 -46 39 -85 39c-49 0 -91 -30 -91 -94c0 -40 35 -70 84 -70z" />
    <glyph glyph-name="hbar" unicode="&#x127;" horiz-adv-x="613" 
d="M509 0h-180l56 259c2 9 5 24 5 32c0 33 -29 45 -65 45c-32 0 -59 -20 -78 -37l-65 -299h-180l115 521h-49l22 97h48l11 49h180l-11 -49h134l-22 -97h-134l-21 -93c35 32 79 67 152 67c101 0 159 -55 159 -127c0 -11 -3 -30 -5 -39z" />
    <glyph glyph-name="hcircumflex" unicode="&#x125;" horiz-adv-x="608" 
d="M578 723h-103l-48 73l-77 -73h-107l120 144h156zM504 0h-180l56 259c2 9 5 24 5 32c0 33 -29 45 -65 45c-32 0 -59 -20 -78 -37l-65 -299h-180l147 667h180l-54 -239c35 32 79 67 152 67c101 0 159 -55 159 -127c0 -11 -3 -30 -5 -39z" />
    <glyph glyph-name="uni1E23" unicode="&#x1e23;" horiz-adv-x="608" 
d="M504 0h-180l56 259c2 9 5 24 5 32c0 33 -29 45 -65 45c-32 0 -59 -20 -78 -37l-65 -299h-180l147 667h180l-54 -239c35 32 79 67 152 67c101 0 159 -55 159 -127c0 -11 -3 -30 -5 -39zM515 796c0 -52 -49 -99 -101 -99c-45 0 -79 34 -79 79c0 52 49 99 101 99
c45 0 79 -34 79 -79z" />
    <glyph glyph-name="dotlessi" unicode="&#x131;" horiz-adv-x="280" 
d="M176 0h-180l107 483h180z" />
    <glyph glyph-name="iacute" unicode="&#xed;" horiz-adv-x="280" 
d="M444 700l-187 -144h-122l152 144h157zM176 0h-180l107 483h180z" />
    <glyph glyph-name="ibreve" unicode="&#x12d;" horiz-adv-x="280" 
d="M176 0h-180l107 483h180zM396 612c-52 -54 -122 -88 -194 -88c-71 0 -128 34 -157 88l86 62c15 -31 44 -53 88 -53c42 0 80 19 112 53z" />
    <glyph glyph-name="icircumflex" unicode="&#xee;" horiz-adv-x="280" 
d="M376 556h-103l-48 73l-77 -73h-107l120 144h156zM176 0h-180l107 483h180z" />
    <glyph glyph-name="idieresis" unicode="&#xef;" horiz-adv-x="280" 
d="M421 628c0 -52 -49 -99 -101 -99c-45 0 -79 34 -79 79c0 52 49 99 101 99c45 0 79 -34 79 -79zM205 628c0 -52 -49 -99 -101 -99c-45 0 -79 34 -79 79c0 52 49 99 101 99c45 0 79 -34 79 -79zM176 0h-180l107 483h180z" />
    <glyph glyph-name="igrave" unicode="&#xec;" horiz-adv-x="280" 
d="M176 0h-180l107 483h180zM280 556h-120l-123 144h155z" />
    <glyph glyph-name="imacron" unicode="&#x12b;" horiz-adv-x="280" 
d="M176 0h-180l107 483h180zM389 551h-362l21 97h362z" />
    <glyph glyph-name="iogonek" unicode="&#x12f;" horiz-adv-x="280" 
d="M156 -91l55 -49c-26 -29 -58 -46 -98 -46c-54 0 -105 26 -105 81c0 35 15 74 50 105h-62l107 483h180l-107 -483c-58 -26 -86 -59 -86 -92c0 -16 11 -26 27 -26s29 12 39 27zM211 518c-53 0 -91 39 -91 86c0 75 63 116 114 116c53 0 91 -39 91 -86
c0 -75 -63 -116 -114 -116z" />
    <glyph glyph-name="itilde" unicode="&#x129;" horiz-adv-x="280" 
d="M176 0h-180l107 483h180zM281 554c-67 0 -86 43 -123 43c-13 0 -23 -12 -28 -37h-90c18 92 50 134 127 134c67 0 87 -43 124 -43c13 0 22 12 28 37h90c-20 -92 -51 -134 -128 -134z" />
    <glyph glyph-name="uni1EC9" unicode="&#x1ec9;" horiz-adv-x="280" 
d="M176 0h-180l107 483h180zM182 577l-51 25c18 32 49 48 89 48c37 0 81 -20 81 -65c0 -19 -10 -43 -20 -58h-71c15 15 24 32 24 48c0 12 -9 21 -22 21c-12 0 -22 -7 -30 -19z" />
    <glyph glyph-name="uni1ECB" unicode="&#x1ecb;" horiz-adv-x="280" 
d="M211 518c-53 0 -91 39 -91 86c0 75 63 116 114 116c53 0 91 -39 91 -86c0 -75 -63 -116 -114 -116zM176 0h-180l107 483h180zM149 -110c0 -52 -49 -99 -101 -99c-45 0 -79 34 -79 79c0 52 49 99 101 99c45 0 79 -34 79 -79z" />
    <glyph glyph-name="ij" unicode="&#x133;" horiz-adv-x="560" 
d="M211 518c-53 0 -91 39 -91 86c0 75 63 116 114 116c53 0 91 -39 91 -86c0 -75 -63 -116 -114 -116zM176 0h-180l107 483h180zM241 -196c-73 0 -119 12 -153 40l70 128c15 -16 35 -21 56 -21c32 0 56 25 66 70l103 462h180l-103 -462c-27 -124 -86 -217 -219 -217z
M491 518c-53 0 -91 39 -91 86c0 75 63 116 114 116c53 0 91 -39 91 -86c0 -75 -63 -116 -114 -116z" />
    <glyph glyph-name="uni0237" unicode="&#x237;" horiz-adv-x="280" 
d="M-39 -196c-73 0 -119 12 -153 40l70 128c15 -16 35 -21 56 -21c32 0 56 25 66 70l103 462h180l-103 -462c-27 -124 -86 -217 -219 -217z" />
    <glyph glyph-name="jcircumflex" unicode="&#x135;" horiz-adv-x="280" 
d="M376 556h-103l-48 73l-77 -73h-107l120 144h156zM-39 -196c-73 0 -119 12 -153 40l70 128c15 -16 35 -21 56 -21c32 0 56 25 66 70l103 462h180l-103 -462c-27 -124 -86 -217 -219 -217z" />
    <glyph glyph-name="kcommaaccent" unicode="&#x137;" horiz-adv-x="557" 
d="M286 -120c0 -67 -55 -141 -133 -178l-45 46c26 11 68 35 84 63c-2 -1 -8 -1 -10 -1c-32 0 -60 21 -60 64c0 46 44 85 88 85c39 0 76 -27 76 -79zM515 0h-216l-51 159l-48 -50l-24 -109h-180l147 667h180l-77 -346l142 162h223l-215 -220z" />
    <glyph glyph-name="kgreenlandic" unicode="&#x138;" horiz-adv-x="557" 
d="M515 0h-216l-51 159l-48 -50l-24 -109h-180l107 483h180l-37 -162l142 162h223l-215 -220z" />
    <glyph glyph-name="lacute" unicode="&#x13a;" horiz-adv-x="280" 
d="M482 867l-187 -144h-122l152 144h157zM176 0h-180l147 667h180z" />
    <glyph glyph-name="lcommaaccent" unicode="&#x13c;" horiz-adv-x="280" 
d="M138 -120c0 -67 -55 -141 -133 -178l-45 46c26 11 68 35 84 63c-2 -1 -8 -1 -10 -1c-32 0 -60 21 -60 64c0 46 44 85 88 85c39 0 76 -27 76 -79zM176 0h-180l147 667h180z" />
    <glyph glyph-name="lcaron" unicode="&#x13e;" horiz-adv-x="418" 
d="M510 603c0 -67 -55 -141 -133 -178l-45 46c26 11 68 35 84 63c-2 -1 -8 -1 -10 -1c-32 0 -60 21 -60 64c0 46 44 85 88 85c39 0 76 -27 76 -79zM176 0h-180l147 667h180z" />
    <glyph glyph-name="ldot" unicode="&#x140;" horiz-adv-x="462" 
d="M176 0h-180l147 667h180zM361 138c-54 0 -97 45 -97 99c0 63 54 116 117 116c54 0 97 -45 97 -99c0 -63 -54 -116 -117 -116z" />
    <glyph glyph-name="lslash" unicode="&#x142;" horiz-adv-x="330" 
d="M-8 180l28 126l77 39l71 322h180l-48 -218l77 39l-28 -125l-77 -40l-71 -323h-180l48 219z" />
    <glyph glyph-name="lacute.alt1" horiz-adv-x="328" 
d="M482 867l-187 -144h-122l152 144h157zM203 -12c-115 0 -178 47 -178 123c0 10 1 24 4 37l114 519h180l-103 -467c-1 -4 -2 -11 -2 -18c0 -19 18 -35 46 -35c9 0 23 3 25 5v-144c-13 -10 -46 -20 -86 -20z" />
    <glyph glyph-name="lcommaaccent.alt1" horiz-adv-x="328" 
d="M138 -120c0 -67 -55 -141 -133 -178l-45 46c26 11 68 35 84 63c-2 -1 -8 -1 -10 -1c-32 0 -60 21 -60 64c0 46 44 85 88 85c39 0 76 -27 76 -79zM203 -12c-115 0 -178 47 -178 123c0 10 1 24 4 37l114 519h180l-103 -467c-1 -4 -2 -11 -2 -18c0 -19 18 -35 46 -35
c9 0 23 3 25 5v-144c-13 -10 -46 -20 -86 -20z" />
    <glyph glyph-name="lcaron.alt1" horiz-adv-x="418" 
d="M510 603c0 -67 -55 -141 -133 -178l-45 46c26 11 68 35 84 63c-2 -1 -8 -1 -10 -1c-32 0 -60 21 -60 64c0 46 44 85 88 85c39 0 76 -27 76 -79zM203 -12c-115 0 -178 47 -178 123c0 10 1 24 4 37l114 519h180l-103 -467c-1 -4 -2 -11 -2 -18c0 -19 18 -35 46 -35
c9 0 23 3 25 5v-144c-13 -10 -46 -20 -86 -20z" />
    <glyph glyph-name="ldot.alt1" horiz-adv-x="462" 
d="M203 -12c-115 0 -178 47 -178 123c0 10 1 24 4 37l114 519h180l-103 -467c-1 -4 -2 -11 -2 -18c0 -19 18 -35 46 -35c9 0 23 3 25 5v-144c-13 -10 -46 -20 -86 -20zM361 138c-54 0 -97 45 -97 99c0 63 54 116 117 116c54 0 97 -45 97 -99c0 -63 -54 -116 -117 -116z" />
    <glyph glyph-name="lslash.alt1" horiz-adv-x="352" 
d="M-8 180l28 126l76 39l71 322h180l-49 -219l79 40l-28 -125l-78 -40l-27 -123c-1 -4 -2 -11 -2 -18c0 -19 18 -35 46 -35c9 0 23 3 25 5v-144c-13 -10 -46 -20 -86 -20c-115 0 -178 47 -178 123c0 10 1 24 4 37l15 71z" />
    <glyph glyph-name="nacute" unicode="&#x144;" horiz-adv-x="607" 
d="M607 700l-187 -144h-122l152 144h157zM503 0h-180l56 254c2 9 6 25 6 37c0 33 -29 45 -58 45c-39 0 -66 -20 -85 -37l-66 -299h-180l107 483h180l-13 -55c35 32 79 67 152 67c101 0 159 -55 159 -127c0 -8 -3 -30 -5 -39z" />
    <glyph glyph-name="napostrophe" unicode="&#x149;" horiz-adv-x="607" 
d="M289 707c0 -67 -55 -141 -133 -178l-45 46c26 11 68 35 84 63c-2 -1 -8 -1 -10 -1c-32 0 -60 21 -60 64c0 46 44 85 88 85c39 0 76 -27 76 -79zM503 0h-180l56 254c2 9 6 25 6 37c0 33 -29 45 -58 45c-39 0 -66 -20 -85 -37l-66 -299h-180l107 483h180l-13 -55
c35 32 79 67 152 67c101 0 159 -55 159 -127c0 -8 -3 -30 -5 -39z" />
    <glyph glyph-name="ncaron" unicode="&#x148;" horiz-adv-x="607" 
d="M452 556h-156l-59 144h103l48 -73l77 73h107zM503 0h-180l56 254c2 9 6 25 6 37c0 33 -29 45 -58 45c-39 0 -66 -20 -85 -37l-66 -299h-180l107 483h180l-13 -55c35 32 79 67 152 67c101 0 159 -55 159 -127c0 -8 -3 -30 -5 -39z" />
    <glyph glyph-name="ncommaaccent" unicode="&#x146;" horiz-adv-x="607" 
d="M301 -120c0 -67 -55 -141 -133 -178l-45 46c26 11 68 35 84 63c-2 -1 -8 -1 -10 -1c-32 0 -60 21 -60 64c0 46 44 85 88 85c39 0 76 -27 76 -79zM503 0h-180l56 254c2 9 6 25 6 37c0 33 -29 45 -58 45c-39 0 -66 -20 -85 -37l-66 -299h-180l107 483h180l-13 -55
c35 32 79 67 152 67c101 0 159 -55 159 -127c0 -8 -3 -30 -5 -39z" />
    <glyph glyph-name="ntilde" unicode="&#xf1;" horiz-adv-x="607" 
d="M503 0h-180l56 254c2 9 6 25 6 37c0 33 -29 45 -58 45c-39 0 -66 -20 -85 -37l-66 -299h-180l107 483h180l-13 -55c35 32 79 67 152 67c101 0 159 -55 159 -127c0 -8 -3 -30 -5 -39zM445 554c-67 0 -86 43 -123 43c-13 0 -23 -12 -28 -37h-90c18 92 50 134 127 134
c67 0 87 -43 124 -43c13 0 22 12 28 37h90c-20 -92 -51 -134 -128 -134z" />
    <glyph glyph-name="eng" unicode="&#x14b;" horiz-adv-x="607" 
d="M576 329l-69 -308c-27 -124 -86 -217 -219 -217c-73 0 -119 12 -153 40l73 140c16 -15 30 -21 56 -21c33 0 55 24 63 58l55 247c2 8 3 15 3 21c0 34 -25 47 -47 47c-50 0 -77 -20 -96 -37l-66 -299h-180l107 483h180l-13 -55c35 32 79 67 152 67c93 0 159 -48 159 -127
c0 -12 -2 -26 -5 -39z" />
    <glyph glyph-name="oacute" unicode="&#xf3;" horiz-adv-x="577" 
d="M594 700l-187 -144h-122l152 144h157zM272 -12c-171 0 -258 100 -258 225c0 148 118 282 289 282s258 -100 258 -225c0 -148 -118 -282 -289 -282zM279 147c60 0 98 54 98 114c0 48 -31 75 -81 75c-60 0 -98 -54 -98 -114c0 -48 31 -75 81 -75z" />
    <glyph glyph-name="obreve" unicode="&#x14f;" horiz-adv-x="577" 
d="M272 -12c-171 0 -258 100 -258 225c0 148 118 282 289 282s258 -100 258 -225c0 -148 -118 -282 -289 -282zM279 147c60 0 98 54 98 114c0 48 -31 75 -81 75c-60 0 -98 -54 -98 -114c0 -48 31 -75 81 -75zM543 612c-52 -54 -122 -88 -194 -88c-71 0 -128 34 -157 88
l86 62c15 -31 44 -53 88 -53c42 0 80 19 112 53z" />
    <glyph glyph-name="ocircumflex" unicode="&#xf4;" horiz-adv-x="577" 
d="M526 556h-103l-48 73l-77 -73h-107l120 144h156zM272 -12c-171 0 -258 100 -258 225c0 148 118 282 289 282s258 -100 258 -225c0 -148 -118 -282 -289 -282zM279 147c60 0 98 54 98 114c0 48 -31 75 -81 75c-60 0 -98 -54 -98 -114c0 -48 31 -75 81 -75z" />
    <glyph glyph-name="odieresis" unicode="&#xf6;" horiz-adv-x="577" 
d="M569 628c0 -52 -49 -99 -101 -99c-45 0 -79 34 -79 79c0 52 49 99 101 99c45 0 79 -34 79 -79zM353 628c0 -52 -49 -99 -101 -99c-45 0 -79 34 -79 79c0 52 49 99 101 99c45 0 79 -34 79 -79zM272 -12c-171 0 -258 100 -258 225c0 148 118 282 289 282s258 -100 258 -225
c0 -148 -118 -282 -289 -282zM279 147c60 0 98 54 98 114c0 48 -31 75 -81 75c-60 0 -98 -54 -98 -114c0 -48 31 -75 81 -75z" />
    <glyph glyph-name="ograve" unicode="&#xf2;" horiz-adv-x="577" 
d="M272 -12c-171 0 -258 100 -258 225c0 148 118 282 289 282s258 -100 258 -225c0 -148 -118 -282 -289 -282zM279 147c60 0 98 54 98 114c0 48 -31 75 -81 75c-60 0 -98 -54 -98 -114c0 -48 31 -75 81 -75zM430 556h-120l-123 144h155z" />
    <glyph glyph-name="ohungarumlaut" unicode="&#x151;" horiz-adv-x="577" 
d="M450 700l-147 -144h-102l112 144h137zM606 700l-147 -144h-102l112 144h137zM272 -12c-171 0 -258 100 -258 225c0 148 118 282 289 282s258 -100 258 -225c0 -148 -118 -282 -289 -282zM279 147c60 0 98 54 98 114c0 48 -31 75 -81 75c-60 0 -98 -54 -98 -114
c0 -48 31 -75 81 -75z" />
    <glyph glyph-name="omacron" unicode="&#x14d;" horiz-adv-x="577" 
d="M538 551h-362l21 97h362zM272 -12c-171 0 -258 100 -258 225c0 148 118 282 289 282s258 -100 258 -225c0 -148 -118 -282 -289 -282zM279 147c60 0 98 54 98 114c0 48 -31 75 -81 75c-60 0 -98 -54 -98 -114c0 -48 31 -75 81 -75z" />
    <glyph glyph-name="oslash" unicode="&#xf8;" horiz-adv-x="577" 
d="M68 0h-108l93 83c-26 36 -39 81 -39 130c0 148 118 282 289 282c69 0 124 -16 166 -44l36 32h111l-94 -83c26 -37 39 -82 39 -130c0 -148 -118 -282 -289 -282c-70 0 -126 16 -167 44zM279 147c60 0 98 54 98 114c0 3 0 7 -1 10l-134 -118c10 -4 23 -6 37 -6zM198 222
v-11l134 119c-10 4 -23 6 -36 6c-60 0 -98 -54 -98 -114z" />
    <glyph glyph-name="oslashacute" unicode="&#x1ff;" horiz-adv-x="577" 
d="M595 700l-187 -144h-122l152 144h157zM68 0h-108l93 83c-26 36 -39 81 -39 130c0 148 118 282 289 282c69 0 124 -16 166 -44l36 32h111l-94 -83c26 -37 39 -82 39 -130c0 -148 -118 -282 -289 -282c-70 0 -126 16 -167 44zM279 147c60 0 98 54 98 114c0 3 0 7 -1 10
l-134 -118c10 -4 23 -6 37 -6zM198 222v-11l134 119c-10 4 -23 6 -36 6c-60 0 -98 -54 -98 -114z" />
    <glyph glyph-name="otilde" unicode="&#xf5;" horiz-adv-x="577" 
d="M272 -12c-171 0 -258 100 -258 225c0 148 118 282 289 282s258 -100 258 -225c0 -148 -118 -282 -289 -282zM279 147c60 0 98 54 98 114c0 48 -31 75 -81 75c-60 0 -98 -54 -98 -114c0 -48 31 -75 81 -75zM430 554c-67 0 -86 43 -123 43c-13 0 -23 -12 -28 -37h-90
c18 92 50 134 127 134c67 0 87 -43 124 -43c13 0 22 12 28 37h90c-20 -92 -51 -134 -128 -134z" />
    <glyph glyph-name="uni1ECD" unicode="&#x1ecd;" horiz-adv-x="577" 
d="M272 -12c-171 0 -258 100 -258 225c0 148 118 282 289 282s258 -100 258 -225c0 -148 -118 -282 -289 -282zM279 147c60 0 98 54 98 114c0 48 -31 75 -81 75c-60 0 -98 -54 -98 -114c0 -48 31 -75 81 -75zM298 -110c0 -52 -49 -99 -101 -99c-45 0 -79 34 -79 79
c0 52 49 99 101 99c45 0 79 -34 79 -79z" />
    <glyph glyph-name="uni1ECF" unicode="&#x1ecf;" horiz-adv-x="577" 
d="M272 -12c-171 0 -258 100 -258 225c0 148 118 282 289 282s258 -100 258 -225c0 -148 -118 -282 -289 -282zM279 147c60 0 98 54 98 114c0 48 -31 75 -81 75c-60 0 -98 -54 -98 -114c0 -48 31 -75 81 -75zM332 577l-51 25c18 32 49 48 89 48c37 0 81 -20 81 -65
c0 -19 -10 -43 -20 -58h-71c15 15 24 32 24 48c0 12 -9 21 -22 21c-12 0 -22 -7 -30 -19z" />
    <glyph glyph-name="uni1ED1" unicode="&#x1ed1;" horiz-adv-x="577" 
d="M525 556h-103l-48 73l-77 -73h-107l120 144h156zM810 770l-187 -144h-122l152 144h157zM272 -12c-171 0 -258 100 -258 225c0 148 118 282 289 282s258 -100 258 -225c0 -148 -118 -282 -289 -282zM279 147c60 0 98 54 98 114c0 48 -31 75 -81 75c-60 0 -98 -54 -98 -114
c0 -48 31 -75 81 -75z" />
    <glyph glyph-name="uni1ED3" unicode="&#x1ed3;" horiz-adv-x="577" 
d="M525 556h-103l-48 73l-77 -73h-107l120 144h156zM272 -12c-171 0 -258 100 -258 225c0 148 118 282 289 282s258 -100 258 -225c0 -148 -118 -282 -289 -282zM279 147c60 0 98 54 98 114c0 48 -31 75 -81 75c-60 0 -98 -54 -98 -114c0 -48 31 -75 81 -75zM243 626h-120
l-123 144h155z" />
    <glyph glyph-name="uni1ED5" unicode="&#x1ed5;" horiz-adv-x="577" 
d="M525 556h-103l-48 73l-77 -73h-107l120 144h156zM272 -12c-171 0 -258 100 -258 225c0 148 118 282 289 282s258 -100 258 -225c0 -148 -118 -282 -289 -282zM279 147c60 0 98 54 98 114c0 48 -31 75 -81 75c-60 0 -98 -54 -98 -114c0 -48 31 -75 81 -75zM470 717l-51 25
c18 32 49 48 89 48c37 0 81 -20 81 -65c0 -19 -10 -43 -20 -58h-71c15 15 24 32 24 48c0 12 -9 21 -22 21c-12 0 -22 -7 -30 -19z" />
    <glyph glyph-name="uni1ED7" unicode="&#x1ed7;" horiz-adv-x="577" 
d="M520 523h-103l-48 73l-77 -73h-107l120 144h156zM272 -12c-171 0 -258 100 -258 225c0 148 118 282 289 282s258 -100 258 -225c0 -148 -118 -282 -289 -282zM279 147c60 0 98 54 98 114c0 48 -31 75 -81 75c-60 0 -98 -54 -98 -114c0 -48 31 -75 81 -75zM458 682
c-67 0 -86 43 -123 43c-13 0 -23 -12 -28 -37h-90c18 92 50 134 127 134c67 0 87 -43 124 -43c13 0 22 12 28 37h90c-20 -92 -51 -134 -128 -134z" />
    <glyph glyph-name="uni1ED9" unicode="&#x1ed9;" horiz-adv-x="577" 
d="M526 556h-103l-48 73l-77 -73h-107l120 144h156zM272 -12c-171 0 -258 100 -258 225c0 148 118 282 289 282s258 -100 258 -225c0 -148 -118 -282 -289 -282zM279 147c60 0 98 54 98 114c0 48 -31 75 -81 75c-60 0 -98 -54 -98 -114c0 -48 31 -75 81 -75zM298 -110
c0 -52 -49 -99 -101 -99c-45 0 -79 34 -79 79c0 52 49 99 101 99c45 0 79 -34 79 -79z" />
    <glyph glyph-name="ohorn" unicode="&#x1a1;" horiz-adv-x="577" 
d="M626 550c0 -56 -43 -117 -105 -150c26 -37 40 -82 40 -130c0 -148 -118 -282 -289 -282s-258 100 -258 225c0 148 118 282 289 282c77 0 137 -21 180 -55c22 11 49 29 60 50c-2 -1 -6 -1 -8 -1c-28 0 -53 18 -53 56c0 41 38 74 77 74c34 0 67 -24 67 -69zM279 147
c60 0 98 54 98 114c0 48 -31 75 -81 75c-60 0 -98 -54 -98 -114c0 -48 31 -75 81 -75z" />
    <glyph glyph-name="uni1EDB" unicode="&#x1edb;" horiz-adv-x="577" 
d="M594 700l-187 -144h-122l152 144h157zM626 550c0 -56 -43 -117 -105 -150c26 -37 40 -82 40 -130c0 -148 -118 -282 -289 -282s-258 100 -258 225c0 148 118 282 289 282c77 0 137 -21 180 -55c22 11 49 29 60 50c-2 -1 -6 -1 -8 -1c-28 0 -53 18 -53 56
c0 41 38 74 77 74c34 0 67 -24 67 -69zM279 147c60 0 98 54 98 114c0 48 -31 75 -81 75c-60 0 -98 -54 -98 -114c0 -48 31 -75 81 -75z" />
    <glyph glyph-name="uni1EDD" unicode="&#x1edd;" horiz-adv-x="577" 
d="M626 550c0 -56 -43 -117 -105 -150c26 -37 40 -82 40 -130c0 -148 -118 -282 -289 -282s-258 100 -258 225c0 148 118 282 289 282c77 0 137 -21 180 -55c22 11 49 29 60 50c-2 -1 -6 -1 -8 -1c-28 0 -53 18 -53 56c0 41 38 74 77 74c34 0 67 -24 67 -69zM279 147
c60 0 98 54 98 114c0 48 -31 75 -81 75c-60 0 -98 -54 -98 -114c0 -48 31 -75 81 -75zM430 556h-120l-123 144h155z" />
    <glyph glyph-name="uni1EDF" unicode="&#x1edf;" horiz-adv-x="577" 
d="M626 550c0 -56 -43 -117 -105 -150c26 -37 40 -82 40 -130c0 -148 -118 -282 -289 -282s-258 100 -258 225c0 148 118 282 289 282c77 0 137 -21 180 -55c22 11 49 29 60 50c-2 -1 -6 -1 -8 -1c-28 0 -53 18 -53 56c0 41 38 74 77 74c34 0 67 -24 67 -69zM279 147
c60 0 98 54 98 114c0 48 -31 75 -81 75c-60 0 -98 -54 -98 -114c0 -48 31 -75 81 -75zM332 577l-51 25c18 32 49 48 89 48c37 0 81 -20 81 -65c0 -19 -10 -43 -20 -58h-71c15 15 24 32 24 48c0 12 -9 21 -22 21c-12 0 -22 -7 -30 -19z" />
    <glyph glyph-name="uni1EE1" unicode="&#x1ee1;" horiz-adv-x="577" 
d="M626 550c0 -56 -43 -117 -105 -150c26 -37 40 -82 40 -130c0 -148 -118 -282 -289 -282s-258 100 -258 225c0 148 118 282 289 282c77 0 137 -21 180 -55c22 11 49 29 60 50c-2 -1 -6 -1 -8 -1c-28 0 -53 18 -53 56c0 41 38 74 77 74c34 0 67 -24 67 -69zM279 147
c60 0 98 54 98 114c0 48 -31 75 -81 75c-60 0 -98 -54 -98 -114c0 -48 31 -75 81 -75zM389 554c-67 0 -86 43 -123 43c-13 0 -23 -12 -28 -37h-90c18 92 50 134 127 134c67 0 87 -43 124 -43c13 0 22 12 28 37h90c-20 -92 -51 -134 -128 -134z" />
    <glyph glyph-name="uni1EE3" unicode="&#x1ee3;" horiz-adv-x="577" 
d="M626 550c0 -56 -43 -117 -105 -150c26 -37 40 -82 40 -130c0 -148 -118 -282 -289 -282s-258 100 -258 225c0 148 118 282 289 282c77 0 137 -21 180 -55c22 11 49 29 60 50c-2 -1 -6 -1 -8 -1c-28 0 -53 18 -53 56c0 41 38 74 77 74c34 0 67 -24 67 -69zM279 147
c60 0 98 54 98 114c0 48 -31 75 -81 75c-60 0 -98 -54 -98 -114c0 -48 31 -75 81 -75zM298 -110c0 -52 -49 -99 -101 -99c-45 0 -79 34 -79 79c0 52 49 99 101 99c45 0 79 -34 79 -79z" />
    <glyph glyph-name="oe" unicode="&#x153;" horiz-adv-x="901" 
d="M877 186h-320v-1c0 -13 34 -60 98 -60c36 0 81 9 103 24l54 -117c-39 -25 -99 -44 -171 -44c-88 0 -156 37 -189 76c-49 -40 -100 -76 -182 -76c-152 0 -256 82 -256 225c0 139 109 282 287 282c82 0 149 -37 183 -77c47 40 98 77 180 77c114 0 224 -69 224 -220
c0 -33 -6 -68 -11 -89zM574 300h155v1c0 19 -16 57 -72 57c-45 0 -77 -35 -83 -58zM373 261c0 51 -33 75 -79 75c-53 0 -96 -46 -96 -114c0 -49 31 -75 79 -75c58 0 96 52 96 114z" />
    <glyph glyph-name="uni1E57" unicode="&#x1e57;" horiz-adv-x="595" 
d="M327 -12c-55 0 -109 20 -140 63l-52 -235h-180l148 667h180l-12 -51c42 46 81 63 131 63c108 0 180 -71 180 -201c0 -134 -83 -306 -255 -306zM295 147c57 0 101 47 101 109c0 48 -37 80 -80 80c-28 0 -52 -12 -73 -33l-28 -123c19 -21 48 -33 80 -33zM479 629
c0 -52 -49 -99 -101 -99c-45 0 -79 34 -79 79c0 52 49 99 101 99c45 0 79 -34 79 -79z" />
    <glyph glyph-name="racute" unicode="&#x155;" horiz-adv-x="390" 
d="M533 700l-187 -144h-122l152 144h157zM176 0h-180l107 483h180l-12 -53c37 38 93 67 163 67l-39 -176c-9 3 -31 8 -54 8c-38 0 -75 -13 -101 -37z" />
    <glyph glyph-name="rcaron" unicode="&#x159;" horiz-adv-x="390" 
d="M378 556h-156l-59 144h103l48 -73l77 73h107zM176 0h-180l107 483h180l-12 -53c37 38 93 67 163 67l-39 -176c-9 3 -31 8 -54 8c-38 0 -75 -13 -101 -37z" />
    <glyph glyph-name="rcommaaccent" unicode="&#x157;" horiz-adv-x="390" 
d="M227 -120c0 -67 -55 -141 -133 -178l-45 46c26 11 68 35 84 63c-2 -1 -8 -1 -10 -1c-32 0 -60 21 -60 64c0 46 44 85 88 85c39 0 76 -27 76 -79zM176 0h-180l107 483h180l-12 -53c37 38 93 67 163 67l-39 -176c-9 3 -31 8 -54 8c-38 0 -75 -13 -101 -37z" />
    <glyph glyph-name="sacute" unicode="&#x15b;" horiz-adv-x="490" 
d="M560 700l-187 -144h-122l152 144h157zM231 -12c-89 0 -187 31 -251 89l92 113c31 -30 109 -74 176 -74c18 0 31 8 31 18c0 55 -235 28 -235 184c0 89 75 177 215 177c81 0 166 -27 225 -78l-84 -109c-25 25 -83 58 -139 58c-26 0 -37 -13 -37 -21c0 -40 235 -25 235 -178
c0 -101 -85 -179 -228 -179z" />
    <glyph glyph-name="scaron" unicode="&#x161;" horiz-adv-x="490" 
d="M403 556h-156l-59 144h103l48 -73l77 73h107zM231 -12c-89 0 -187 31 -251 89l92 113c31 -30 109 -74 176 -74c18 0 31 8 31 18c0 55 -235 28 -235 184c0 89 75 177 215 177c81 0 166 -27 225 -78l-84 -109c-25 25 -83 58 -139 58c-26 0 -37 -13 -37 -21
c0 -40 235 -25 235 -178c0 -101 -85 -179 -228 -179z" />
    <glyph glyph-name="scircumflex" unicode="&#x15d;" horiz-adv-x="490" 
d="M490 556h-103l-48 73l-77 -73h-107l120 144h156zM231 -12c-89 0 -187 31 -251 89l92 113c31 -30 109 -74 176 -74c18 0 31 8 31 18c0 55 -235 28 -235 184c0 89 75 177 215 177c81 0 166 -27 225 -78l-84 -109c-25 25 -83 58 -139 58c-26 0 -37 -13 -37 -21
c0 -40 235 -25 235 -178c0 -101 -85 -179 -228 -179z" />
    <glyph glyph-name="scedilla" unicode="&#x15f;" horiz-adv-x="490" 
d="M179 -200c-58 0 -107 21 -130 44l43 60c25 -21 55 -36 86 -36c21 0 38 7 38 24c0 9 -7 17 -22 17c-11 0 -18 -5 -24 -12l-52 34l38 64c-66 12 -130 40 -176 82l92 113c31 -30 109 -74 176 -74c18 0 31 8 31 18c0 55 -235 28 -235 184c0 89 75 177 215 177
c81 0 166 -27 225 -78l-84 -109c-25 25 -83 58 -139 58c-26 0 -37 -13 -37 -21c0 -40 235 -25 235 -178c0 -101 -85 -179 -228 -179l-23 -35c10 7 17 9 29 9c33 0 60 -25 60 -65c0 -61 -54 -97 -118 -97z" />
    <glyph glyph-name="scommaaccent" unicode="&#x219;" horiz-adv-x="490" 
d="M253 -120c0 -67 -55 -141 -133 -178l-45 46c26 11 68 35 84 63c-2 -1 -8 -1 -10 -1c-32 0 -60 21 -60 64c0 46 44 85 88 85c39 0 76 -27 76 -79zM231 -12c-89 0 -187 31 -251 89l92 113c31 -30 109 -74 176 -74c18 0 31 8 31 18c0 55 -235 28 -235 184
c0 89 75 177 215 177c81 0 166 -27 225 -78l-84 -109c-25 25 -83 58 -139 58c-26 0 -37 -13 -37 -21c0 -40 235 -25 235 -178c0 -101 -85 -179 -228 -179z" />
    <glyph glyph-name="uni1E61" unicode="&#x1e61;" horiz-adv-x="490" 
d="M231 -12c-89 0 -187 31 -251 89l92 113c31 -30 109 -74 176 -74c18 0 31 8 31 18c0 55 -235 28 -235 184c0 89 75 177 215 177c81 0 166 -27 225 -78l-84 -109c-25 25 -83 58 -139 58c-26 0 -37 -13 -37 -21c0 -40 235 -25 235 -178c0 -101 -85 -179 -228 -179zM427 629
c0 -52 -49 -99 -101 -99c-45 0 -79 34 -79 79c0 52 49 99 101 99c45 0 79 -34 79 -79z" />
    <glyph glyph-name="germandbls" unicode="&#xdf;" horiz-adv-x="688" 
d="M661 167c0 -99 -97 -179 -220 -179c-88 0 -164 23 -224 84l91 111c34 -37 79 -61 136 -61c19 0 37 9 37 20c0 45 -195 21 -195 156c0 140 139 150 139 196c0 22 -25 39 -59 39c-57 0 -80 -39 -90 -82l-99 -451h-180l99 451c27 121 109 226 291 226
c122 0 230 -62 230 -158c0 -136 -153 -154 -153 -192c0 -28 197 -16 197 -160z" />
    <glyph glyph-name="longs" unicode="&#x17f;" horiz-adv-x="371" 
d="M213 0h-180l72 327h-80l35 156h79l6 25c22 93 87 169 209 169c53 0 113 -15 149 -52l-84 -100c-13 14 -27 19 -48 19c-27 0 -42 -18 -46 -36z" />
    <glyph glyph-name="tbar" unicode="&#x167;" horiz-adv-x="382" 
d="M240 -12c-104 0 -178 38 -178 122c0 7 1 24 4 38l9 43h-80l21 97h80l9 39h-80l35 156h80l29 132h180l-29 -132h98l-35 -156h-98l-9 -39h66l-21 -97h-65v-5c0 -23 14 -39 45 -39c9 0 22 3 25 5v-144c-19 -13 -53 -20 -86 -20z" />
    <glyph glyph-name="tcaron" unicode="&#x165;" horiz-adv-x="412" 
d="M547 707c0 -67 -55 -141 -133 -178l-45 46c26 11 68 35 84 63c-2 -1 -8 -1 -10 -1c-32 0 -60 21 -60 64c0 46 44 85 88 85c39 0 76 -27 76 -79zM240 -12c-104 0 -178 38 -178 122c0 7 1 24 4 38l39 179h-80l35 156h80l29 132h180l-29 -132h98l-35 -156h-98l-26 -118
c-2 -9 -3 -19 -3 -23c0 -23 14 -39 45 -39c9 0 22 3 25 5v-144c-19 -13 -53 -20 -86 -20z" />
    <glyph glyph-name="tcommaaccent" unicode="&#x163;" horiz-adv-x="382" 
d="M178 -120c0 -67 -55 -141 -133 -178l-45 46c26 11 68 35 84 63c-2 -1 -8 -1 -10 -1c-32 0 -60 21 -60 64c0 46 44 85 88 85c39 0 76 -27 76 -79zM240 -12c-104 0 -178 38 -178 122c0 7 1 24 4 38l39 179h-80l35 156h80l29 132h180l-29 -132h98l-35 -156h-98l-26 -118
c-2 -9 -3 -19 -3 -23c0 -23 14 -39 45 -39c9 0 22 3 25 5v-144c-19 -13 -53 -20 -86 -20z" />
    <glyph glyph-name="uni021B" unicode="&#x21b;" horiz-adv-x="382" 
d="M178 -120c0 -67 -55 -141 -133 -178l-45 46c26 11 68 35 84 63c-2 -1 -8 -1 -10 -1c-32 0 -60 21 -60 64c0 46 44 85 88 85c39 0 76 -27 76 -79zM240 -12c-104 0 -178 38 -178 122c0 7 1 24 4 38l39 179h-80l35 156h80l29 132h180l-29 -132h98l-35 -156h-98l-26 -118
c-2 -9 -3 -19 -3 -23c0 -23 14 -39 45 -39c9 0 22 3 25 5v-144c-19 -13 -53 -20 -86 -20z" />
    <glyph glyph-name="uni1E6B" unicode="&#x1e6b;" horiz-adv-x="382" 
d="M240 -12c-104 0 -178 38 -178 122c0 7 1 24 4 38l39 179h-80l35 156h80l29 132h180l-29 -132h98l-35 -156h-98l-26 -118c-2 -9 -3 -19 -3 -23c0 -23 14 -39 45 -39c9 0 22 3 25 5v-144c-19 -13 -53 -20 -86 -20zM388 796c0 -52 -49 -99 -101 -99c-45 0 -79 34 -79 79
c0 52 49 99 101 99c45 0 79 -34 79 -79z" />
    <glyph glyph-name="uacute" unicode="&#xfa;" horiz-adv-x="606" 
d="M608 700l-187 -144h-122l152 144h157zM102 483h180l-59 -267c-2 -9 -3 -16 -3 -23c0 -33 29 -46 61 -46c36 0 63 21 82 38l66 298h180l-107 -483h-180l13 55c-35 -32 -79 -67 -152 -67c-101 0 -159 55 -159 127c0 8 3 30 5 39z" />
    <glyph glyph-name="ubreve" unicode="&#x16d;" horiz-adv-x="606" 
d="M102 483h180l-59 -267c-2 -9 -3 -16 -3 -23c0 -33 29 -46 61 -46c36 0 63 21 82 38l66 298h180l-107 -483h-180l13 55c-35 -32 -79 -67 -152 -67c-101 0 -159 55 -159 127c0 8 3 30 5 39zM556 612c-52 -54 -122 -88 -194 -88c-71 0 -128 34 -157 88l86 62
c15 -31 44 -53 88 -53c42 0 80 19 112 53z" />
    <glyph glyph-name="ucircumflex" unicode="&#xfb;" horiz-adv-x="606" 
d="M538 556h-103l-48 73l-77 -73h-107l120 144h156zM102 483h180l-59 -267c-2 -9 -3 -16 -3 -23c0 -33 29 -46 61 -46c36 0 63 21 82 38l66 298h180l-107 -483h-180l13 55c-35 -32 -79 -67 -152 -67c-101 0 -159 55 -159 127c0 8 3 30 5 39z" />
    <glyph glyph-name="udieresis" unicode="&#xfc;" horiz-adv-x="606" 
d="M583 628c0 -52 -49 -99 -101 -99c-45 0 -79 34 -79 79c0 52 49 99 101 99c45 0 79 -34 79 -79zM367 628c0 -52 -49 -99 -101 -99c-45 0 -79 34 -79 79c0 52 49 99 101 99c45 0 79 -34 79 -79zM102 483h180l-59 -267c-2 -9 -3 -16 -3 -23c0 -33 29 -46 61 -46
c36 0 63 21 82 38l66 298h180l-107 -483h-180l13 55c-35 -32 -79 -67 -152 -67c-101 0 -159 55 -159 127c0 8 3 30 5 39z" />
    <glyph glyph-name="ugrave" unicode="&#xf9;" horiz-adv-x="606" 
d="M102 483h180l-59 -267c-2 -9 -3 -16 -3 -23c0 -33 29 -46 61 -46c36 0 63 21 82 38l66 298h180l-107 -483h-180l13 55c-35 -32 -79 -67 -152 -67c-101 0 -159 55 -159 127c0 8 3 30 5 39zM442 556h-120l-123 144h155z" />
    <glyph glyph-name="uhungarumlaut" unicode="&#x171;" horiz-adv-x="606" 
d="M102 483h180l-59 -267c-2 -9 -3 -16 -3 -23c0 -33 29 -46 61 -46c36 0 63 21 82 38l66 298h180l-107 -483h-180l13 55c-35 -32 -79 -67 -152 -67c-101 0 -159 55 -159 127c0 8 3 30 5 39zM464 700l-147 -144h-102l112 144h137zM620 700l-147 -144h-102l112 144h137z" />
    <glyph glyph-name="umacron" unicode="&#x16b;" horiz-adv-x="606" 
d="M102 483h180l-59 -267c-2 -9 -3 -16 -3 -23c0 -33 29 -46 61 -46c36 0 63 21 82 38l66 298h180l-107 -483h-180l13 55c-35 -32 -79 -67 -152 -67c-101 0 -159 55 -159 127c0 8 3 30 5 39zM551 551h-362l21 97h362z" />
    <glyph glyph-name="uogonek" unicode="&#x173;" horiz-adv-x="606" 
d="M102 483h180l-59 -267c-2 -9 -3 -16 -3 -23c0 -33 29 -46 61 -46c36 0 63 21 82 38l66 298h180l-107 -483c-58 -26 -86 -59 -86 -92c0 -16 11 -26 27 -26s29 12 39 27l55 -49c-26 -29 -58 -46 -98 -46c-54 0 -105 26 -105 81c0 35 15 74 50 105h-62l13 55
c-35 -32 -79 -67 -152 -67c-101 0 -159 55 -159 127c0 8 3 30 5 39z" />
    <glyph glyph-name="uring" unicode="&#x16f;" horiz-adv-x="606" 
d="M378 519c-61 0 -102 41 -102 102c0 66 56 122 122 122c61 0 102 -41 102 -102c0 -66 -56 -122 -122 -122zM386 597c19 0 36 17 36 36s-13 32 -32 32s-36 -17 -36 -36s13 -32 32 -32zM102 483h180l-59 -267c-2 -9 -3 -16 -3 -23c0 -33 29 -46 61 -46c36 0 63 21 82 38
l66 298h180l-107 -483h-180l13 55c-35 -32 -79 -67 -152 -67c-101 0 -159 55 -159 127c0 8 3 30 5 39z" />
    <glyph glyph-name="utilde" unicode="&#x169;" horiz-adv-x="606" 
d="M102 483h180l-59 -267c-2 -9 -3 -16 -3 -23c0 -33 29 -46 61 -46c36 0 63 21 82 38l66 298h180l-107 -483h-180l13 55c-35 -32 -79 -67 -152 -67c-101 0 -159 55 -159 127c0 8 3 30 5 39zM443 554c-67 0 -86 43 -123 43c-13 0 -23 -12 -28 -37h-90c18 92 50 134 127 134
c67 0 87 -43 124 -43c13 0 22 12 28 37h90c-20 -92 -51 -134 -128 -134z" />
    <glyph glyph-name="uni1EE5" unicode="&#x1ee5;" horiz-adv-x="606" 
d="M102 483h180l-59 -267c-2 -9 -3 -16 -3 -23c0 -33 29 -46 61 -46c36 0 63 21 82 38l66 298h180l-107 -483h-180l13 55c-35 -32 -79 -67 -152 -67c-101 0 -159 55 -159 127c0 8 3 30 5 39zM311 -110c0 -52 -49 -99 -101 -99c-45 0 -79 34 -79 79c0 52 49 99 101 99
c45 0 79 -34 79 -79z" />
    <glyph glyph-name="uhorn" unicode="&#x1b0;" horiz-adv-x="606" 
d="M694 570c0 -61 -42 -113 -98 -146l-94 -424h-180l13 55c-35 -32 -79 -67 -152 -67c-101 0 -159 55 -159 127c0 8 3 30 5 39l73 329h180l-59 -267c-2 -9 -3 -16 -3 -23c0 -33 29 -46 65 -46c32 0 59 21 78 38l66 298h158c10 8 19 17 24 27c-2 -1 -6 -1 -8 -1
c-28 0 -53 18 -53 56c0 41 38 74 77 74c34 0 67 -24 67 -69z" />
    <glyph glyph-name="uni1EE7" unicode="&#x1ee7;" horiz-adv-x="606" 
d="M102 483h180l-59 -267c-2 -9 -3 -16 -3 -23c0 -33 29 -46 61 -46c36 0 63 21 82 38l66 298h180l-107 -483h-180l13 55c-35 -32 -79 -67 -152 -67c-101 0 -159 55 -159 127c0 8 3 30 5 39zM344 577l-51 25c18 32 49 48 89 48c37 0 81 -20 81 -65c0 -19 -10 -43 -20 -58
h-71c15 15 24 32 24 48c0 12 -9 21 -22 21c-12 0 -22 -7 -30 -19z" />
    <glyph glyph-name="uni1EE9" unicode="&#x1ee9;" horiz-adv-x="606" 
d="M608 700l-187 -144h-122l152 144h157zM694 570c0 -61 -42 -113 -98 -146l-94 -424h-180l13 55c-35 -32 -79 -67 -152 -67c-101 0 -159 55 -159 127c0 8 3 30 5 39l73 329h180l-59 -267c-2 -9 -3 -16 -3 -23c0 -33 29 -46 65 -46c32 0 59 21 78 38l66 298h158
c10 8 19 17 24 27c-2 -1 -6 -1 -8 -1c-28 0 -53 18 -53 56c0 41 38 74 77 74c34 0 67 -24 67 -69z" />
    <glyph glyph-name="uni1EEB" unicode="&#x1eeb;" horiz-adv-x="606" 
d="M442 556h-120l-123 144h155zM694 570c0 -61 -42 -113 -98 -146l-94 -424h-180l13 55c-35 -32 -79 -67 -152 -67c-101 0 -159 55 -159 127c0 8 3 30 5 39l73 329h180l-59 -267c-2 -9 -3 -16 -3 -23c0 -33 29 -46 65 -46c32 0 59 21 78 38l66 298h158c10 8 19 17 24 27
c-2 -1 -6 -1 -8 -1c-28 0 -53 18 -53 56c0 41 38 74 77 74c34 0 67 -24 67 -69z" />
    <glyph glyph-name="uni1EED" unicode="&#x1eed;" horiz-adv-x="606" 
d="M344 577l-51 25c18 32 49 48 89 48c37 0 81 -20 81 -65c0 -19 -10 -43 -20 -58h-71c15 15 24 32 24 48c0 12 -9 21 -22 21c-12 0 -22 -7 -30 -19zM694 570c0 -61 -42 -113 -98 -146l-94 -424h-180l13 55c-35 -32 -79 -67 -152 -67c-101 0 -159 55 -159 127c0 8 3 30 5 39
l73 329h180l-59 -267c-2 -9 -3 -16 -3 -23c0 -33 29 -46 65 -46c32 0 59 21 78 38l66 298h158c10 8 19 17 24 27c-2 -1 -6 -1 -8 -1c-28 0 -53 18 -53 56c0 41 38 74 77 74c34 0 67 -24 67 -69z" />
    <glyph glyph-name="uni1EEF" unicode="&#x1eef;" horiz-adv-x="606" 
d="M694 570c0 -61 -42 -113 -98 -146l-94 -424h-180l13 55c-35 -32 -79 -67 -152 -67c-101 0 -159 55 -159 127c0 8 3 30 5 39l73 329h180l-59 -267c-2 -9 -3 -16 -3 -23c0 -33 29 -46 65 -46c32 0 59 21 78 38l66 298h158c10 8 19 17 24 27c-2 -1 -6 -1 -8 -1
c-28 0 -53 18 -53 56c0 41 38 74 77 74c34 0 67 -24 67 -69zM443 554c-67 0 -86 43 -123 43c-13 0 -23 -12 -28 -37h-90c18 92 50 134 127 134c67 0 87 -43 124 -43c13 0 22 12 28 37h90c-20 -92 -51 -134 -128 -134z" />
    <glyph glyph-name="uni1EF1" unicode="&#x1ef1;" horiz-adv-x="606" 
d="M311 -110c0 -52 -49 -99 -101 -99c-45 0 -79 34 -79 79c0 52 49 99 101 99c45 0 79 -34 79 -79zM694 570c0 -61 -42 -113 -98 -146l-94 -424h-180l13 55c-35 -32 -79 -67 -152 -67c-101 0 -159 55 -159 127c0 8 3 30 5 39l73 329h180l-59 -267c-2 -9 -3 -16 -3 -23
c0 -33 29 -46 65 -46c32 0 59 21 78 38l66 298h158c10 8 19 17 24 27c-2 -1 -6 -1 -8 -1c-28 0 -53 18 -53 56c0 41 38 74 77 74c34 0 67 -24 67 -69z" />
    <glyph glyph-name="wacute" unicode="&#x1e83;" horiz-adv-x="805" 
d="M703 700l-187 -144h-122l152 144h157zM623 0h-196l-20 270l-137 -270h-196l-33 483h180l5 -266l144 266h161l25 -266l123 266h191z" />
    <glyph glyph-name="wcircumflex" unicode="&#x175;" horiz-adv-x="805" 
d="M635 556h-103l-48 73l-77 -73h-107l120 144h156zM623 0h-196l-20 270l-137 -270h-196l-33 483h180l5 -266l144 266h161l25 -266l123 266h191z" />
    <glyph glyph-name="wdieresis" unicode="&#x1e85;" horiz-adv-x="805" 
d="M678 628c0 -52 -49 -99 -101 -99c-45 0 -79 34 -79 79c0 52 49 99 101 99c45 0 79 -34 79 -79zM462 628c0 -52 -49 -99 -101 -99c-45 0 -79 34 -79 79c0 52 49 99 101 99c45 0 79 -34 79 -79zM623 0h-196l-20 270l-137 -270h-196l-33 483h180l5 -266l144 266h161l25 -266
l123 266h191z" />
    <glyph glyph-name="wgrave" unicode="&#x1e81;" horiz-adv-x="805" 
d="M623 0h-196l-20 270l-137 -270h-196l-33 483h180l5 -266l144 266h161l25 -266l123 266h191zM538 556h-120l-123 144h155z" />
    <glyph glyph-name="yacute" unicode="&#xfd;" horiz-adv-x="535" 
d="M-49 -183l57 153c12 -5 33 -7 51 -7c25 0 40 6 49 19l10 16l-80 485h185l30 -276l155 276h195l-331 -543c-63 -104 -126 -136 -223 -136c-34 0 -70 4 -98 13zM566 700l-187 -144h-122l152 144h157z" />
    <glyph glyph-name="ycircumflex" unicode="&#x177;" horiz-adv-x="535" 
d="M-49 -183l57 153c12 -5 33 -7 51 -7c25 0 40 6 49 19l10 16l-80 485h185l30 -276l155 276h195l-331 -543c-63 -104 -126 -136 -223 -136c-34 0 -70 4 -98 13zM498 556h-103l-48 73l-77 -73h-107l120 144h156z" />
    <glyph glyph-name="ydieresis" unicode="&#xff;" horiz-adv-x="535" 
d="M-49 -183l57 153c12 -5 33 -7 51 -7c25 0 40 6 49 19l10 16l-80 485h185l30 -276l155 276h195l-331 -543c-63 -104 -126 -136 -223 -136c-34 0 -70 4 -98 13zM542 628c0 -52 -49 -99 -101 -99c-45 0 -79 34 -79 79c0 52 49 99 101 99c45 0 79 -34 79 -79zM326 628
c0 -52 -49 -99 -101 -99c-45 0 -79 34 -79 79c0 52 49 99 101 99c45 0 79 -34 79 -79z" />
    <glyph glyph-name="ygrave" unicode="&#x1ef3;" horiz-adv-x="535" 
d="M-49 -183l57 153c12 -5 33 -7 51 -7c25 0 40 6 49 19l10 16l-80 485h185l30 -276l155 276h195l-331 -543c-63 -104 -126 -136 -223 -136c-34 0 -70 4 -98 13zM402 556h-120l-123 144h155z" />
    <glyph glyph-name="yacute.alt1" horiz-adv-x="606" 
d="M606 700l-187 -144h-122l152 144h157zM223 -196c-100 0 -189 26 -251 86l101 119c30 -39 101 -58 147 -58c71 0 97 37 113 102l8 33c-35 -31 -76 -66 -151 -66c-94 0 -159 47 -159 128c0 9 1 19 5 38l67 297h180l-53 -236c-2 -10 -3 -19 -3 -22c0 -37 32 -46 65 -46
c34 0 59 20 78 37l59 267h180l-92 -412c-32 -145 -113 -267 -294 -267z" />
    <glyph glyph-name="ycircumflex.alt1" horiz-adv-x="606" 
d="M539 556h-103l-48 73l-77 -73h-107l120 144h156zM223 -196c-100 0 -189 26 -251 86l101 119c30 -39 101 -58 147 -58c71 0 97 37 113 102l8 33c-35 -31 -76 -66 -151 -66c-94 0 -159 47 -159 128c0 9 1 19 5 38l67 297h180l-53 -236c-2 -10 -3 -19 -3 -22
c0 -37 32 -46 65 -46c34 0 59 20 78 37l59 267h180l-92 -412c-32 -145 -113 -267 -294 -267z" />
    <glyph glyph-name="ydieresis.alt1" horiz-adv-x="606" 
d="M582 628c0 -52 -49 -99 -101 -99c-45 0 -79 34 -79 79c0 52 49 99 101 99c45 0 79 -34 79 -79zM366 628c0 -52 -49 -99 -101 -99c-45 0 -79 34 -79 79c0 52 49 99 101 99c45 0 79 -34 79 -79zM223 -196c-100 0 -189 26 -251 86l101 119c30 -39 101 -58 147 -58
c71 0 97 37 113 102l8 33c-35 -31 -76 -66 -151 -66c-94 0 -159 47 -159 128c0 9 1 19 5 38l67 297h180l-53 -236c-2 -10 -3 -19 -3 -22c0 -37 32 -46 65 -46c34 0 59 20 78 37l59 267h180l-92 -412c-32 -145 -113 -267 -294 -267z" />
    <glyph glyph-name="ygrave.alt1" horiz-adv-x="606" 
d="M223 -196c-100 0 -189 26 -251 86l101 119c30 -39 101 -58 147 -58c71 0 97 37 113 102l8 33c-35 -31 -76 -66 -151 -66c-94 0 -159 47 -159 128c0 9 1 19 5 38l67 297h180l-53 -236c-2 -10 -3 -19 -3 -22c0 -37 32 -46 65 -46c34 0 59 20 78 37l59 267h180l-92 -412
c-32 -145 -113 -267 -294 -267zM441 556h-120l-123 144h155z" />
    <glyph glyph-name="zacute" unicode="&#x17a;" horiz-adv-x="486" 
d="M545 700l-187 -144h-122l152 144h157zM399 0h-420l29 132l208 195h-165l35 156h416l-28 -126l-214 -201h173z" />
    <glyph glyph-name="zcaron" unicode="&#x17e;" horiz-adv-x="486" 
d="M388 556h-156l-59 144h103l48 -73l77 73h107zM399 0h-420l29 132l208 195h-165l35 156h416l-28 -126l-214 -201h173z" />
    <glyph glyph-name="zdotaccent" unicode="&#x17c;" horiz-adv-x="486" 
d="M399 0h-420l29 132l208 195h-165l35 156h416l-28 -126l-214 -201h173zM414 629c0 -52 -49 -99 -101 -99c-45 0 -79 34 -79 79c0 52 49 99 101 99c45 0 79 -34 79 -79z" />
    <glyph glyph-name="eth" unicode="&#xf0;" horiz-adv-x="577" 
d="M128 458l-16 78l111 32l-42 33l125 130c45 -36 84 -70 117 -104l105 31l17 -76l-66 -20c64 -84 92 -167 92 -253c0 -171 -105 -321 -296 -321c-160 0 -265 81 -265 214c0 134 101 239 236 239c86 0 136 -43 162 -111c-5 53 -56 118 -116 177zM278 147c56 0 91 30 91 75
c0 36 -32 61 -88 61c-55 0 -87 -35 -87 -75c0 -41 29 -61 84 -61z" />
    <glyph glyph-name="thorn" unicode="&#xfe;" horiz-adv-x="595" 
d="M327 -12c-55 0 -109 20 -140 63l-52 -235h-180l188 851h180l-52 -235c42 46 81 63 131 63c108 0 180 -71 180 -201c0 -134 -83 -306 -255 -306zM295 147c57 0 101 47 101 109c0 48 -37 80 -80 80c-28 0 -52 -12 -73 -33l-28 -123c19 -21 48 -33 80 -33z" />
    <glyph glyph-name="Aacute.smcp" unicode="&#xf7e1;" horiz-adv-x="621" 
d="M628 750l-187 -144h-122l152 144h157zM264 550h228l92 -550h-206l-7 61h-198l-33 -61h-211zM354 222l-15 143l-78 -143h93z" />
    <glyph glyph-name="Abreve.smcp" unicode="&#xf66d;" horiz-adv-x="621" 
d="M264 550h228l92 -550h-206l-7 61h-198l-33 -61h-211zM354 222l-15 143l-78 -143h93zM577 662c-52 -54 -122 -88 -194 -88c-71 0 -128 34 -157 88l86 62c15 -31 44 -53 88 -53c42 0 80 19 112 53z" />
    <glyph glyph-name="Acircumflex.smcp" unicode="&#xf7e2;" horiz-adv-x="621" 
d="M559 606h-103l-48 73l-77 -73h-107l120 144h156zM264 550h228l92 -550h-206l-7 61h-198l-33 -61h-211zM354 222l-15 143l-78 -143h93z" />
    <glyph glyph-name="Adieresis.smcp" unicode="&#xf7e4;" horiz-adv-x="621" 
d="M603 678c0 -52 -49 -99 -101 -99c-45 0 -79 34 -79 79c0 52 49 99 101 99c45 0 79 -34 79 -79zM387 678c0 -52 -49 -99 -101 -99c-45 0 -79 34 -79 79c0 52 49 99 101 99c45 0 79 -34 79 -79zM264 550h228l92 -550h-206l-7 61h-198l-33 -61h-211zM354 222l-15 143
l-78 -143h93z" />
    <glyph glyph-name="Agrave.smcp" unicode="&#xf7e0;" horiz-adv-x="621" 
d="M264 550h228l92 -550h-206l-7 61h-198l-33 -61h-211zM354 222l-15 143l-78 -143h93zM460 606h-120l-123 144h155z" />
    <glyph glyph-name="Amacron.smcp" unicode="&#xf66e;" horiz-adv-x="621" 
d="M571 601h-362l21 97h362zM264 550h228l92 -550h-206l-7 61h-198l-33 -61h-211zM354 222l-15 143l-78 -143h93z" />
    <glyph glyph-name="Aogonek.smcp" unicode="&#xf66f;" horiz-adv-x="621" 
d="M264 550h228l92 -550c-58 -26 -86 -59 -86 -92c0 -16 11 -26 27 -26s29 12 39 27l55 -49c-26 -29 -58 -46 -98 -46c-54 0 -105 26 -105 81c0 35 15 74 50 105h-88l-7 61h-198l-33 -61h-211zM354 222l-15 143l-78 -143h93z" />
    <glyph glyph-name="Aring.smcp" unicode="&#xf7e5;" horiz-adv-x="621" 
d="M397 569c-61 0 -102 41 -102 102c0 66 56 122 122 122c61 0 102 -41 102 -102c0 -66 -56 -122 -122 -122zM405 647c19 0 36 17 36 36s-13 32 -32 32s-36 -17 -36 -36s13 -32 32 -32zM264 550h228l92 -550h-206l-7 61h-198l-33 -61h-211zM354 222l-15 143l-78 -143h93z
" />
    <glyph glyph-name="Atilde.smcp" unicode="&#xf7e3;" horiz-adv-x="621" 
d="M264 550h228l92 -550h-206l-7 61h-198l-33 -61h-211zM354 222l-15 143l-78 -143h93zM463 604c-67 0 -86 43 -123 43c-13 0 -23 -12 -28 -37h-90c18 92 50 134 127 134c67 0 87 -43 124 -43c13 0 22 12 28 37h90c-20 -92 -51 -134 -128 -134z" />
    <glyph glyph-name="uni1EA0.smcp" horiz-adv-x="621" 
d="M264 550h228l92 -550h-206l-7 61h-198l-33 -61h-211zM354 222l-15 143l-78 -143h93zM319 -110c0 -52 -49 -99 -101 -99c-45 0 -79 34 -79 79c0 52 49 99 101 99c45 0 79 -34 79 -79z" />
    <glyph glyph-name="uni1EA2.smcp" horiz-adv-x="621" 
d="M264 550h228l92 -550h-206l-7 61h-198l-33 -61h-211zM354 222l-15 143l-78 -143h93zM365 630l-51 25c18 32 49 48 89 48c37 0 81 -20 81 -65c0 -19 -10 -43 -20 -58h-71c15 15 24 32 24 48c0 12 -9 21 -22 21c-12 0 -22 -7 -30 -19z" />
    <glyph glyph-name="uni1EA4.smcp" horiz-adv-x="621" 
d="M558 606h-103l-48 73l-77 -73h-107l120 144h156zM843 820l-187 -144h-122l152 144h157zM264 550h228l92 -550h-206l-7 61h-198l-33 -61h-211zM354 222l-15 143l-78 -143h93z" />
    <glyph glyph-name="uni1EAC.smcp" horiz-adv-x="621" 
d="M557 606h-103l-48 73l-77 -73h-107l120 144h156zM264 550h228l92 -550h-206l-7 61h-198l-33 -61h-211zM354 222l-15 143l-78 -143h93zM319 -110c0 -52 -49 -99 -101 -99c-45 0 -79 34 -79 79c0 52 49 99 101 99c45 0 79 -34 79 -79z" />
    <glyph glyph-name="uni1EA6.smcp" horiz-adv-x="621" 
d="M557 606h-103l-48 73l-77 -73h-107l120 144h156zM264 550h228l92 -550h-206l-7 61h-198l-33 -61h-211zM354 222l-15 143l-78 -143h93zM275 676h-120l-123 144h155z" />
    <glyph glyph-name="uni1EA8.smcp" horiz-adv-x="621" 
d="M558 606h-103l-48 73l-77 -73h-107l120 144h156zM264 550h228l92 -550h-206l-7 61h-198l-33 -61h-211zM354 222l-15 143l-78 -143h93zM503 767l-51 25c18 32 49 48 89 48c37 0 81 -20 81 -65c0 -19 -10 -43 -20 -58h-71c15 15 24 32 24 48c0 12 -9 21 -22 21
c-12 0 -22 -7 -30 -19z" />
    <glyph glyph-name="uni1EAE.smcp" horiz-adv-x="621" 
d="M643 840l-187 -144h-122l152 144h157zM264 550h228l92 -550h-206l-7 61h-198l-33 -61h-211zM354 222l-15 143l-78 -143h93zM573 649c-52 -54 -122 -88 -194 -88c-71 0 -128 34 -157 88l86 62c15 -31 44 -53 88 -53c42 0 80 19 112 53z" />
    <glyph glyph-name="uni1EAA.smcp" horiz-adv-x="621" 
d="M550 573h-103l-48 73l-77 -73h-107l120 144h156zM264 550h228l92 -550h-206l-7 61h-198l-33 -61h-211zM354 222l-15 143l-78 -143h93zM490 732c-67 0 -86 43 -123 43c-13 0 -23 -12 -28 -37h-90c18 92 50 134 127 134c67 0 87 -43 124 -43c13 0 22 12 28 37h90
c-20 -92 -51 -134 -128 -134z" />
    <glyph glyph-name="uni1EB0.smcp" horiz-adv-x="621" 
d="M264 550h228l92 -550h-206l-7 61h-198l-33 -61h-211zM354 222l-15 143l-78 -143h93zM476 701h-120l-123 144h155zM573 649c-52 -54 -122 -88 -194 -88c-71 0 -128 34 -157 88l86 62c15 -31 44 -53 88 -53c42 0 80 19 112 53z" />
    <glyph glyph-name="uni1EB2.smcp" horiz-adv-x="621" 
d="M264 550h228l92 -550h-206l-7 61h-198l-33 -61h-211zM354 222l-15 143l-78 -143h93zM383 767l-51 25c18 32 49 48 89 48c37 0 81 -20 81 -65c0 -19 -10 -43 -20 -58h-71c15 15 24 32 24 48c0 12 -9 21 -22 21c-12 0 -22 -7 -30 -19zM573 649c-52 -54 -122 -88 -194 -88
c-71 0 -128 34 -157 88l86 62c15 -31 44 -53 88 -53c42 0 80 19 112 53z" />
    <glyph glyph-name="uni1EB4.smcp" horiz-adv-x="621" 
d="M574 649c-52 -54 -122 -88 -194 -88c-71 0 -128 34 -157 88l86 62c15 -31 44 -53 88 -53c42 0 80 19 112 53zM264 550h228l92 -550h-206l-7 61h-198l-33 -61h-211zM354 222l-15 143l-78 -143h93zM490 727c-67 0 -86 43 -123 43c-13 0 -23 -12 -28 -37h-90
c18 92 50 134 127 134c67 0 87 -43 124 -43c13 0 22 12 28 37h90c-20 -92 -51 -134 -128 -134z" />
    <glyph glyph-name="uni1EB6.smcp" horiz-adv-x="621" 
d="M264 550h228l92 -550h-206l-7 61h-198l-33 -61h-211zM354 222l-15 143l-78 -143h93zM319 -110c0 -52 -49 -99 -101 -99c-45 0 -79 34 -79 79c0 52 49 99 101 99c45 0 79 -34 79 -79zM577 662c-52 -54 -122 -88 -194 -88c-71 0 -128 34 -157 88l86 62
c15 -31 44 -53 88 -53c42 0 80 19 112 53z" />
    <glyph glyph-name="AE.smcp" unicode="&#xf7e6;" horiz-adv-x="869" 
d="M783 0h-448l13 61h-163l-46 -61h-211l454 550h522l-35 -155h-262l-8 -40h255l-34 -155h-255l-9 -45h262zM384 222l31 143l-107 -143h76z" />
    <glyph glyph-name="AEacute.smcp" unicode="&#xf670;" horiz-adv-x="869" 
d="M798 750l-187 -144h-122l152 144h157zM783 0h-448l13 61h-163l-46 -61h-211l454 550h522l-35 -155h-262l-8 -40h255l-34 -155h-255l-9 -45h262zM384 222l31 143l-107 -143h76z" />
    <glyph glyph-name="uni1E02.smcp" horiz-adv-x="618" 
d="M383 0h-387l121 550h326c113 0 177 -56 177 -128c0 -66 -49 -136 -124 -144c53 -18 80 -61 80 -105c0 -96 -71 -173 -193 -173zM217 151h142c17 0 30 13 30 29c0 13 -11 23 -24 23h-138zM386 353h5c18 0 29 14 29 26c0 10 -8 20 -20 20h-129l-10 -46h125zM498 679
c0 -52 -49 -99 -101 -99c-45 0 -79 34 -79 79c0 52 49 99 101 99c45 0 79 -34 79 -79z" />
    <glyph glyph-name="Cacute.smcp" unicode="&#xf671;" horiz-adv-x="588" 
d="M641 750l-187 -144h-122l152 144h157zM304 -12c-178 0 -287 111 -287 252c0 174 141 322 334 322c138 0 229 -79 254 -183l-170 -56c-9 43 -44 76 -92 76c-73 0 -135 -67 -135 -144c0 -65 44 -104 106 -104c48 0 85 30 108 71l142 -81c-42 -77 -135 -153 -260 -153z" />
    <glyph glyph-name="Ccaron.smcp" unicode="&#xf672;" horiz-adv-x="588" 
d="M484 606h-156l-59 144h103l48 -73l77 73h107zM304 -12c-178 0 -287 111 -287 252c0 174 141 322 334 322c138 0 229 -79 254 -183l-170 -56c-9 43 -44 76 -92 76c-73 0 -135 -67 -135 -144c0 -65 44 -104 106 -104c48 0 85 30 108 71l142 -81
c-42 -77 -135 -153 -260 -153z" />
    <glyph glyph-name="Ccedilla.smcp" unicode="&#xf7e7;" horiz-adv-x="588" 
d="M251 -200c-58 0 -107 21 -130 44l43 60c25 -21 55 -36 86 -36c21 0 38 7 38 24c0 9 -7 17 -22 17c-11 0 -18 -5 -24 -12l-52 34l38 64c-133 27 -211 125 -211 245c0 174 141 322 334 322c138 0 229 -79 254 -183l-170 -56c-9 43 -44 76 -92 76c-73 0 -135 -67 -135 -144
c0 -65 44 -104 106 -104c48 0 85 30 108 71l142 -81c-42 -77 -135 -153 -260 -153h-1l-23 -35c10 7 17 9 29 9c33 0 60 -25 60 -65c0 -61 -54 -97 -118 -97z" />
    <glyph glyph-name="Ccircumflex.smcp" unicode="&#xf673;" horiz-adv-x="588" 
d="M572 606h-103l-48 73l-77 -73h-107l120 144h156zM304 -12c-178 0 -287 111 -287 252c0 174 141 322 334 322c138 0 229 -79 254 -183l-170 -56c-9 43 -44 76 -92 76c-73 0 -135 -67 -135 -144c0 -65 44 -104 106 -104c48 0 85 30 108 71l142 -81
c-42 -77 -135 -153 -260 -153z" />
    <glyph glyph-name="Cdotaccent.smcp" unicode="&#xf674;" horiz-adv-x="588" 
d="M304 -12c-178 0 -287 111 -287 252c0 174 141 322 334 322c138 0 229 -79 254 -183l-170 -56c-9 43 -44 76 -92 76c-73 0 -135 -67 -135 -144c0 -65 44 -104 106 -104c48 0 85 30 108 71l142 -81c-42 -77 -135 -153 -260 -153zM509 679c0 -52 -49 -99 -101 -99
c-45 0 -79 34 -79 79c0 52 49 99 101 99c45 0 79 -34 79 -79z" />
    <glyph glyph-name="Dcaron.smcp" unicode="&#xf675;" horiz-adv-x="637" 
d="M484 606h-156l-59 144h103l48 -73l77 73h107zM275 0h-279l121 550h224c153 0 293 -75 293 -233c0 -132 -75 -317 -359 -317zM297 161h13c101 0 134 80 134 140c0 58 -44 88 -123 88h-53l-49 -228h78z" />
    <glyph glyph-name="Dcroat.smcp" unicode="&#xf676;" horiz-adv-x="637" 
d="M275 0h-279l46 212h-44l28 126h44l47 212h224c153 0 293 -75 293 -233c0 -132 -75 -317 -359 -317zM310 161c101 0 134 80 134 140c0 58 -44 88 -123 88h-53l-11 -51h92l-28 -126h-91l-11 -51h91z" />
    <glyph glyph-name="uni1E0A.smcp" horiz-adv-x="637" 
d="M275 0h-279l121 550h224c153 0 293 -75 293 -233c0 -132 -75 -317 -359 -317zM297 161h13c101 0 134 80 134 140c0 58 -44 88 -123 88h-53l-49 -228h78zM509 679c0 -52 -49 -99 -101 -99c-45 0 -79 34 -79 79c0 52 49 99 101 99c45 0 79 -34 79 -79z" />
    <glyph glyph-name="Eacute.smcp" unicode="&#xf7e9;" horiz-adv-x="530" 
d="M591 750l-187 -144h-122l152 144h157zM444 0h-448l121 550h448l-35 -155h-260l-9 -40h255l-34 -155h-255l-10 -45h261z" />
    <glyph glyph-name="Ebreve.smcp" unicode="&#xf677;" horiz-adv-x="530" 
d="M444 0h-448l121 550h448l-35 -155h-260l-9 -40h255l-34 -155h-255l-10 -45h261zM539 662c-52 -54 -122 -88 -194 -88c-71 0 -128 34 -157 88l86 62c15 -31 44 -53 88 -53c42 0 80 19 112 53z" />
    <glyph glyph-name="Ecaron.smcp" unicode="&#xf678;" horiz-adv-x="530" 
d="M433 606h-156l-59 144h103l48 -73l77 73h107zM444 0h-448l121 550h448l-35 -155h-260l-9 -40h255l-34 -155h-255l-10 -45h261z" />
    <glyph glyph-name="Ecircumflex.smcp" unicode="&#xf7ea;" horiz-adv-x="530" 
d="M521 606h-103l-48 73l-77 -73h-107l120 144h156zM444 0h-448l121 550h448l-35 -155h-260l-9 -40h255l-34 -155h-255l-10 -45h261z" />
    <glyph glyph-name="Edieresis.smcp" unicode="&#xf7eb;" horiz-adv-x="530" 
d="M565 678c0 -52 -49 -99 -101 -99c-45 0 -79 34 -79 79c0 52 49 99 101 99c45 0 79 -34 79 -79zM349 678c0 -52 -49 -99 -101 -99c-45 0 -79 34 -79 79c0 52 49 99 101 99c45 0 79 -34 79 -79zM444 0h-448l121 550h448l-35 -155h-260l-9 -40h255l-34 -155h-255l-10 -45
h261z" />
    <glyph glyph-name="Edotaccent.smcp" unicode="&#xf679;" horiz-adv-x="530" 
d="M444 0h-448l121 550h448l-35 -155h-260l-9 -40h255l-34 -155h-255l-10 -45h261zM457 679c0 -52 -49 -99 -101 -99c-45 0 -79 34 -79 79c0 52 49 99 101 99c45 0 79 -34 79 -79z" />
    <glyph glyph-name="Egrave.smcp" unicode="&#xf7e8;" horiz-adv-x="530" 
d="M444 0h-448l121 550h448l-35 -155h-260l-9 -40h255l-34 -155h-255l-10 -45h261zM423 606h-120l-123 144h155z" />
    <glyph glyph-name="Emacron.smcp" unicode="&#xf67a;" horiz-adv-x="530" 
d="M444 0h-448l121 550h448l-35 -155h-260l-9 -40h255l-34 -155h-255l-10 -45h261zM534 601h-362l21 97h362z" />
    <glyph glyph-name="Eogonek.smcp" unicode="&#xf67c;" horiz-adv-x="530" 
d="M424 -91l55 -49c-26 -29 -58 -46 -98 -46c-54 0 -105 26 -105 81c0 35 15 74 50 105h-330l121 550h448l-35 -155h-260l-9 -40h255l-34 -155h-255l-10 -45h261l-34 -155c-58 -26 -86 -59 -86 -92c0 -16 11 -26 27 -26s29 12 39 27z" />
    <glyph glyph-name="uni1EB8.smcp" horiz-adv-x="530" 
d="M444 0h-448l121 550h448l-35 -155h-260l-9 -40h255l-34 -155h-255l-10 -45h261zM282 -110c0 -52 -49 -99 -101 -99c-45 0 -79 34 -79 79c0 52 49 99 101 99c45 0 79 -34 79 -79z" />
    <glyph glyph-name="uni1EBA.smcp" horiz-adv-x="530" 
d="M444 0h-448l121 550h448l-35 -155h-260l-9 -40h255l-34 -155h-255l-10 -45h261zM328 630l-51 25c18 32 49 48 89 48c37 0 81 -20 81 -65c0 -19 -10 -43 -20 -58h-71c15 15 24 32 24 48c0 12 -9 21 -22 21c-12 0 -22 -7 -30 -19z" />
    <glyph glyph-name="uni1EBC.smcp" horiz-adv-x="530" 
d="M444 0h-448l121 550h448l-35 -155h-260l-9 -40h255l-34 -155h-255l-10 -45h261zM426 604c-67 0 -86 43 -123 43c-13 0 -23 -12 -28 -37h-90c18 92 50 134 127 134c67 0 87 -43 124 -43c13 0 22 12 28 37h90c-20 -92 -51 -134 -128 -134z" />
    <glyph glyph-name="uni1EBE.smcp" horiz-adv-x="530" 
d="M520 606h-103l-48 73l-77 -73h-107l120 144h156zM805 820l-187 -144h-122l152 144h157zM444 0h-448l121 550h448l-35 -155h-260l-9 -40h255l-34 -155h-255l-10 -45h261z" />
    <glyph glyph-name="uni1EC0.smcp" horiz-adv-x="530" 
d="M520 606h-103l-48 73l-77 -73h-107l120 144h156zM444 0h-448l121 550h448l-35 -155h-260l-9 -40h255l-34 -155h-255l-10 -45h261zM238 676h-120l-123 144h155z" />
    <glyph glyph-name="uni1EC2.smcp" horiz-adv-x="530" 
d="M520 606h-103l-48 73l-77 -73h-107l120 144h156zM444 0h-448l121 550h448l-35 -155h-260l-9 -40h255l-34 -155h-255l-10 -45h261zM465 767l-51 25c18 32 49 48 89 48c37 0 81 -20 81 -65c0 -19 -10 -43 -20 -58h-71c15 15 24 32 24 48c0 12 -9 21 -22 21
c-12 0 -22 -7 -30 -19z" />
    <glyph glyph-name="uni1EC4.smcp" horiz-adv-x="530" 
d="M513 573h-103l-48 73l-77 -73h-107l120 144h156zM444 0h-448l121 550h448l-35 -155h-260l-9 -40h255l-34 -155h-255l-10 -45h261zM453 732c-67 0 -86 43 -123 43c-13 0 -23 -12 -28 -37h-90c18 92 50 134 127 134c67 0 87 -43 124 -43c13 0 22 12 28 37h90
c-20 -92 -51 -134 -128 -134z" />
    <glyph glyph-name="uni1EC6.smcp" horiz-adv-x="530" 
d="M520 606h-103l-48 73l-77 -73h-107l120 144h156zM444 0h-448l121 550h448l-35 -155h-260l-9 -40h255l-34 -155h-255l-10 -45h261zM282 -110c0 -52 -49 -99 -101 -99c-45 0 -79 34 -79 79c0 52 49 99 101 99c45 0 79 -34 79 -79z" />
    <glyph glyph-name="uni1E1E.smcp" horiz-adv-x="526" 
d="M457 679c0 -52 -49 -99 -101 -99c-45 0 -79 34 -79 79c0 52 49 99 101 99c45 0 79 -34 79 -79zM183 0h-187l121 550h448l-34 -155h-261l-9 -40h255l-34 -155h-255z" />
    <glyph glyph-name="Gbreve.smcp" unicode="&#xf67d;" horiz-adv-x="606" 
d="M311 -12c-163 0 -294 94 -294 250c0 171 137 324 336 324c119 0 212 -64 242 -148l-168 -70c-11 30 -42 54 -89 54c-78 0 -129 -67 -129 -142c0 -65 50 -105 112 -105c31 0 45 6 55 11l6 27h-92l32 144h278l-58 -264c-64 -48 -140 -81 -231 -81zM592 662
c-52 -54 -122 -88 -194 -88c-71 0 -128 34 -157 88l86 62c15 -31 44 -53 88 -53c42 0 80 19 112 53z" />
    <glyph glyph-name="Gcircumflex.smcp" unicode="&#xf67e;" horiz-adv-x="606" 
d="M311 -12c-163 0 -294 94 -294 250c0 171 137 324 336 324c119 0 212 -64 242 -148l-168 -70c-11 30 -42 54 -89 54c-78 0 -129 -67 -129 -142c0 -65 50 -105 112 -105c31 0 45 6 55 11l6 27h-92l32 144h278l-58 -264c-64 -48 -140 -81 -231 -81zM574 606h-103l-48 73
l-77 -73h-107l120 144h156z" />
    <glyph glyph-name="Gcommaaccent.smcp" unicode="&#xf67f;" horiz-adv-x="606" 
d="M311 -12c-163 0 -294 94 -294 250c0 171 137 324 336 324c119 0 212 -64 242 -148l-168 -70c-11 30 -42 54 -89 54c-78 0 -129 -67 -129 -142c0 -65 50 -105 112 -105c31 0 45 6 55 11l6 27h-92l32 144h278l-58 -264c-64 -48 -140 -81 -231 -81zM326 -120
c0 -67 -55 -141 -133 -178l-45 46c26 11 68 35 84 63c-2 -1 -8 -1 -10 -1c-32 0 -60 21 -60 64c0 46 44 85 88 85c39 0 76 -27 76 -79z" />
    <glyph glyph-name="Gdotaccent.smcp" unicode="&#xf680;" horiz-adv-x="606" 
d="M311 -12c-163 0 -294 94 -294 250c0 171 137 324 336 324c119 0 212 -64 242 -148l-168 -70c-11 30 -42 54 -89 54c-78 0 -129 -67 -129 -142c0 -65 50 -105 112 -105c31 0 45 6 55 11l6 27h-92l32 144h278l-58 -264c-64 -48 -140 -81 -231 -81zM510 679
c0 -52 -49 -99 -101 -99c-45 0 -79 34 -79 79c0 52 49 99 101 99c45 0 79 -34 79 -79z" />
    <glyph glyph-name="Gbreve.smcp.alt1" horiz-adv-x="621" 
d="M302 -12c-161 0 -285 97 -285 254c0 186 158 320 338 320c119 0 210 -67 241 -148l-169 -70c-8 30 -43 54 -84 54c-77 0 -135 -68 -135 -140c0 -70 46 -107 114 -107c32 0 67 15 85 36h-117l32 146h305c-34 -234 -172 -345 -325 -345zM592 662c-52 -54 -122 -88 -194 -88
c-71 0 -128 34 -157 88l86 62c15 -31 44 -53 88 -53c42 0 80 19 112 53z" />
    <glyph glyph-name="Gcommaaccent.smcp.alt1" horiz-adv-x="621" 
d="M324 -120c0 -67 -55 -141 -133 -178l-45 46c26 11 68 35 84 63c-2 -1 -8 -1 -10 -1c-32 0 -60 21 -60 64c0 46 44 85 88 85c39 0 76 -27 76 -79zM302 -12c-161 0 -285 97 -285 254c0 186 158 320 338 320c119 0 210 -67 241 -148l-169 -70c-8 30 -43 54 -84 54
c-77 0 -135 -68 -135 -140c0 -70 46 -107 114 -107c32 0 67 15 85 36h-117l32 146h305c-34 -234 -172 -345 -325 -345z" />
    <glyph glyph-name="Gcircumflex.smcp.alt1" horiz-adv-x="621" 
d="M573 606h-103l-48 73l-77 -73h-107l120 144h156zM302 -12c-161 0 -285 97 -285 254c0 186 158 320 338 320c119 0 210 -67 241 -148l-169 -70c-8 30 -43 54 -84 54c-77 0 -135 -68 -135 -140c0 -70 46 -107 114 -107c32 0 67 15 85 36h-117l32 146h305
c-34 -234 -172 -345 -325 -345z" />
    <glyph glyph-name="Gdotaccent.smcp.alt1" horiz-adv-x="621" 
d="M302 -12c-161 0 -285 97 -285 254c0 186 158 320 338 320c119 0 210 -67 241 -148l-169 -70c-8 30 -43 54 -84 54c-77 0 -135 -68 -135 -140c0 -70 46 -107 114 -107c32 0 67 15 85 36h-117l32 146h305c-34 -234 -172 -345 -325 -345zM511 679c0 -52 -49 -99 -101 -99
c-45 0 -79 34 -79 79c0 52 49 99 101 99c45 0 79 -34 79 -79z" />
    <glyph glyph-name="Hbar.smcp" unicode="&#xf682;" horiz-adv-x="666" 
d="M562 0h-186l44 200h-193l-44 -200h-187l90 411h-49l21 97h50l9 42h187l-9 -42h193l9 42h186l-9 -42h46l-21 -97h-47zM263 361h193l11 50h-193z" />
    <glyph glyph-name="Hcircumflex.smcp" unicode="&#xf681;" horiz-adv-x="666" 
d="M579 606h-103l-48 73l-77 -73h-107l120 144h156zM562 0h-186l44 200h-193l-44 -200h-187l121 550h187l-41 -189h193l41 189h186z" />
    <glyph glyph-name="uni1E22.smcp" horiz-adv-x="666" 
d="M562 0h-186l44 200h-193l-44 -200h-187l121 550h187l-41 -189h193l41 189h186zM516 679c0 -52 -49 -99 -101 -99c-45 0 -79 34 -79 79c0 52 49 99 101 99c45 0 79 -34 79 -79z" />
    <glyph glyph-name="Iacute.smcp" unicode="&#xf7ed;" horiz-adv-x="287" 
d="M460 750l-187 -144h-122l152 144h157zM183 0h-187l121 550h187z" />
    <glyph glyph-name="Ibreve.smcp" unicode="&#xf683;" horiz-adv-x="287" 
d="M183 0h-187l121 550h187zM410 662c-52 -54 -122 -88 -194 -88c-71 0 -128 34 -157 88l86 62c15 -31 44 -53 88 -53c42 0 80 19 112 53z" />
    <glyph glyph-name="Igrave.smcp" unicode="&#xf7ec;" horiz-adv-x="287" 
d="M183 0h-187l121 550h187zM294 606h-120l-123 144h155z" />
    <glyph glyph-name="Icircumflex.smcp" unicode="&#xf7ee;" horiz-adv-x="287" 
d="M391 606h-103l-48 73l-77 -73h-107l120 144h156zM183 0h-187l121 550h187z" />
    <glyph glyph-name="Idieresis.smcp" unicode="&#xf7ef;" horiz-adv-x="287" 
d="M436 678c0 -52 -49 -99 -101 -99c-45 0 -79 34 -79 79c0 52 49 99 101 99c45 0 79 -34 79 -79zM220 678c0 -52 -49 -99 -101 -99c-45 0 -79 34 -79 79c0 52 49 99 101 99c45 0 79 -34 79 -79zM183 0h-187l121 550h187z" />
    <glyph glyph-name="Idotaccent.smcp" unicode="&#xf6ad;" horiz-adv-x="287" 
d="M183 0h-187l121 550h187zM328 679c0 -52 -49 -99 -101 -99c-45 0 -79 34 -79 79c0 52 49 99 101 99c45 0 79 -34 79 -79z" />
    <glyph glyph-name="Imacron.smcp" unicode="&#xf685;" horiz-adv-x="287" 
d="M405 601h-362l21 97h362zM183 0h-187l121 550h187z" />
    <glyph glyph-name="Iogonek.smcp" unicode="&#xf686;" horiz-adv-x="287" 
d="M183 0c-58 -26 -86 -59 -86 -92c0 -16 11 -26 27 -26s29 12 39 27l55 -49c-26 -29 -58 -46 -98 -46c-54 0 -105 26 -105 81c0 35 15 74 50 105h-69l121 550h187z" />
    <glyph glyph-name="Itilde.smcp" unicode="&#xf687;" horiz-adv-x="287" 
d="M183 0h-187l121 550h187zM296 604c-67 0 -86 43 -123 43c-13 0 -23 -12 -28 -37h-90c18 92 50 134 127 134c67 0 87 -43 124 -43c13 0 22 12 28 37h90c-20 -92 -51 -134 -128 -134z" />
    <glyph glyph-name="uni1EC8.smcp" horiz-adv-x="287" 
d="M183 0h-187l121 550h187zM198 630l-51 25c18 32 49 48 89 48c37 0 81 -20 81 -65c0 -19 -10 -43 -20 -58h-71c15 15 24 32 24 48c0 12 -9 21 -22 21c-12 0 -22 -7 -30 -19z" />
    <glyph glyph-name="uni1ECA.smcp" horiz-adv-x="287" 
d="M183 0h-187l121 550h187zM153 -110c0 -52 -49 -99 -101 -99c-45 0 -79 34 -79 79c0 52 49 99 101 99c45 0 79 -34 79 -79z" />
    <glyph glyph-name="IJ.smcp" unicode="&#xf684;" horiz-adv-x="731" 
d="M434 -12c-76 0 -146 21 -189 65l100 133c15 -20 44 -35 71 -35c40 0 63 23 71 62l74 337h187l-78 -355c-34 -153 -108 -207 -236 -207zM183 0h-187l121 550h187z" />
    <glyph glyph-name="Jcircumflex.smcp" unicode="&#xf688;" horiz-adv-x="444" 
d="M548 606h-103l-48 73l-77 -73h-107l120 144h156zM147 -12c-76 0 -146 21 -189 65l100 133c15 -20 44 -35 71 -35c40 0 63 23 71 62l74 337h187l-78 -355c-34 -153 -108 -207 -236 -207z" />
    <glyph glyph-name="Kcommaaccent.smcp" unicode="&#xf689;" horiz-adv-x="598" 
d="M303 -120c0 -67 -55 -141 -133 -178l-45 46c26 11 68 35 84 63c-2 -1 -8 -1 -10 -1c-32 0 -60 21 -60 64c0 46 44 85 88 85c39 0 76 -27 76 -79zM556 0h-221l-85 187l-33 -33l-34 -154h-187l121 550h187l-41 -187l179 187h226l-274 -256z" />
    <glyph glyph-name="Lacute.smcp" unicode="&#xf68a;" horiz-adv-x="479" 
d="M400 0h-404l121 550h187l-86 -389h217zM569 750l-187 -144h-122l152 144h157z" />
    <glyph glyph-name="Lcaron.smcp" unicode="&#xf68b;" horiz-adv-x="479" 
d="M495 481c0 -67 -55 -141 -133 -178l-45 46c26 11 68 35 84 63c-2 -1 -8 -1 -10 -1c-32 0 -60 21 -60 64c0 46 44 85 88 85c39 0 76 -27 76 -79zM400 0h-404l121 550h187l-86 -389h217z" />
    <glyph glyph-name="Lcommaaccent.smcp" unicode="&#xf68c;" horiz-adv-x="479" 
d="M260 -120c0 -67 -55 -141 -133 -178l-45 46c26 11 68 35 84 63c-2 -1 -8 -1 -10 -1c-32 0 -60 21 -60 64c0 46 44 85 88 85c39 0 76 -27 76 -79zM400 0h-404l121 550h187l-86 -389h217z" />
    <glyph glyph-name="Ldot.smcp" unicode="&#xf68d;" horiz-adv-x="526" 
d="M400 0h-404l121 550h187l-86 -389h217zM414 208c-54 0 -97 45 -97 99c0 63 54 116 117 116c54 0 97 -45 97 -99c0 -63 -54 -116 -117 -116z" />
    <glyph glyph-name="Lslash.smcp" unicode="&#xf6f9;" horiz-adv-x="479" 
d="M-22 109l35 160l47 24l57 257h187l-33 -149l75 38l-36 -161l-75 -38l-17 -79h217l-35 -161h-404l29 133z" />
    <glyph glyph-name="Nacute.smcp" unicode="&#xf68e;" horiz-adv-x="665" 
d="M649 750l-187 -144h-122l152 144h157zM561 0h-192l-125 281l-62 -281h-186l121 550h203l117 -265l59 265h186z" />
    <glyph glyph-name="Ncaron.smcp" unicode="&#xf68f;" horiz-adv-x="665" 
d="M491 606h-156l-59 144h103l48 -73l77 73h107zM561 0h-192l-125 281l-62 -281h-186l121 550h203l117 -265l59 265h186z" />
    <glyph glyph-name="Ncommaaccent.smcp" unicode="&#xf690;" horiz-adv-x="665" 
d="M330 -120c0 -67 -55 -141 -133 -178l-45 46c26 11 68 35 84 63c-2 -1 -8 -1 -10 -1c-32 0 -60 21 -60 64c0 46 44 85 88 85c39 0 76 -27 76 -79zM561 0h-192l-125 281l-62 -281h-186l121 550h203l117 -265l59 265h186z" />
    <glyph glyph-name="Ntilde.smcp" unicode="&#xf7f1;" horiz-adv-x="665" 
d="M561 0h-192l-125 281l-62 -281h-186l121 550h203l117 -265l59 265h186zM485 604c-67 0 -86 43 -123 43c-13 0 -23 -12 -28 -37h-90c18 92 50 134 127 134c67 0 87 -43 124 -43c13 0 22 12 28 37h90c-20 -92 -51 -134 -128 -134z" />
    <glyph glyph-name="Eng.smcp" unicode="&#xf67b;" horiz-adv-x="665" 
d="M327 -196c-72 0 -144 19 -189 65l100 135c15 -20 44 -35 71 -35c28 0 48 11 60 31l-125 281l-62 -281h-186l121 550h203l117 -265l59 265h186l-119 -539c-29 -139 -95 -207 -236 -207z" />
    <glyph glyph-name="Oacute.smcp" unicode="&#xf7f3;" horiz-adv-x="647" 
d="M310 -12c-171 0 -293 104 -293 255c0 173 143 319 332 319c171 0 293 -104 293 -255c0 -173 -143 -319 -332 -319zM315 151c81 0 136 71 136 142c0 58 -41 106 -107 106c-81 0 -136 -71 -136 -142c0 -58 41 -106 107 -106zM640 750l-187 -144h-122l152 144h157z" />
    <glyph glyph-name="Obreve.smcp" unicode="&#xf691;" horiz-adv-x="647" 
d="M310 -12c-171 0 -293 104 -293 255c0 173 143 319 332 319c171 0 293 -104 293 -255c0 -173 -143 -319 -332 -319zM315 151c81 0 136 71 136 142c0 58 -41 106 -107 106c-81 0 -136 -71 -136 -142c0 -58 41 -106 107 -106zM589 662c-52 -54 -122 -88 -194 -88
c-71 0 -128 34 -157 88l86 62c15 -31 44 -53 88 -53c42 0 80 19 112 53z" />
    <glyph glyph-name="Ocircumflex.smcp" unicode="&#xf7f4;" horiz-adv-x="647" 
d="M310 -12c-171 0 -293 104 -293 255c0 173 143 319 332 319c171 0 293 -104 293 -255c0 -173 -143 -319 -332 -319zM315 151c81 0 136 71 136 142c0 58 -41 106 -107 106c-81 0 -136 -71 -136 -142c0 -58 41 -106 107 -106zM570 606h-103l-48 73l-77 -73h-107l120 144h156
z" />
    <glyph glyph-name="Odieresis.smcp" unicode="&#xf7f6;" horiz-adv-x="647" 
d="M310 -12c-171 0 -293 104 -293 255c0 173 143 319 332 319c171 0 293 -104 293 -255c0 -173 -143 -319 -332 -319zM315 151c81 0 136 71 136 142c0 58 -41 106 -107 106c-81 0 -136 -71 -136 -142c0 -58 41 -106 107 -106zM616 678c0 -52 -49 -99 -101 -99
c-45 0 -79 34 -79 79c0 52 49 99 101 99c45 0 79 -34 79 -79zM400 678c0 -52 -49 -99 -101 -99c-45 0 -79 34 -79 79c0 52 49 99 101 99c45 0 79 -34 79 -79z" />
    <glyph glyph-name="Ograve.smcp" unicode="&#xf7f2;" horiz-adv-x="647" 
d="M310 -12c-171 0 -293 104 -293 255c0 173 143 319 332 319c171 0 293 -104 293 -255c0 -173 -143 -319 -332 -319zM315 151c81 0 136 71 136 142c0 58 -41 106 -107 106c-81 0 -136 -71 -136 -142c0 -58 41 -106 107 -106zM474 606h-120l-123 144h155z" />
    <glyph glyph-name="Ohungarumlaut.smcp" unicode="&#xf692;" horiz-adv-x="647" 
d="M310 -12c-171 0 -293 104 -293 255c0 173 143 319 332 319c171 0 293 -104 293 -255c0 -173 -143 -319 -332 -319zM315 151c81 0 136 71 136 142c0 58 -41 106 -107 106c-81 0 -136 -71 -136 -142c0 -58 41 -106 107 -106zM496 750l-147 -144h-102l112 144h137zM652 750
l-147 -144h-102l112 144h137z" />
    <glyph glyph-name="Omacron.smcp" unicode="&#xf693;" horiz-adv-x="647" 
d="M310 -12c-171 0 -293 104 -293 255c0 173 143 319 332 319c171 0 293 -104 293 -255c0 -173 -143 -319 -332 -319zM315 151c81 0 136 71 136 142c0 58 -41 106 -107 106c-81 0 -136 -71 -136 -142c0 -58 41 -106 107 -106zM584 601h-362l21 97h362z" />
    <glyph glyph-name="Otilde.smcp" unicode="&#xf7f5;" horiz-adv-x="647" 
d="M310 -12c-171 0 -293 104 -293 255c0 173 143 319 332 319c171 0 293 -104 293 -255c0 -173 -143 -319 -332 -319zM315 151c81 0 136 71 136 142c0 58 -41 106 -107 106c-81 0 -136 -71 -136 -142c0 -58 41 -106 107 -106zM476 604c-67 0 -86 43 -123 43
c-13 0 -23 -12 -28 -37h-90c18 92 50 134 127 134c67 0 87 -43 124 -43c13 0 22 12 28 37h90c-20 -92 -51 -134 -128 -134z" />
    <glyph glyph-name="Oslash.smcp" unicode="&#xf7f8;" horiz-adv-x="647" 
d="M310 -12c-65 0 -123 15 -169 41l-31 -29h-144l100 94c-31 41 -49 91 -49 149c0 173 143 319 332 319c64 0 121 -15 167 -41l31 29h144l-99 -94c32 -41 50 -91 50 -149c0 -173 -143 -319 -332 -319zM315 151c81 0 136 71 136 142c0 9 -1 18 -3 27l-172 -163
c12 -4 25 -6 39 -6zM208 257c0 -9 0 -18 2 -26l171 162c-11 4 -24 6 -37 6c-81 0 -136 -71 -136 -142z" />
    <glyph glyph-name="Oslashacute.smcp" unicode="&#xf694;" horiz-adv-x="647" 
d="M310 -12c-65 0 -123 15 -169 41l-31 -29h-144l100 94c-31 41 -49 91 -49 149c0 173 143 319 332 319c64 0 121 -15 167 -41l31 29h144l-99 -94c32 -41 50 -91 50 -149c0 -173 -143 -319 -332 -319zM315 151c81 0 136 71 136 142c0 9 -1 18 -3 27l-172 -163
c12 -4 25 -6 39 -6zM208 257c0 -9 0 -18 2 -26l171 162c-11 4 -24 6 -37 6c-81 0 -136 -71 -136 -142zM640 750l-187 -144h-122l152 144h157z" />
    <glyph glyph-name="uni1ECC.smcp" horiz-adv-x="647" 
d="M310 -12c-171 0 -293 104 -293 255c0 173 143 319 332 319c171 0 293 -104 293 -255c0 -173 -143 -319 -332 -319zM315 151c81 0 136 71 136 142c0 58 -41 106 -107 106c-81 0 -136 -71 -136 -142c0 -58 41 -106 107 -106zM333 -110c0 -52 -49 -99 -101 -99
c-45 0 -79 34 -79 79c0 52 49 99 101 99c45 0 79 -34 79 -79z" />
    <glyph glyph-name="uni1ECE.smcp" horiz-adv-x="647" 
d="M310 -12c-171 0 -293 104 -293 255c0 173 143 319 332 319c171 0 293 -104 293 -255c0 -173 -143 -319 -332 -319zM315 151c81 0 136 71 136 142c0 58 -41 106 -107 106c-81 0 -136 -71 -136 -142c0 -58 41 -106 107 -106zM377 630l-51 25c18 32 49 48 89 48
c37 0 81 -20 81 -65c0 -19 -10 -43 -20 -58h-71c15 15 24 32 24 48c0 12 -9 21 -22 21c-12 0 -22 -7 -30 -19z" />
    <glyph glyph-name="uni1ED0.smcp" horiz-adv-x="647" 
d="M310 -12c-171 0 -293 104 -293 255c0 173 143 319 332 319c171 0 293 -104 293 -255c0 -173 -143 -319 -332 -319zM315 151c81 0 136 71 136 142c0 58 -41 106 -107 106c-81 0 -136 -71 -136 -142c0 -58 41 -106 107 -106zM569 606h-103l-48 73l-77 -73h-107l120 144h156
zM854 820l-187 -144h-122l152 144h157z" />
    <glyph glyph-name="uni1ED2.smcp" horiz-adv-x="647" 
d="M310 -12c-171 0 -293 104 -293 255c0 173 143 319 332 319c171 0 293 -104 293 -255c0 -173 -143 -319 -332 -319zM315 151c81 0 136 71 136 142c0 58 -41 106 -107 106c-81 0 -136 -71 -136 -142c0 -58 41 -106 107 -106zM569 606h-103l-48 73l-77 -73h-107l120 144h156
zM287 676h-120l-123 144h155z" />
    <glyph glyph-name="uni1ED4.smcp" horiz-adv-x="647" 
d="M310 -12c-171 0 -293 104 -293 255c0 173 143 319 332 319c171 0 293 -104 293 -255c0 -173 -143 -319 -332 -319zM315 151c81 0 136 71 136 142c0 58 -41 106 -107 106c-81 0 -136 -71 -136 -142c0 -58 41 -106 107 -106zM570 606h-103l-48 73l-77 -73h-107l120 144h156
zM515 767l-51 25c18 32 49 48 89 48c37 0 81 -20 81 -65c0 -19 -10 -43 -20 -58h-71c15 15 24 32 24 48c0 12 -9 21 -22 21c-12 0 -22 -7 -30 -19z" />
    <glyph glyph-name="uni1ED6.smcp" horiz-adv-x="647" 
d="M310 -12c-171 0 -293 104 -293 255c0 173 143 319 332 319c171 0 293 -104 293 -255c0 -173 -143 -319 -332 -319zM315 151c81 0 136 71 136 142c0 58 -41 106 -107 106c-81 0 -136 -71 -136 -142c0 -58 41 -106 107 -106zM561 573h-103l-48 73l-77 -73h-107l120 144h156
zM504 732c-67 0 -86 43 -123 43c-13 0 -23 -12 -28 -37h-90c18 92 50 134 127 134c67 0 87 -43 124 -43c13 0 22 12 28 37h90c-20 -92 -51 -134 -128 -134z" />
    <glyph glyph-name="uni1ED8.smcp" horiz-adv-x="647" 
d="M310 -12c-171 0 -293 104 -293 255c0 173 143 319 332 319c171 0 293 -104 293 -255c0 -173 -143 -319 -332 -319zM315 151c81 0 136 71 136 142c0 58 -41 106 -107 106c-81 0 -136 -71 -136 -142c0 -58 41 -106 107 -106zM570 606h-103l-48 73l-77 -73h-107l120 144h156
zM331 -110c0 -52 -49 -99 -101 -99c-45 0 -79 34 -79 79c0 52 49 99 101 99c45 0 79 -34 79 -79z" />
    <glyph glyph-name="Ohorn.smcp" horiz-adv-x="647" 
d="M310 -12c-171 0 -293 104 -293 255c0 173 143 319 332 319c90 0 166 -29 218 -78c21 11 44 28 54 47c-2 -1 -6 -1 -8 -1c-28 0 -53 18 -53 56c0 41 38 74 77 74c34 0 67 -24 67 -69c0 -55 -41 -114 -102 -148c26 -39 40 -85 40 -136c0 -173 -143 -319 -332 -319zM315 151
c81 0 136 71 136 142c0 58 -41 106 -107 106c-81 0 -136 -71 -136 -142c0 -58 41 -106 107 -106z" />
    <glyph glyph-name="uni1EDA.smcp" horiz-adv-x="647" 
d="M310 -12c-171 0 -293 104 -293 255c0 173 143 319 332 319c90 0 166 -29 218 -78c21 11 44 28 54 47c-2 -1 -6 -1 -8 -1c-28 0 -53 18 -53 56c0 41 38 74 77 74c34 0 67 -24 67 -69c0 -55 -41 -114 -102 -148c26 -39 40 -85 40 -136c0 -173 -143 -319 -332 -319zM315 151
c81 0 136 71 136 142c0 58 -41 106 -107 106c-81 0 -136 -71 -136 -142c0 -58 41 -106 107 -106zM640 750l-187 -144h-122l152 144h157z" />
    <glyph glyph-name="uni1EDC.smcp" horiz-adv-x="647" 
d="M310 -12c-171 0 -293 104 -293 255c0 173 143 319 332 319c90 0 166 -29 218 -78c21 11 44 28 54 47c-2 -1 -6 -1 -8 -1c-28 0 -53 18 -53 56c0 41 38 74 77 74c34 0 67 -24 67 -69c0 -55 -41 -114 -102 -148c26 -39 40 -85 40 -136c0 -173 -143 -319 -332 -319zM315 151
c81 0 136 71 136 142c0 58 -41 106 -107 106c-81 0 -136 -71 -136 -142c0 -58 41 -106 107 -106zM474 606h-120l-123 144h155z" />
    <glyph glyph-name="uni1EDE.smcp" horiz-adv-x="647" 
d="M310 -12c-171 0 -293 104 -293 255c0 173 143 319 332 319c90 0 166 -29 218 -78c21 11 44 28 54 47c-2 -1 -6 -1 -8 -1c-28 0 -53 18 -53 56c0 41 38 74 77 74c34 0 67 -24 67 -69c0 -55 -41 -114 -102 -148c26 -39 40 -85 40 -136c0 -173 -143 -319 -332 -319zM315 151
c81 0 136 71 136 142c0 58 -41 106 -107 106c-81 0 -136 -71 -136 -142c0 -58 41 -106 107 -106zM377 630l-51 25c18 32 49 48 89 48c37 0 81 -20 81 -65c0 -19 -10 -43 -20 -58h-71c15 15 24 32 24 48c0 12 -9 21 -22 21c-12 0 -22 -7 -30 -19z" />
    <glyph glyph-name="uni1EE0.smcp" horiz-adv-x="647" 
d="M310 -12c-171 0 -293 104 -293 255c0 173 143 319 332 319c90 0 166 -29 218 -78c21 11 44 28 54 47c-2 -1 -6 -1 -8 -1c-28 0 -53 18 -53 56c0 41 38 74 77 74c34 0 67 -24 67 -69c0 -55 -41 -114 -102 -148c26 -39 40 -85 40 -136c0 -173 -143 -319 -332 -319zM315 151
c81 0 136 71 136 142c0 58 -41 106 -107 106c-81 0 -136 -71 -136 -142c0 -58 41 -106 107 -106zM476 604c-67 0 -86 43 -123 43c-13 0 -23 -12 -28 -37h-90c18 92 50 134 127 134c67 0 87 -43 124 -43c13 0 22 12 28 37h90c-20 -92 -51 -134 -128 -134z" />
    <glyph glyph-name="uni1EE2.smcp" horiz-adv-x="647" 
d="M310 -12c-171 0 -293 104 -293 255c0 173 143 319 332 319c90 0 166 -29 218 -78c21 11 44 28 54 47c-2 -1 -6 -1 -8 -1c-28 0 -53 18 -53 56c0 41 38 74 77 74c34 0 67 -24 67 -69c0 -55 -41 -114 -102 -148c26 -39 40 -85 40 -136c0 -173 -143 -319 -332 -319zM315 151
c81 0 136 71 136 142c0 58 -41 106 -107 106c-81 0 -136 -71 -136 -142c0 -58 41 -106 107 -106zM333 -110c0 -52 -49 -99 -101 -99c-45 0 -79 34 -79 79c0 52 49 99 101 99c45 0 79 -34 79 -79z" />
    <glyph glyph-name="OE.smcp" unicode="&#xf6fa;" horiz-adv-x="905" 
d="M819 0h-448l7 36c-21 -28 -74 -48 -124 -48c-136 0 -237 107 -237 255c0 171 140 319 334 319c51 0 106 -20 133 -48l8 36h448l-35 -155h-261l-8 -40h255l-34 -155h-255l-9 -45h261zM414 196l31 141c-14 39 -55 62 -99 62c-82 0 -138 -68 -138 -142
c0 -61 43 -106 107 -106c39 0 74 16 99 45z" />
    <glyph glyph-name="uni1E56.smcp" horiz-adv-x="585" 
d="M183 0h-187l121 550h280c129 0 208 -71 208 -172c0 -107 -84 -214 -221 -214h-165zM255 325h116c24 0 42 17 42 37c0 17 -14 27 -33 27h-111zM494 679c0 -52 -49 -99 -101 -99c-45 0 -79 34 -79 79c0 52 49 99 101 99c45 0 79 -34 79 -79z" />
    <glyph glyph-name="Racute.smcp" unicode="&#xf695;" horiz-adv-x="602" 
d="M628 750l-187 -144h-122l152 144h157zM523 0h-207l-39 164h-58l-36 -164h-187l121 550h279c137 0 211 -71 211 -167c0 -104 -70 -181 -148 -205zM364 325h6c24 0 43 18 43 38c0 14 -8 26 -32 26h-112l-14 -64h109z" />
    <glyph glyph-name="Rcaron.smcp" unicode="&#xf696;" horiz-adv-x="602" 
d="M471 606h-156l-59 144h103l48 -73l77 73h107zM523 0h-207l-39 164h-58l-36 -164h-187l121 550h279c137 0 211 -71 211 -167c0 -104 -70 -181 -148 -205zM364 325h6c24 0 43 18 43 38c0 14 -8 26 -32 26h-112l-14 -64h109z" />
    <glyph glyph-name="Rcommaaccent.smcp" unicode="&#xf697;" horiz-adv-x="602" 
d="M310 -120c0 -67 -55 -141 -133 -178l-45 46c26 11 68 35 84 63c-2 -1 -8 -1 -10 -1c-32 0 -60 21 -60 64c0 46 44 85 88 85c39 0 76 -27 76 -79zM523 0h-207l-39 164h-58l-36 -164h-187l121 550h279c137 0 211 -71 211 -167c0 -104 -70 -181 -148 -205zM364 325h6
c24 0 43 18 43 38c0 14 -8 26 -32 26h-112l-14 -64h109z" />
    <glyph glyph-name="Sacute.smcp" unicode="&#xf698;" horiz-adv-x="528" 
d="M586 750l-187 -144h-122l152 144h157zM259 -12c-120 0 -227 34 -288 95l96 131c40 -45 122 -75 202 -75c30 0 40 13 40 25c0 48 -263 30 -263 208c0 86 88 190 243 190c107 0 206 -41 262 -96l-98 -119c-45 40 -112 65 -172 65c-30 0 -38 -16 -38 -24
c0 -47 263 -31 263 -210c0 -96 -86 -190 -247 -190z" />
    <glyph glyph-name="Scaron.smcp" unicode="&#xf6fd;" horiz-adv-x="528" 
d="M428 606h-156l-59 144h103l48 -73l77 73h107zM259 -12c-120 0 -227 34 -288 95l96 131c40 -45 122 -75 202 -75c30 0 40 13 40 25c0 48 -263 30 -263 208c0 86 88 190 243 190c107 0 206 -41 262 -96l-98 -119c-45 40 -112 65 -172 65c-30 0 -38 -16 -38 -24
c0 -47 263 -31 263 -210c0 -96 -86 -190 -247 -190z" />
    <glyph glyph-name="Scircumflex.smcp" unicode="&#xf69a;" horiz-adv-x="528" 
d="M516 606h-103l-48 73l-77 -73h-107l120 144h156zM259 -12c-120 0 -227 34 -288 95l96 131c40 -45 122 -75 202 -75c30 0 40 13 40 25c0 48 -263 30 -263 208c0 86 88 190 243 190c107 0 206 -41 262 -96l-98 -119c-45 40 -112 65 -172 65c-30 0 -38 -16 -38 -24
c0 -47 263 -31 263 -210c0 -96 -86 -190 -247 -190z" />
    <glyph glyph-name="Scedilla.smcp" unicode="&#xf699;" horiz-adv-x="528" 
d="M201 -200c-58 0 -107 21 -130 44l43 60c25 -21 55 -36 86 -36c21 0 38 7 38 24c0 9 -7 17 -22 17c-11 0 -18 -5 -24 -12l-52 34l37 63c-86 11 -160 42 -206 89l96 131c40 -45 122 -75 202 -75c30 0 40 13 40 25c0 48 -263 30 -263 208c0 86 88 190 243 190
c107 0 206 -41 262 -96l-98 -119c-45 40 -112 65 -172 65c-30 0 -38 -16 -38 -24c0 -47 263 -31 263 -210c0 -96 -86 -190 -247 -190h-6l-23 -35c10 7 17 9 29 9c33 0 60 -25 60 -65c0 -61 -54 -97 -118 -97z" />
    <glyph glyph-name="Scommaaccent.smcp" unicode="&#xf69b;" horiz-adv-x="528" 
d="M268 -120c0 -67 -55 -141 -133 -178l-45 46c26 11 68 35 84 63c-2 -1 -8 -1 -10 -1c-32 0 -60 21 -60 64c0 46 44 85 88 85c39 0 76 -27 76 -79zM259 -12c-120 0 -227 34 -288 95l96 131c40 -45 122 -75 202 -75c30 0 40 13 40 25c0 48 -263 30 -263 208
c0 86 88 190 243 190c107 0 206 -41 262 -96l-98 -119c-45 40 -112 65 -172 65c-30 0 -38 -16 -38 -24c0 -47 263 -31 263 -210c0 -96 -86 -190 -247 -190z" />
    <glyph glyph-name="uni1E60.smcp" horiz-adv-x="528" 
d="M259 -12c-120 0 -227 34 -288 95l96 131c40 -45 122 -75 202 -75c30 0 40 13 40 25c0 48 -263 30 -263 208c0 86 88 190 243 190c107 0 206 -41 262 -96l-98 -119c-45 40 -112 65 -172 65c-30 0 -38 -16 -38 -24c0 -47 263 -31 263 -210c0 -96 -86 -190 -247 -190z
M455 679c0 -52 -49 -99 -101 -99c-45 0 -79 34 -79 79c0 52 49 99 101 99c45 0 79 -34 79 -79z" />
    <glyph glyph-name="Tbar.smcp" unicode="&#xf69c;" horiz-adv-x="501" 
d="M290 0h-186l37 171h-88l22 97h87l27 121h-143l36 161h471l-36 -161h-142l-27 -121h89l-22 -97h-88z" />
    <glyph glyph-name="Tcaron.smcp" unicode="&#xf69d;" horiz-adv-x="501" 
d="M411 606h-156l-59 144h103l48 -73l77 73h107zM290 0h-186l85 389h-143l36 161h471l-36 -161h-142z" />
    <glyph glyph-name="Tcommaaccent.smcp" unicode="&#xf69e;" horiz-adv-x="501" 
d="M253 -120c0 -67 -55 -141 -133 -178l-45 46c26 11 68 35 84 63c-2 -1 -8 -1 -10 -1c-32 0 -60 21 -60 64c0 46 44 85 88 85c39 0 76 -27 76 -79zM290 0h-186l85 389h-143l36 161h471l-36 -161h-142z" />
    <glyph glyph-name="uni021A.smcp" horiz-adv-x="501" 
d="M253 -120c0 -67 -55 -141 -133 -178l-45 46c26 11 68 35 84 63c-2 -1 -8 -1 -10 -1c-32 0 -60 21 -60 64c0 46 44 85 88 85c39 0 76 -27 76 -79zM290 0h-186l85 389h-143l36 161h471l-36 -161h-142z" />
    <glyph glyph-name="uni1E6A.smcp" horiz-adv-x="501" 
d="M290 0h-186l85 389h-143l36 161h471l-36 -161h-142zM436 679c0 -52 -49 -99 -101 -99c-45 0 -79 34 -79 79c0 52 49 99 101 99c45 0 79 -34 79 -79z" />
    <glyph glyph-name="Uacute.smcp" unicode="&#xf7fa;" horiz-adv-x="669" 
d="M650 750l-187 -144h-122l152 144h157zM333 -12c-197 0 -293 89 -293 195c0 13 2 27 5 41l72 326h188l-68 -308c-1 -7 -2 -13 -2 -19c0 -45 38 -72 93 -72c56 0 90 37 102 91l68 308h188l-72 -325c-33 -149 -109 -237 -281 -237z" />
    <glyph glyph-name="Ubreve.smcp" unicode="&#xf69f;" horiz-adv-x="669" 
d="M333 -12c-197 0 -293 89 -293 195c0 13 2 27 5 41l72 326h188l-68 -308c-1 -7 -2 -13 -2 -19c0 -45 38 -72 93 -72c56 0 90 37 102 91l68 308h188l-72 -325c-33 -149 -109 -237 -281 -237zM599 662c-52 -54 -122 -88 -194 -88c-71 0 -128 34 -157 88l86 62
c15 -31 44 -53 88 -53c42 0 80 19 112 53z" />
    <glyph glyph-name="Ucircumflex.smcp" unicode="&#xf7fb;" horiz-adv-x="669" 
d="M581 606h-103l-48 73l-77 -73h-107l120 144h156zM333 -12c-197 0 -293 89 -293 195c0 13 2 27 5 41l72 326h188l-68 -308c-1 -7 -2 -13 -2 -19c0 -45 38 -72 93 -72c56 0 90 37 102 91l68 308h188l-72 -325c-33 -149 -109 -237 -281 -237z" />
    <glyph glyph-name="Udieresis.smcp" unicode="&#xf7fc;" horiz-adv-x="669" 
d="M626 678c0 -52 -49 -99 -101 -99c-45 0 -79 34 -79 79c0 52 49 99 101 99c45 0 79 -34 79 -79zM410 678c0 -52 -49 -99 -101 -99c-45 0 -79 34 -79 79c0 52 49 99 101 99c45 0 79 -34 79 -79zM333 -12c-197 0 -293 89 -293 195c0 13 2 27 5 41l72 326h188l-68 -308
c-1 -7 -2 -13 -2 -19c0 -45 38 -72 93 -72c56 0 90 37 102 91l68 308h188l-72 -325c-33 -149 -109 -237 -281 -237z" />
    <glyph glyph-name="Ugrave.smcp" unicode="&#xf7f9;" horiz-adv-x="669" 
d="M333 -12c-197 0 -293 89 -293 195c0 13 2 27 5 41l72 326h188l-68 -308c-1 -7 -2 -13 -2 -19c0 -45 38 -72 93 -72c56 0 90 37 102 91l68 308h188l-72 -325c-33 -149 -109 -237 -281 -237zM483 606h-120l-123 144h155z" />
    <glyph glyph-name="Uhungarumlaut.smcp" unicode="&#xf6a0;" horiz-adv-x="669" 
d="M333 -12c-197 0 -293 89 -293 195c0 13 2 27 5 41l72 326h188l-68 -308c-1 -7 -2 -13 -2 -19c0 -45 38 -72 93 -72c56 0 90 37 102 91l68 308h188l-72 -325c-33 -149 -109 -237 -281 -237zM508 750l-147 -144h-102l112 144h137zM664 750l-147 -144h-102l112 144h137z" />
    <glyph glyph-name="Umacron.smcp" unicode="&#xf6a1;" horiz-adv-x="669" 
d="M333 -12c-197 0 -293 89 -293 195c0 13 2 27 5 41l72 326h188l-68 -308c-1 -7 -2 -13 -2 -19c0 -45 38 -72 93 -72c56 0 90 37 102 91l68 308h188l-72 -325c-33 -149 -109 -237 -281 -237zM594 601h-362l21 97h362z" />
    <glyph glyph-name="Uogonek.smcp" unicode="&#xf6a2;" horiz-adv-x="669" 
d="M411 -91l55 -49c-26 -29 -58 -46 -98 -46c-54 0 -105 26 -105 81c0 31 12 65 38 94c-176 9 -261 94 -261 194c0 13 2 27 5 41l72 326h188l-68 -308c-1 -7 -2 -13 -2 -19c0 -45 38 -72 93 -72c56 0 90 37 102 91l68 308h188l-72 -325c-26 -117 -79 -197 -183 -225
c-58 -26 -86 -59 -86 -92c0 -16 11 -26 27 -26s29 12 39 27z" />
    <glyph glyph-name="Uring.smcp" unicode="&#xf6a3;" horiz-adv-x="669" 
d="M333 -12c-197 0 -293 89 -293 195c0 13 2 27 5 41l72 326h188l-68 -308c-1 -7 -2 -13 -2 -19c0 -45 38 -72 93 -72c56 0 90 37 102 91l68 308h188l-72 -325c-33 -149 -109 -237 -281 -237zM421 569c-61 0 -102 41 -102 102c0 66 56 122 122 122c61 0 102 -41 102 -102
c0 -66 -56 -122 -122 -122zM429 647c19 0 36 17 36 36s-13 32 -32 32s-36 -17 -36 -36s13 -32 32 -32z" />
    <glyph glyph-name="Utilde.smcp" unicode="&#xf6a4;" horiz-adv-x="669" 
d="M333 -12c-197 0 -293 89 -293 195c0 13 2 27 5 41l72 326h188l-68 -308c-1 -7 -2 -13 -2 -19c0 -45 38 -72 93 -72c56 0 90 37 102 91l68 308h188l-72 -325c-33 -149 -109 -237 -281 -237zM486 604c-67 0 -86 43 -123 43c-13 0 -23 -12 -28 -37h-90c18 92 50 134 127 134
c67 0 87 -43 124 -43c13 0 22 12 28 37h90c-20 -92 -51 -134 -128 -134z" />
    <glyph glyph-name="uni1EE4.smcp" horiz-adv-x="669" 
d="M333 -12c-197 0 -293 89 -293 195c0 13 2 27 5 41l72 326h188l-68 -308c-1 -7 -2 -13 -2 -19c0 -45 38 -72 93 -72c56 0 90 37 102 91l68 308h188l-72 -325c-33 -149 -109 -237 -281 -237zM341 -110c0 -52 -49 -99 -101 -99c-45 0 -79 34 -79 79c0 52 49 99 101 99
c45 0 79 -34 79 -79z" />
    <glyph glyph-name="Uhorn.smcp" horiz-adv-x="669" 
d="M333 -12c-197 0 -293 89 -293 195c0 13 2 27 5 41l72 326h188l-67 -303c-2 -8 -3 -18 -3 -24c0 -45 38 -72 93 -72c56 0 90 37 102 91l68 308h164c12 8 21 18 27 29c-2 -1 -6 -1 -8 -1c-28 0 -53 18 -53 56c0 41 38 74 77 74c34 0 67 -24 67 -69c0 -61 -42 -113 -99 -147
l-59 -267c-33 -149 -109 -237 -281 -237z" />
    <glyph glyph-name="uni1EE6.smcp" horiz-adv-x="669" 
d="M333 -12c-197 0 -293 89 -293 195c0 13 2 27 5 41l72 326h188l-68 -308c-1 -7 -2 -13 -2 -19c0 -45 38 -72 93 -72c56 0 90 37 102 91l68 308h188l-72 -325c-33 -149 -109 -237 -281 -237zM388 630l-51 25c18 32 49 48 89 48c37 0 81 -20 81 -65c0 -19 -10 -43 -20 -58
h-71c15 15 24 32 24 48c0 12 -9 21 -22 21c-12 0 -22 -7 -30 -19z" />
    <glyph glyph-name="uni1EE8.smcp" horiz-adv-x="669" 
d="M650 750l-187 -144h-122l152 144h157zM333 -12c-197 0 -293 89 -293 195c0 13 2 27 5 41l72 326h188l-67 -303c-2 -8 -3 -18 -3 -24c0 -45 38 -72 93 -72c56 0 90 37 102 91l68 308h164c12 8 21 18 27 29c-2 -1 -6 -1 -8 -1c-28 0 -53 18 -53 56c0 41 38 74 77 74
c34 0 67 -24 67 -69c0 -61 -42 -113 -99 -147l-59 -267c-33 -149 -109 -237 -281 -237z" />
    <glyph glyph-name="uni1EEA.smcp" horiz-adv-x="669" 
d="M483 606h-120l-123 144h155zM333 -12c-197 0 -293 89 -293 195c0 13 2 27 5 41l72 326h188l-67 -303c-2 -8 -3 -18 -3 -24c0 -45 38 -72 93 -72c56 0 90 37 102 91l68 308h164c12 8 21 18 27 29c-2 -1 -6 -1 -8 -1c-28 0 -53 18 -53 56c0 41 38 74 77 74
c34 0 67 -24 67 -69c0 -61 -42 -113 -99 -147l-59 -267c-33 -149 -109 -237 -281 -237z" />
    <glyph glyph-name="uni1EEC.smcp" horiz-adv-x="669" 
d="M388 630l-51 25c18 32 49 48 89 48c37 0 81 -20 81 -65c0 -19 -10 -43 -20 -58h-71c15 15 24 32 24 48c0 12 -9 21 -22 21c-12 0 -22 -7 -30 -19zM333 -12c-197 0 -293 89 -293 195c0 13 2 27 5 41l72 326h188l-67 -303c-2 -8 -3 -18 -3 -24c0 -45 38 -72 93 -72
c56 0 90 37 102 91l68 308h164c12 8 21 18 27 29c-2 -1 -6 -1 -8 -1c-28 0 -53 18 -53 56c0 41 38 74 77 74c34 0 67 -24 67 -69c0 -61 -42 -113 -99 -147l-59 -267c-33 -149 -109 -237 -281 -237z" />
    </font>
</defs>
</svg>
